<?xml version="1.0" encoding="UTF-8" standalone="no"?>
<!-- Generator: Adobe Illustrator 26.1.0, SVG Export Plug-In . SVG Version: 6.00 Build 0)  -->

<svg
   version="1.1"
   id="Logos"
   x="0px"
   y="0px"
   viewBox="0 0 1456.297 282.568"
   style="enable-background:new 0 0 1456.297 282.568;"
   xml:space="preserve"
   sodipodi:docname="FAU_WiSo.svg"
   inkscape:version="1.1.1 (3bf5ae0d25, 2021-09-20)"
   xmlns:inkscape="http://www.inkscape.org/namespaces/inkscape"
   xmlns:sodipodi="http://sodipodi.sourceforge.net/DTD/sodipodi-0.dtd"
   xmlns="http://www.w3.org/2000/svg"
   xmlns:svg="http://www.w3.org/2000/svg"><defs
   id="defs174" /><sodipodi:namedview
   id="namedview172"
   pagecolor="#ffffff"
   bordercolor="#666666"
   borderopacity="1.0"
   inkscape:pageshadow="2"
   inkscape:pageopacity="0.0"
   inkscape:pagecheckerboard="0"
   showgrid="false"
   inkscape:zoom="0.18471507"
   inkscape:cx="-452.04758"
   inkscape:cy="-592.80491"
   inkscape:window-width="1920"
   inkscape:window-height="1129"
   inkscape:window-x="1192"
   inkscape:window-y="1354"
   inkscape:window-maximized="1"
   inkscape:current-layer="g166" />
<g
   id="g168">
	<g
   id="g166">
		<path
   style="fill:#ffffff;fill-opacity:1"
   d="M625.367,55.06h-17.433v9.624h13.033v6.269h-13.033V87.45h-6.874V48.735h24.307V55.06z"
   id="path2" />
		<path
   style="fill:#ffffff;fill-opacity:1"
   d="M646.042,59.349l-1.045,6.709c-0.989-0.55-2.199-0.88-3.629-0.88c-4.51,0-5.72,3.63-5.72,7.919    V87.45h-6.544V59.459h6.435v3.52h0.109c1.485-2.64,4.125-4.234,7.314-4.234C643.897,58.744,645.052,58.909,646.042,59.349z"
   id="path4" />
		<path
   style="fill:#ffffff;fill-opacity:1"
   d="M658.996,50.99c0,2.31-1.87,3.959-4.18,3.959c-2.255,0-4.125-1.649-4.125-3.959    c0-2.255,1.87-3.96,4.125-3.96C657.125,47.03,658.996,48.735,658.996,50.99z M658.116,87.45h-6.545V59.459h6.545V87.45z"
   id="path6" />
		<path
   style="fill:#ffffff;fill-opacity:1"
   d="M678.866,88.11c-8.304,0-13.858-5.885-13.858-14.738c0-8.688,5.335-14.628,13.144-14.628    c7.534,0,12.429,5.609,12.429,14.243c0,0.935-0.056,1.925-0.11,2.694h-18.808c0.715,4.345,3.3,6.819,7.259,6.819    c2.585,0,4.675-0.99,6.875-3.3l4.069,4.29C686.675,86.625,683.1,88.11,678.866,88.11z M671.552,70.897h12.703    c-0.275-4.289-2.53-6.764-6.215-6.764C674.412,64.134,672.102,66.553,671.552,70.897z"
   id="path8" />
		<path
   style="fill:#ffffff;fill-opacity:1"
   d="M696.27,73.372c0-9.019,4.564-14.628,11.383-14.628c3.52,0,6.27,1.484,8.14,3.794h0.109V48.186    l6.544-1.649V87.45h-6.379v-3.3h-0.11c-2.034,2.475-4.949,3.96-8.413,3.96C700.889,88.11,696.27,82.446,696.27,73.372z     M702.758,73.372c0,5.719,2.365,8.964,6.489,8.964c2.53,0,4.62-1.21,6.654-3.685V68.423c-1.869-2.529-4.015-3.739-6.654-3.739    C705.013,64.684,702.758,67.763,702.758,73.372z"
   id="path10" />
		<path
   style="fill:#ffffff;fill-opacity:1"
   d="M747.907,59.349l-1.045,6.709c-0.99-0.55-2.2-0.88-3.63-0.88c-4.509,0-5.719,3.63-5.719,7.919    V87.45h-6.544V59.459h6.434v3.52h0.11c1.484-2.64,4.124-4.234,7.314-4.234C745.762,58.744,746.917,58.909,747.907,59.349z"
   id="path12" />
		<path
   style="fill:#ffffff;fill-opacity:1"
   d="M760.86,50.99c0,2.31-1.87,3.959-4.18,3.959c-2.255,0-4.125-1.649-4.125-3.959    c0-2.255,1.87-3.96,4.125-3.96C758.99,47.03,760.86,48.735,760.86,50.99z M759.98,87.45h-6.545V59.459h6.545V87.45z"
   id="path14" />
		<path
   style="fill:#ffffff;fill-opacity:1"
   d="M790.425,83.601c-2.805,3.08-5.994,4.51-10.009,4.51c-8.028,0-13.418-5.774-13.418-14.573    s5.444-14.793,13.528-14.793c4.18,0,7.643,1.649,10.063,4.784l-4.51,4.289c-1.649-2.145-3.409-3.079-5.609-3.079    c-4.124,0-6.929,3.409-6.929,8.688c0,5.225,2.805,8.744,6.874,8.744c2.2,0,3.96-0.99,5.774-3.08L790.425,83.601z"
   id="path16" />
		<path
   style="fill:#ffffff;fill-opacity:1"
   d="M820.29,87.45h-6.544V71.447c0-4.124-1.266-6.819-5.17-6.819c-4.509,0-5.829,3.575-5.829,6.765    V87.45h-6.544V48.186l6.544-1.649v16.277h0.11c1.595-2.475,4.509-4.069,8.193-4.069c6.489,0,9.239,4.839,9.239,11.328V87.45z"
   id="path18" />
		<path
   style="fill:#ffffff;fill-opacity:1"
   d="M841.548,73.372H827.8v-6.214h13.748V73.372z"
   id="path20" />
		<path
   style="fill:#ffffff;fill-opacity:1"
   d="M859.324,48.735h7.259l14.408,38.715h-7.534l-2.805-8.249h-15.617l-2.805,8.249h-7.315    L859.324,48.735z M857.179,73.042h11.328L862.898,56.6h-0.11L857.179,73.042z"
   id="path22" />
		<path
   style="fill:#ffffff;fill-opacity:1"
   d="M893.276,87.45h-6.544V48.075l6.544-1.484V87.45z"
   id="path24" />
		<path
   style="fill:#ffffff;fill-opacity:1"
   d="M914.229,88.11c-8.304,0-13.857-5.885-13.857-14.738c0-8.688,5.334-14.628,13.143-14.628    c7.534,0,12.429,5.609,12.429,14.243c0,0.935-0.055,1.925-0.11,2.694h-18.807c0.715,4.345,3.299,6.819,7.259,6.819    c2.584,0,4.674-0.99,6.874-3.3l4.069,4.29C922.039,86.625,918.463,88.11,914.229,88.11z M906.915,70.897h12.703    c-0.275-4.289-2.529-6.764-6.214-6.764C909.775,64.134,907.465,66.553,906.915,70.897z"
   id="path26" />
		<path
   style="fill:#ffffff;fill-opacity:1"
   d="M956.198,87.45h-7.48l-5.994-9.679h-0.109l-5.83,9.679h-7.368l9.568-14.518l-8.853-13.474h7.369    l5.279,8.579h0.109l5.225-8.579h7.259l-8.799,13.363L956.198,87.45z"
   id="path28" />
		<path
   style="fill:#ffffff;fill-opacity:1"
   d="M971.665,70.072c1.814,0,3.465,0.11,5.279,0.605v-0.99c0-3.574-2.09-5.444-6.159-5.444    c-2.255,0-4.784,0.55-7.094,1.595l-1.43-5.499c2.584-0.99,5.994-1.595,9.184-1.595c7.864,0,11.934,3.685,11.934,10.833V87.45    h-6.215v-2.97h-0.109c-2.42,2.475-4.949,3.63-8.194,3.63c-5.609,0-9.238-3.465-9.238-8.909    C959.622,73.262,963.856,70.072,971.665,70.072z M970.565,83.216c2.364,0,4.564-1.155,6.379-3.354v-4.895    c-1.54-0.385-3.135-0.55-4.565-0.55c-4.124,0-6.489,1.649-6.489,4.619C965.89,81.621,967.706,83.216,970.565,83.216z"
   id="path30" />
		<path
   style="fill:#ffffff;fill-opacity:1"
   d="M1015.762,87.45h-6.545V71.447c0-4.069-1.209-6.819-5.169-6.819c-4.565,0-5.829,3.74-5.829,6.765    V87.45h-6.544V59.459h6.489v3.354h0.109c1.65-2.475,4.62-4.069,8.249-4.069c6.379,0,9.239,4.674,9.239,11.328V87.45z"
   id="path32" />
		<path
   style="fill:#ffffff;fill-opacity:1"
   d="M1022.684,73.372c0-9.019,4.564-14.628,11.384-14.628c3.52,0,6.27,1.484,8.139,3.794h0.11V48.186    l6.544-1.649V87.45h-6.379v-3.3h-0.11c-2.034,2.475-4.949,3.96-8.414,3.96C1027.304,88.11,1022.684,82.446,1022.684,73.372z     M1029.173,73.372c0,5.719,2.365,8.964,6.489,8.964c2.529,0,4.619-1.21,6.654-3.685V68.423c-1.87-2.529-4.015-3.739-6.654-3.739    C1031.428,64.684,1029.173,67.763,1029.173,73.372z"
   id="path34" />
		<path
   style="fill:#ffffff;fill-opacity:1"
   d="M1069.822,88.11c-8.304,0-13.857-5.885-13.857-14.738c0-8.688,5.334-14.628,13.143-14.628    c7.534,0,12.429,5.609,12.429,14.243c0,0.935-0.055,1.925-0.11,2.694h-18.808c0.716,4.345,3.3,6.819,7.26,6.819    c2.584,0,4.674-0.99,6.874-3.3l4.069,4.29C1077.631,86.625,1074.057,88.11,1069.822,88.11z M1062.508,70.897h12.703    c-0.275-4.289-2.529-6.764-6.214-6.764C1065.368,64.134,1063.058,66.553,1062.508,70.897z"
   id="path36" />
		<path
   style="fill:#ffffff;fill-opacity:1"
   d="M1105.621,59.349l-1.045,6.709c-0.989-0.55-2.199-0.88-3.63-0.88c-4.509,0-5.719,3.63-5.719,7.919    V87.45h-6.544V59.459h6.434v3.52h0.11c1.484-2.64,4.124-4.234,7.314-4.234C1103.476,58.744,1104.63,58.909,1105.621,59.349z"
   id="path38" />
		<path
   style="fill:#ffffff;fill-opacity:1"
   d="M1123.44,73.372h-13.748v-6.214h13.748V73.372z"
   id="path40" />
		<path
   style="fill:#ffffff;fill-opacity:1"
   d="M1162.036,72.107c0,9.349-4.784,16.003-15.178,16.003c-10.339,0-15.068-6.6-15.068-16.003V48.735    h7.039v22.987c0,5.829,2.53,9.788,8.249,9.788c5.72,0,7.975-3.904,7.975-9.788V48.735h6.983V72.107z"
   id="path42" />
		<path
   style="fill:#ffffff;fill-opacity:1"
   d="M1194.812,87.45h-6.544V71.447c0-4.069-1.21-6.819-5.17-6.819c-4.564,0-5.829,3.74-5.829,6.765    V87.45h-6.544V59.459h6.489v3.354h0.109c1.65-2.475,4.62-4.069,8.249-4.069c6.379,0,9.239,4.674,9.239,11.328V87.45z"
   id="path44" />
		<path
   style="fill:#ffffff;fill-opacity:1"
   d="M1210.489,50.99c0,2.31-1.87,3.959-4.18,3.959c-2.255,0-4.124-1.649-4.124-3.959    c0-2.255,1.869-3.96,4.124-3.96C1208.619,47.03,1210.489,48.735,1210.489,50.99z M1209.609,87.45h-6.544V59.459h6.544V87.45z"
   id="path46" />
		<path
   style="fill:#ffffff;fill-opacity:1"
   d="M1242.326,59.459l-10.174,27.991h-6.819l-10.173-27.991h7.204l6.434,20.348h0.11l6.434-20.348    H1242.326z"
   id="path48" />
		<path
   style="fill:#ffffff;fill-opacity:1"
   d="M1259.229,88.11c-8.304,0-13.857-5.885-13.857-14.738c0-8.688,5.334-14.628,13.143-14.628    c7.534,0,12.429,5.609,12.429,14.243c0,0.935-0.055,1.925-0.11,2.694h-18.807c0.715,4.345,3.299,6.819,7.259,6.819    c2.584,0,4.674-0.99,6.874-3.3l4.069,4.29C1267.039,86.625,1263.463,88.11,1259.229,88.11z M1251.916,70.897h12.703    c-0.274-4.289-2.529-6.764-6.214-6.764C1254.775,64.134,1252.465,66.553,1251.916,70.897z"
   id="path50" />
		<path
   style="fill:#ffffff;fill-opacity:1"
   d="M1295.028,59.349l-1.045,6.709c-0.99-0.55-2.199-0.88-3.629-0.88c-4.51,0-5.72,3.63-5.72,7.919    V87.45h-6.544V59.459h6.434v3.52h0.11c1.484-2.64,4.124-4.234,7.314-4.234C1292.883,58.744,1294.038,58.909,1295.028,59.349z"
   id="path52" />
		<path
   style="fill:#ffffff;fill-opacity:1"
   d="M1301.216,79.531c2.75,2.09,5.444,3.135,7.919,3.135c2.42,0,4.124-1.1,4.124-2.805    c0-4.784-14.022-3.08-14.022-12.429c0-5.169,4.289-8.689,10.559-8.689c3.354,0,6.709,0.989,9.679,2.914l-3.08,5.114    c-2.419-1.649-4.564-2.475-6.709-2.475c-2.42,0-4.015,1.045-4.015,2.585c0,4.564,13.969,2.97,13.969,12.373    c0,5.279-4.345,8.854-10.779,8.854c-3.739,0-7.533-1.155-10.778-3.41L1301.216,79.531z"
   id="path54" />
		<path
   style="fill:#ffffff;fill-opacity:1"
   d="M1334.061,50.99c0,2.31-1.87,3.959-4.18,3.959c-2.255,0-4.124-1.649-4.124-3.959    c0-2.255,1.869-3.96,4.124-3.96C1332.191,47.03,1334.061,48.735,1334.061,50.99z M1333.181,87.45h-6.544V59.459h6.544V87.45z"
   id="path56" />
		<path
   style="fill:#ffffff;fill-opacity:1"
   d="M1356.166,81.456v5.609c-1.43,0.66-3.575,1.045-5.5,1.045c-4.949,0-7.644-2.75-7.644-7.864V64.903    h-4.289v-5.444h4.234v-7.644l6.544-1.431v9.074h6.654v5.444h-6.654v13.803c0,2.585,0.88,3.685,3.024,3.685    C1353.746,82.391,1355.065,82.006,1356.166,81.456z"
   id="path58" />
		<path
   style="fill:#ffffff;fill-opacity:1"
   d="M1373.319,70.072c1.814,0,3.465,0.11,5.279,0.605v-0.99c0-3.574-2.09-5.444-6.159-5.444    c-2.255,0-4.784,0.55-7.094,1.595l-1.43-5.499c2.584-0.99,5.994-1.595,9.184-1.595c7.864,0,11.934,3.685,11.934,10.833V87.45    h-6.215v-2.97h-0.109c-2.42,2.475-4.949,3.63-8.194,3.63c-5.609,0-9.238-3.465-9.238-8.909    C1361.276,73.262,1365.51,70.072,1373.319,70.072z M1367.985,55.114c-2.09,0-3.904-1.76-3.904-3.794    c0-2.035,1.814-3.85,3.904-3.85s3.904,1.814,3.904,3.85C1371.889,53.354,1370.075,55.114,1367.985,55.114z M1372.219,83.216    c2.364,0,4.564-1.155,6.379-3.354v-4.895c-1.54-0.385-3.135-0.55-4.564-0.55c-4.124,0-6.489,1.649-6.489,4.619    C1367.544,81.621,1369.36,83.216,1372.219,83.216z M1379.423,55.114c-2.09,0-3.904-1.76-3.904-3.794    c0-2.035,1.814-3.85,3.904-3.85s3.904,1.814,3.904,3.85C1383.328,53.354,1381.513,55.114,1379.423,55.114z"
   id="path60" />
		<path
   style="fill:#ffffff;fill-opacity:1"
   d="M1407.551,81.456v5.609c-1.43,0.66-3.575,1.045-5.5,1.045c-4.949,0-7.644-2.75-7.644-7.864V64.903    h-4.289v-5.444h4.234v-7.644l6.544-1.431v9.074h6.654v5.444h-6.654v13.803c0,2.585,0.88,3.685,3.024,3.685    C1405.131,82.391,1406.451,82.006,1407.551,81.456z"
   id="path62" />
		<path
   style="fill:#C50F3C;"
   d="M625.367,115.56h-17.433v9.624h13.033v6.269h-13.033v16.498h-6.874v-38.715h24.307V115.56z"
   id="path64" />
		<path
   style="fill:#C50F3C;"
   d="M638.645,130.572c1.815,0,3.465,0.11,5.279,0.605v-0.99c0-3.574-2.089-5.444-6.159-5.444    c-2.254,0-4.784,0.55-7.094,1.595l-1.43-5.499c2.585-0.99,5.994-1.595,9.184-1.595c7.864,0,11.934,3.685,11.934,10.833v17.873    h-6.214v-2.97h-0.11c-2.42,2.475-4.949,3.63-8.194,3.63c-5.608,0-9.238-3.465-9.238-8.909    C626.602,133.762,630.836,130.572,638.645,130.572z M637.545,143.716c2.365,0,4.565-1.155,6.379-3.355v-4.895    c-1.539-0.385-3.134-0.55-4.564-0.55c-4.124,0-6.488,1.649-6.488,4.619C632.872,142.121,634.686,143.716,637.545,143.716z"
   id="path66" />
		<path
   style="fill:#C50F3C;"
   d="M680.614,144.101c-2.805,3.08-5.994,4.51-10.009,4.51c-8.028,0-13.418-5.774-13.418-14.573    c0-8.799,5.444-14.793,13.528-14.793c4.18,0,7.644,1.649,10.064,4.784l-4.51,4.289c-1.649-2.145-3.409-3.079-5.609-3.079    c-4.124,0-6.929,3.409-6.929,8.688c0,5.225,2.805,8.744,6.874,8.744c2.2,0,3.96-0.99,5.774-3.08L680.614,144.101z"
   id="path68" />
		<path
   style="fill:#C50F3C;"
   d="M710.478,147.95h-6.544v-16.003c0-4.124-1.266-6.819-5.17-6.819c-4.509,0-5.829,3.575-5.829,6.765    v16.058h-6.544v-39.265l6.544-1.649v16.277h0.11c1.595-2.475,4.509-4.069,8.193-4.069c6.489,0,9.239,4.839,9.239,11.328V147.95z"
   id="path70" />
		<path
   style="fill:#C50F3C;"
   d="M744.946,133.762c0,9.02-4.564,14.849-11.438,14.849c-3.52,0-6.435-1.485-8.304-3.904h-0.11v3.244    h-6.27v-39.265l6.545-1.649v16.167h0.109c1.87-2.475,4.73-3.959,8.194-3.959C740.381,119.244,744.946,124.688,744.946,133.762z     M738.511,133.927c0-5.773-2.364-8.799-6.544-8.799c-2.529,0-4.565,1.101-6.599,3.63v10.229c1.869,2.475,3.959,3.795,6.653,3.795    C736.256,142.781,738.511,139.536,738.511,133.927z"
   id="path72" />
		<path
   style="fill:#C50F3C;"
   d="M764.549,148.61c-8.304,0-13.858-5.885-13.858-14.738c0-8.688,5.335-14.628,13.144-14.628    c7.534,0,12.429,5.609,12.429,14.243c0,0.935-0.056,1.925-0.11,2.694h-18.808c0.715,4.345,3.3,6.819,7.259,6.819    c2.585,0,4.675-0.99,6.875-3.3l4.069,4.29C772.359,147.125,768.784,148.61,764.549,148.61z M757.236,131.397h12.703    c-0.275-4.289-2.53-6.764-6.215-6.764C760.095,124.634,757.786,127.053,757.236,131.397z"
   id="path74" />
		<path
   style="fill:#C50F3C;"
   d="M800.348,119.849l-1.045,6.709c-0.99-0.55-2.2-0.88-3.63-0.88c-4.509,0-5.719,3.63-5.719,7.919    v14.354h-6.544v-27.991h6.433v3.52h0.11c1.484-2.64,4.124-4.234,7.313-4.234C798.204,119.244,799.358,119.409,800.348,119.849z"
   id="path76" />
		<path
   style="fill:#C50F3C;"
   d="M817.816,148.61c-8.304,0-13.858-5.885-13.858-14.738c0-8.688,5.335-14.628,13.144-14.628    c7.534,0,12.429,5.609,12.429,14.243c0,0.935-0.056,1.925-0.11,2.694h-18.808c0.715,4.345,3.3,6.819,7.259,6.819    c2.585,0,4.675-0.99,6.875-3.3l4.069,4.29C825.625,147.125,822.05,148.61,817.816,148.61z M810.503,131.397h12.703    c-0.275-4.289-2.53-6.764-6.215-6.764C813.362,124.634,811.052,127.053,810.503,131.397z"
   id="path78" />
		<path
   style="fill:#C50F3C;"
   d="M844.008,111.49c0,2.31-1.87,3.959-4.18,3.959c-2.255,0-4.125-1.649-4.125-3.959    c0-2.255,1.87-3.96,4.125-3.96C842.138,107.53,844.008,109.235,844.008,111.49z M843.128,147.95h-6.545v-27.991h6.545V147.95z"
   id="path80" />
		<path
   style="fill:#C50F3C;"
   d="M873.574,144.101c-2.805,3.08-5.994,4.51-10.009,4.51c-8.029,0-13.418-5.774-13.418-14.573    c0-8.799,5.444-14.793,13.528-14.793c4.179,0,7.644,1.649,10.063,4.784l-4.51,4.289c-1.649-2.145-3.409-3.079-5.609-3.079    c-4.124,0-6.929,3.409-6.929,8.688c0,5.225,2.805,8.744,6.874,8.744c2.199,0,3.959-0.99,5.774-3.08L873.574,144.101z"
   id="path82" />
		<path
   style="fill:#C50F3C;"
   d="M903.437,147.95h-6.544v-16.003c0-4.124-1.265-6.819-5.17-6.819c-4.509,0-5.829,3.575-5.829,6.765    v16.058h-6.544v-39.265l6.544-1.649v16.277h0.11c1.595-2.475,4.51-4.069,8.193-4.069c6.489,0,9.239,4.839,9.239,11.328V147.95z"
   id="path84" />
		<path
   style="fill:#C50F3C;"
   d="M925.549,109.235h7.204l6.324,28.046h0.11l6.653-28.046h7.149l6.819,28.046h0.109l6.159-28.046    h7.095l-9.734,38.715h-7.094l-6.929-28.376h-0.11l-6.929,28.376h-7.15L925.549,109.235z"
   id="path86" />
		<path
   style="fill:#C50F3C;"
   d="M986.988,111.49c0,2.31-1.87,3.959-4.18,3.959c-2.255,0-4.124-1.649-4.124-3.959    c0-2.255,1.869-3.96,4.124-3.96C985.118,107.53,986.988,109.235,986.988,111.49z M986.108,147.95h-6.544v-27.991h6.544V147.95z"
   id="path88" />
		<path
   style="fill:#C50F3C;"
   d="M1011.604,119.849l-1.045,6.709c-0.99-0.55-2.199-0.88-3.629-0.88c-4.51,0-5.72,3.63-5.72,7.919    v14.354h-6.544v-27.991h6.434v3.52h0.11c1.484-2.64,4.124-4.234,7.314-4.234C1009.459,119.244,1010.614,119.409,1011.604,119.849z    "
   id="path90" />
		<path
   style="fill:#C50F3C;"
   d="M1033.086,141.956v5.609c-1.43,0.66-3.575,1.045-5.5,1.045c-4.949,0-7.644-2.75-7.644-7.864    v-15.343h-4.289v-5.444h4.234v-7.644l6.544-1.431v9.074h6.654v5.444h-6.654v13.803c0,2.585,0.88,3.685,3.024,3.685    C1030.667,142.891,1031.986,142.506,1033.086,141.956z"
   id="path92" />
		<path
   style="fill:#C50F3C;"
   d="M1040.859,140.031c2.75,2.09,5.444,3.135,7.919,3.135c2.42,0,4.124-1.1,4.124-2.805    c0-4.784-14.022-3.08-14.022-12.429c0-5.169,4.289-8.688,10.559-8.688c3.354,0,6.709,0.989,9.679,2.914l-3.08,5.114    c-2.419-1.649-4.564-2.475-6.709-2.475c-2.42,0-4.015,1.045-4.015,2.585c0,4.564,13.969,2.97,13.969,12.373    c0,5.279-4.345,8.855-10.779,8.855c-3.739,0-7.533-1.155-10.778-3.41L1040.859,140.031z"
   id="path94" />
		<path
   style="fill:#C50F3C;"
   d="M1088.062,144.101c-2.805,3.08-5.994,4.51-10.009,4.51c-8.029,0-13.418-5.774-13.418-14.573    c0-8.799,5.444-14.793,13.528-14.793c4.179,0,7.644,1.649,10.063,4.784l-4.51,4.289c-1.649-2.145-3.409-3.079-5.609-3.079    c-4.124,0-6.929,3.409-6.929,8.688c0,5.225,2.805,8.744,6.874,8.744c2.199,0,3.959-0.99,5.774-3.08L1088.062,144.101z"
   id="path96" />
		<path
   style="fill:#C50F3C;"
   d="M1117.926,147.95h-6.544v-16.003c0-4.124-1.265-6.819-5.17-6.819c-4.509,0-5.829,3.575-5.829,6.765    v16.058h-6.544v-39.265l6.544-1.649v16.277h0.11c1.595-2.475,4.51-4.069,8.194-4.069c6.488,0,9.238,4.839,9.238,11.328V147.95z"
   id="path98" />
		<path
   style="fill:#C50F3C;"
   d="M1136.418,130.572c1.814,0,3.465,0.11,5.279,0.605v-0.99c0-3.574-2.09-5.444-6.159-5.444    c-2.255,0-4.784,0.55-7.094,1.595l-1.43-5.499c2.584-0.99,5.994-1.595,9.184-1.595c7.864,0,11.934,3.685,11.934,10.833v17.873    h-6.215v-2.97h-0.109c-2.42,2.475-4.949,3.63-8.194,3.63c-5.609,0-9.238-3.465-9.238-8.909    C1124.375,133.762,1128.61,130.572,1136.418,130.572z M1135.319,143.716c2.364,0,4.564-1.155,6.379-3.355v-4.895    c-1.54-0.385-3.135-0.55-4.564-0.55c-4.124,0-6.489,1.649-6.489,4.619C1130.644,142.121,1132.459,143.716,1135.319,143.716z"
   id="path100" />
		<path
   style="fill:#C50F3C;"
   d="M1170.529,112.81c-0.88-0.385-1.925-0.55-2.859-0.55c-2.475,0-3.465,1.265-3.465,3.904v3.795h5.555    v5.444h-5.5v22.547h-6.544v-22.547h-4.344v-5.444h4.344v-4.015c0-5.829,2.64-9.294,8.909-9.294c1.43,0,2.805,0.165,3.904,0.605    V112.81z"
   id="path102" />
		<path
   style="fill:#C50F3C;"
   d="M1191.446,141.956v5.609c-1.43,0.66-3.575,1.045-5.5,1.045c-4.949,0-7.644-2.75-7.644-7.864    v-15.343h-4.289v-5.444h4.234v-7.644l6.544-1.431v9.074h6.654v5.444h-6.654v13.803c0,2.585,0.88,3.685,3.024,3.685    C1189.026,142.891,1190.345,142.506,1191.446,141.956z"
   id="path104" />
		<path
   style="fill:#C50F3C;"
   d="M1199.217,140.031c2.75,2.09,5.444,3.135,7.919,3.135c2.42,0,4.124-1.1,4.124-2.805    c0-4.784-14.022-3.08-14.022-12.429c0-5.169,4.289-8.688,10.559-8.688c3.354,0,6.709,0.989,9.679,2.914l-3.08,5.114    c-2.42-1.649-4.564-2.475-6.709-2.475c-2.42,0-4.015,1.045-4.015,2.585c0,4.564,13.969,2.97,13.969,12.373    c0,5.279-4.345,8.855-10.779,8.855c-3.739,0-7.533-1.155-10.778-3.41L1199.217,140.031z"
   id="path106" />
		<path
   style="fill:#C50F3C;"
   d="M1236.528,133.872h-13.748v-6.214h13.748V133.872z"
   id="path108" />
		<path
   style="fill:#C50F3C;"
   d="M1266.283,136.787c0,3.849,1.925,5.884,5.554,5.884c3.575,0,5.444-1.979,5.444-5.939v-16.772h6.544    v16.993c0,7.368-4.124,11.658-11.823,11.658c-7.644,0-12.263-4.29-12.263-11.604v-17.048h6.544V136.787z"
   id="path110" />
		<path
   style="fill:#C50F3C;"
   d="M1316.209,147.95h-6.545v-16.003c0-4.069-1.209-6.819-5.169-6.819c-4.564,0-5.829,3.74-5.829,6.765    v16.058h-6.544v-27.991h6.489v3.354h0.109c1.65-2.475,4.62-4.069,8.249-4.069c6.379,0,9.239,4.674,9.239,11.328V147.95z"
   id="path112" />
		<path
   style="fill:#C50F3C;"
   d="M1323.13,133.872c0-9.019,4.564-14.628,11.384-14.628c3.52,0,6.27,1.484,8.139,3.794h0.11v-14.353    l6.544-1.649v40.914h-6.379v-3.3h-0.11c-2.034,2.475-4.949,3.96-8.414,3.96C1327.75,148.61,1323.13,142.946,1323.13,133.872z     M1329.62,133.872c0,5.719,2.365,8.964,6.489,8.964c2.53,0,4.619-1.21,6.654-3.685v-10.229c-1.87-2.529-4.015-3.739-6.654-3.739    C1331.875,125.184,1329.62,128.263,1329.62,133.872z"
   id="path114" />
		<path
   style="fill:#C50F3C;"
   d="M602.6,198.441c2.859,2.75,6.379,4.345,9.623,4.345c3.63,0,6.269-2.035,6.269-4.84    c0-7.424-18.973-5.114-18.973-17.652c0-6.654,5.39-11.219,13.144-11.219c4.619,0,8.909,1.595,12.483,4.675l-4.345,5.334    c-2.805-2.475-5.609-3.739-8.469-3.739c-3.409,0-5.884,1.814-5.884,4.345c0,6.983,18.972,4.674,18.972,17.707    c0,6.984-5.389,11.714-13.362,11.714c-5.115,0-10.119-1.925-13.804-5.335L602.6,198.441z"
   id="path116" />
		<path
   style="fill:#C50F3C;"
   d="M631.233,194.427c0-8.799,5.444-14.683,13.584-14.683c8.084,0,13.363,5.774,13.363,14.683    c0,8.799-5.225,14.684-13.363,14.684C636.733,209.11,631.233,203.281,631.233,194.427z M651.691,194.482    c0-5.444-2.695-8.799-6.984-8.799c-4.345,0-6.984,3.355-6.984,8.689c0,5.444,2.695,8.854,7.039,8.854    C649.051,203.226,651.691,199.871,651.691,194.482z"
   id="path118" />
		<path
   style="fill:#C50F3C;"
   d="M684.921,208.45h-22.106v-5.609l13.968-16.773h-13.143v-5.609h21.062v5.609l-14.023,16.773h14.243    V208.45z"
   id="path120" />
		<path
   style="fill:#C50F3C;"
   d="M699.118,171.99c0,2.31-1.869,3.959-4.18,3.959c-2.254,0-4.124-1.649-4.124-3.959    c0-2.255,1.87-3.96,4.124-3.96C697.248,168.03,699.118,169.735,699.118,171.99z M698.238,208.45h-6.544v-27.991h6.544V208.45z"
   id="path122" />
		<path
   style="fill:#C50F3C;"
   d="M716.964,191.072c1.815,0,3.465,0.11,5.279,0.605v-0.99c0-3.574-2.089-5.444-6.159-5.444    c-2.254,0-4.784,0.55-7.094,1.595l-1.43-5.499c2.585-0.99,5.994-1.595,9.184-1.595c7.864,0,11.934,3.685,11.934,10.833v17.873    h-6.214v-2.97h-0.11c-2.42,2.475-4.949,3.63-8.194,3.63c-5.608,0-9.238-3.465-9.238-8.909    C704.921,194.262,709.156,191.072,716.964,191.072z M715.865,204.216c2.365,0,4.564-1.155,6.379-3.355v-4.895    c-1.539-0.385-3.134-0.55-4.565-0.55c-4.124,0-6.488,1.649-6.488,4.619C711.191,202.621,713.005,204.216,715.865,204.216z"
   id="path124" />
		<path
   style="fill:#C50F3C;"
   d="M743.596,208.45h-6.544v-39.375l6.544-1.484V208.45z"
   id="path126" />
		<path
   style="fill:#C50F3C;"
   d="M788.73,180.459l-8.304,27.991h-6.27l-5.114-19.357h-0.109l-5.06,19.357h-6.269l-8.304-27.991    h6.874l4.84,18.862h0.109l4.95-18.862h5.994l5.114,18.862h0.109l4.675-18.862H788.73z"
   id="path128" />
		<path
   style="fill:#C50F3C;"
   d="M801.951,171.99c0,2.31-1.87,3.959-4.18,3.959c-2.255,0-4.125-1.649-4.125-3.959    c0-2.255,1.87-3.96,4.125-3.96C800.081,168.03,801.951,169.735,801.951,171.99z M801.071,208.45h-6.545v-27.991h6.545V208.45z"
   id="path130" />
		<path
   style="fill:#C50F3C;"
   d="M810.212,200.531c2.749,2.09,5.444,3.135,7.919,3.135c2.419,0,4.124-1.1,4.124-2.805    c0-4.784-14.023-3.08-14.023-12.429c0-5.169,4.29-8.689,10.559-8.689c3.356,0,6.71,0.989,9.679,2.914l-3.079,5.114    c-2.42-1.649-4.564-2.475-6.709-2.475c-2.42,0-4.015,1.045-4.015,2.585c0,4.564,13.968,2.97,13.968,12.373    c0,5.279-4.344,8.855-10.778,8.855c-3.739,0-7.534-1.155-10.778-3.41L810.212,200.531z"
   id="path132" />
		<path
   style="fill:#C50F3C;"
   d="M836.094,200.531c2.75,2.09,5.444,3.135,7.919,3.135c2.42,0,4.125-1.1,4.125-2.805    c0-4.784-14.023-3.08-14.023-12.429c0-5.169,4.289-8.689,10.559-8.689c3.354,0,6.709,0.989,9.679,2.914l-3.08,5.114    c-2.419-1.649-4.563-2.475-6.709-2.475c-2.419,0-4.014,1.045-4.014,2.585c0,4.564,13.968,2.97,13.968,12.373    c0,5.279-4.345,8.855-10.778,8.855c-3.74,0-7.534-1.155-10.779-3.41L836.094,200.531z"
   id="path134" />
		<path
   style="fill:#C50F3C;"
   d="M873.728,209.11c-8.304,0-13.857-5.885-13.857-14.738c0-8.689,5.334-14.628,13.143-14.628    c7.534,0,12.429,5.609,12.429,14.243c0,0.935-0.055,1.925-0.11,2.694h-18.808c0.716,4.345,3.3,6.819,7.26,6.819    c2.584,0,4.674-0.99,6.874-3.3l4.069,4.29C881.538,207.625,877.963,209.11,873.728,209.11z M866.415,191.897h12.703    c-0.275-4.289-2.529-6.764-6.214-6.764C869.274,185.134,866.964,187.553,866.415,191.897z"
   id="path136" />
		<path
   style="fill:#C50F3C;"
   d="M916.676,208.45h-6.545v-16.003c0-4.069-1.209-6.819-5.169-6.819c-4.564,0-5.829,3.74-5.829,6.765    v16.058h-6.544v-27.991h6.489v3.355h0.109c1.65-2.475,4.62-4.069,8.249-4.069c6.379,0,9.239,4.674,9.239,11.328V208.45z"
   id="path138" />
		<path
   style="fill:#C50F3C;"
   d="M925.606,200.531c2.75,2.09,5.444,3.135,7.919,3.135c2.42,0,4.124-1.1,4.124-2.805    c0-4.784-14.022-3.08-14.022-12.429c0-5.169,4.289-8.689,10.559-8.689c3.355,0,6.709,0.989,9.679,2.914l-3.08,5.114    c-2.42-1.649-4.565-2.475-6.709-2.475c-2.42,0-4.015,1.045-4.015,2.585c0,4.564,13.969,2.97,13.969,12.373    c0,5.279-4.345,8.855-10.779,8.855c-3.739,0-7.533-1.155-10.778-3.41L925.606,200.531z"
   id="path140" />
		<path
   style="fill:#C50F3C;"
   d="M972.809,204.601c-2.805,3.08-5.994,4.51-10.009,4.51c-8.029,0-13.418-5.774-13.418-14.573    c0-8.799,5.444-14.793,13.528-14.793c4.179,0,7.643,1.649,10.063,4.784l-4.51,4.289c-1.649-2.145-3.409-3.079-5.609-3.079    c-4.124,0-6.929,3.409-6.929,8.688c0,5.225,2.805,8.744,6.874,8.744c2.199,0,3.959-0.99,5.774-3.08L972.809,204.601z"
   id="path142" />
		<path
   style="fill:#C50F3C;"
   d="M1002.673,208.45h-6.544v-16.003c0-4.124-1.265-6.819-5.17-6.819c-4.509,0-5.829,3.575-5.829,6.765    v16.058h-6.544v-39.265l6.544-1.649v16.277h0.11c1.595-2.475,4.51-4.069,8.193-4.069c6.489,0,9.239,4.839,9.239,11.328V208.45z"
   id="path144" />
		<path
   style="fill:#C50F3C;"
   d="M1021.165,191.072c1.815,0,3.465,0.11,5.279,0.605v-0.99c0-3.574-2.09-5.444-6.159-5.444    c-2.255,0-4.784,0.55-7.094,1.595l-1.43-5.499c2.584-0.99,5.994-1.595,9.184-1.595c7.864,0,11.934,3.685,11.934,10.833v17.873    h-6.215v-2.97h-0.109c-2.42,2.475-4.949,3.63-8.194,3.63c-5.609,0-9.238-3.465-9.238-8.909    C1009.123,194.262,1013.357,191.072,1021.165,191.072z M1020.066,204.216c2.364,0,4.565-1.155,6.379-3.355v-4.895    c-1.54-0.385-3.135-0.55-4.564-0.55c-4.124,0-6.489,1.649-6.489,4.619C1015.391,202.621,1017.207,204.216,1020.066,204.216z"
   id="path146" />
		<path
   style="fill:#C50F3C;"
   d="M1055.276,173.31c-0.88-0.385-1.925-0.55-2.859-0.55c-2.475,0-3.465,1.265-3.465,3.904v3.795h5.555    v5.444h-5.5v22.547h-6.544v-22.547h-4.345v-5.444h4.345v-4.015c0-5.829,2.64-9.294,8.909-9.294c1.43,0,2.805,0.165,3.904,0.605    V173.31z"
   id="path148" />
		<path
   style="fill:#C50F3C;"
   d="M1076.192,202.456v5.609c-1.43,0.66-3.575,1.045-5.5,1.045c-4.949,0-7.644-2.75-7.644-7.864    v-15.343h-4.289v-5.444h4.234v-7.644l6.544-1.431v9.074h6.654v5.444h-6.654v13.803c0,2.585,0.88,3.685,3.024,3.685    C1073.772,203.391,1075.091,203.006,1076.192,202.456z"
   id="path150" />
		<path
   style="fill:#C50F3C;"
   d="M1094.413,209.11c-8.304,0-13.857-5.885-13.857-14.738c0-8.689,5.334-14.628,13.143-14.628    c7.534,0,12.429,5.609,12.429,14.243c0,0.935-0.055,1.925-0.11,2.694h-18.807c0.715,4.345,3.299,6.819,7.259,6.819    c2.584,0,4.674-0.99,6.874-3.3l4.069,4.29C1102.222,207.625,1098.647,209.11,1094.413,209.11z M1087.099,191.897h12.703    c-0.274-4.289-2.529-6.764-6.214-6.764C1089.958,185.134,1087.649,187.553,1087.099,191.897z"
   id="path152" />
		<path
   style="fill:#C50F3C;"
   d="M1137.36,208.45h-6.545v-16.003c0-4.069-1.209-6.819-5.169-6.819c-4.564,0-5.829,3.74-5.829,6.765    v16.058h-6.544v-27.991h6.489v3.355h0.109c1.65-2.475,4.62-4.069,8.249-4.069c6.379,0,9.239,4.674,9.239,11.328V208.45z"
   id="path154" />
		<path
   style="fill:#C50F3C;"
   d="M1166.896,219.834h-3.739v-54.003h3.739V219.834z"
   id="path156" />
		<path
   style="fill:#C50F3C;"
   d="M1190.547,169.735h7.204l6.324,28.046h0.11l6.653-28.046h7.149l6.819,28.046h0.109l6.159-28.046    h7.095l-9.734,38.715h-7.094l-6.929-28.376h-0.11l-6.929,28.376h-7.149L1190.547,169.735z"
   id="path158" />
		<path
   style="fill:#C50F3C;"
   d="M1251.986,171.99c0,2.31-1.87,3.959-4.18,3.959c-2.255,0-4.124-1.649-4.124-3.959    c0-2.255,1.869-3.96,4.124-3.96C1250.116,168.03,1251.986,169.735,1251.986,171.99z M1251.106,208.45h-6.544v-27.991h6.544V208.45    z"
   id="path160" />
		<path
   style="fill:#C50F3C;"
   d="M1261.528,198.441c2.859,2.75,6.379,4.345,9.624,4.345c3.629,0,6.269-2.035,6.269-4.84    c0-7.424-18.972-5.114-18.972-17.652c0-6.654,5.389-11.219,13.143-11.219c4.62,0,8.909,1.595,12.483,4.675l-4.344,5.334    c-2.805-2.475-5.609-3.739-8.47-3.739c-3.409,0-5.884,1.814-5.884,4.345c0,6.983,18.973,4.674,18.973,17.707    c0,6.984-5.39,11.714-13.363,11.714c-5.114,0-10.119-1.925-13.804-5.335L1261.528,198.441z"
   id="path162" />
		<path
   style="fill:#C50F3C;"
   d="M1290.162,194.427c0-8.799,5.444-14.683,13.583-14.683c8.084,0,13.363,5.774,13.363,14.683    c0,8.799-5.225,14.684-13.363,14.684C1295.661,209.11,1290.162,203.281,1290.162,194.427z M1310.619,194.482    c0-5.444-2.694-8.799-6.984-8.799c-4.344,0-6.983,3.355-6.983,8.689c0,5.444,2.694,8.854,7.039,8.854    C1307.979,203.226,1310.619,199.871,1310.619,194.482z"
   id="path164" />
	</g>
</g>
<path
   id="FAU_x5F_Logo_00000094601020548137033010000018087980007051836039_"
   style="fill:#ffffff;fill-opacity:1"
   d="M48.719,66.643l9.744-9.743  v176.949h-9.744V66.643z M77.95,58.462h116.925v-9.743H68.206v116.925h107.622v-9.744H77.95V58.462z M190.499,136.412H97.438V97.437  h79.587l9.744-9.743H97.438v-9.744h97.437v-9.743H87.693v77.949h93.19L190.499,136.412z M68.206,233.85h9.744v-48.72h9.744v40.538  l9.744-9.743V185.13h78.391v-9.743H68.206V233.85z M542.598,48.718v112.054c0,26.074-11.633,48.475-38.78,65.656l-0.219-0.287  c17.837-14.146,29.256-32.316,29.256-55.788V48.719h-9.744V170.19c0,34.979-28.356,61.223-63.335,61.223  c-34.978,0-63.334-26.244-63.334-61.223V56.899l-9.744,9.743v103.71c0,40.359,32.718,70.642,73.078,70.642c0.934,0,9.744,0,9.744,0  c39.743,0,82.822-29.35,82.822-80.08c0-0.048,0-112.196,0-112.196H542.598z M459.776,221.669c29.581,0,53.563-21.907,53.59-51.479h0  V56.899l-9.744,9.743v94.128c0,18.835-15.269,31.668-34.103,31.668c-18.835,0-34.103-12.833-34.103-31.668l-0.001-112.052h-9.744  V160.77c0,24.217,19.631,41.411,43.847,41.411c9.902,0,21.921-4.892,30.085-13.503l0.219,0.287  c-7.655,14.195-21.804,22.96-40.048,22.96c-24.067,0-43.602-17.424-43.841-41.411h-0.005V48.719h-9.744v121.796h0.005  C406.393,199.922,430.305,221.669,459.776,221.669z M243.257,175.387l-24.64,58.463l9.746-0.002l-0.001,0.002h0.001l12.319-29.231  h82.554l12.308,29.231h9.744l-16.411-38.976h-84.089l4.106-9.744h85.624l20.513,48.72h9.744l-24.616-58.463H243.257z   M257.594,48.718l-71.61,169.858l6.203,8.42l75.151-178.278H257.594z M296.569,48.719l75.058,178.277l6.187-8.42L306.313,48.719  H296.569z M237.6,165.643l-28.818,68.206h-9.744l73.171-173.562l40.258,95.612h9.744L277.082,48.719h9.744l49.231,116.925H237.6z   M281.978,106.629l-20.764,49.271h41.509L281.978,106.629z M241.702,155.899h9.768l25.638-60.836l-4.879-11.587L241.702,155.899z" />
</svg>
