<svg width="960" height="254" xmlns="http://www.w3.org/2000/svg" xmlns:xlink="http://www.w3.org/1999/xlink" overflow="hidden"><defs><clipPath id="clip0"><rect x="0" y="0" width="960" height="254"/></clipPath></defs><g clip-path="url(#clip0)"><rect x="0" y="0" width="960" height="254.501" fill="#FFFFFF"/><rect x="0" y="0" width="960" height="253.499" fill="#DEDEDE"/><rect x="48" y="21.0414" width="288" height="44.0868" fill="#C50F3C"/><text fill="#FFFFFF" font-family="Roboto,Roboto_MSFontService,sans-serif" font-weight="700" font-size="15" transform="matrix(1 0 0 1.00197 154.75 49)">Bewerbung</text><rect x="336" y="21.0414" width="288" height="44.0868"/><text fill="#FFFFFF" font-family="Roboto,Roboto_MSFontService,sans-serif" font-weight="700" font-size="15" transform="matrix(1 0 0 1.00197 453 49)">Planung</text><path d="M624 21.0414 884.174 21.0414 884.174 21.0414 912 43.0848 884.174 65.1282 884.174 65.1282 624 65.1282Z" fill="#04316A" fill-rule="evenodd"/><text fill="#FFFFFF" font-family="Roboto,Roboto_MSFontService,sans-serif" font-weight="700" font-size="15" transform="matrix(1 0 0 1.00197 714.041 49)">Bearbeitung</text><text font-family="Segoe UI,Segoe UI_MSFontService,sans-serif" font-weight="400" font-size="16" transform="matrix(1 0 0 1.00197 48 100)">•</text><text font-family="Segoe UI,Segoe UI_MSFontService,sans-serif" font-weight="400" font-size="16" transform="matrix(1 0 0 1.00197 58.8333 100)">Themenbereich</text><text font-family="Segoe UI,Segoe UI_MSFontService,sans-serif" font-weight="400" font-size="16" transform="matrix(1 0 0 1.00197 167.12 100)">(e)</text><text font-family="Segoe UI,Segoe UI_MSFontService,sans-serif" font-weight="400" font-size="16" transform="matrix(1 0 0 1.00197 189.453 100)">suchen</text><text font-family="Segoe UI,Segoe UI_MSFontService,sans-serif" font-weight="400" font-size="16" transform="matrix(1 0 0 1.00197 48 138)">•</text><text font-family="Segoe UI,Segoe UI_MSFontService,sans-serif" font-weight="400" font-size="16" transform="matrix(1 0 0 1.00197 58.8333 138)">Abstract(s)</text><text font-family="Segoe UI,Segoe UI_MSFontService,sans-serif" font-weight="400" font-size="16" transform="matrix(1 0 0 1.00197 138.167 138)">vorbereiten</text><text font-family="Segoe UI,Segoe UI_MSFontService,sans-serif" font-weight="400" font-size="16" transform="matrix(1 0 0 1.00197 48 177)">•</text><text font-family="Segoe UI,Segoe UI_MSFontService,sans-serif" font-weight="400" font-size="16" transform="matrix(1 0 0 1.00197 58.8333 177)">Bewerbung</text><text font-family="Segoe UI,Segoe UI_MSFontService,sans-serif" font-weight="400" font-size="16" transform="matrix(1 0 0 1.00197 142.753 177)">einreichen</text><text font-family="Segoe UI,Segoe UI_MSFontService,sans-serif" font-weight="400" font-size="16" transform="matrix(1 0 0 1.00197 48 215)">•</text><text font-family="Segoe UI,Segoe UI_MSFontService,sans-serif" font-weight="400" font-size="16" transform="matrix(1 0 0 1.00197 58.8333 215)">Rückmeldung</text><text font-family="Segoe UI,Segoe UI_MSFontService,sans-serif" font-weight="400" font-size="16" transform="matrix(1 0 0 1.00197 160 215)">abwarten</text><text font-family="Segoe UI,Segoe UI_MSFontService,sans-serif" font-weight="400" font-size="16" transform="matrix(1 0 0 1.00197 336 100)">•</text><text font-family="Segoe UI,Segoe UI_MSFontService,sans-serif" font-weight="400" font-size="16" transform="matrix(1 0 0 1.00197 346.833 100)">Seminar</text><text font-family="Segoe UI,Segoe UI_MSFontService,sans-serif" font-weight="400" font-size="16" transform="matrix(1 0 0 1.00197 408.333 100)">wiss</text><text font-family="Segoe UI,Segoe UI_MSFontService,sans-serif" font-weight="400" font-size="16" transform="matrix(1 0 0 1.00197 437.333 100)">.</text><text font-family="Segoe UI,Segoe UI_MSFontService,sans-serif" font-weight="400" font-size="16" transform="matrix(1 0 0 1.00197 445.167 100)">Arbeiten</text><text font-family="Segoe UI,Segoe UI_MSFontService,sans-serif" font-weight="400" font-size="16" transform="matrix(1 0 0 1.00197 336 138)">•</text><text font-family="Segoe UI,Segoe UI_MSFontService,sans-serif" font-weight="400" font-size="16" transform="matrix(1 0 0 1.00197 346.833 138)">Ausarbeitung: Thema &amp; Methode</text><text font-family="Segoe UI,Segoe UI_MSFontService,sans-serif" font-weight="400" font-size="16" transform="matrix(1 0 0 1.00197 336 177)">•</text><text font-family="Segoe UI,Segoe UI_MSFontService,sans-serif" font-weight="400" font-size="16" transform="matrix(1 0 0 1.00197 346.833 177)">Abgabe</text><text font-family="Segoe UI,Segoe UI_MSFontService,sans-serif" font-weight="400" font-size="16" transform="matrix(1 0 0 1.00197 406.167 177)">Exposé</text><text font-family="Segoe UI,Segoe UI_MSFontService,sans-serif" font-weight="400" font-size="16" transform="matrix(1 0 0 1.00197 336 215)">•</text><text font-family="Segoe UI,Segoe UI_MSFontService,sans-serif" font-weight="400" font-size="16" transform="matrix(1 0 0 1.00197 346.833 215)">Teilnahme</text><text font-family="Segoe UI,Segoe UI_MSFontService,sans-serif" font-weight="400" font-size="16" transform="matrix(1 0 0 1.00197 422.187 215)">am</text><text font-family="Segoe UI,Segoe UI_MSFontService,sans-serif" font-weight="400" font-size="16" transform="matrix(1 0 0 1.00197 448.52 215)">Kolloquium</text><text font-family="Segoe UI,Segoe UI_MSFontService,sans-serif" font-weight="400" font-size="16" transform="matrix(1 0 0 1.00197 624 100)">•</text><text font-family="Segoe UI,Segoe UI_MSFontService,sans-serif" font-weight="400" font-size="16" transform="matrix(1 0 0 1.00197 634.833 100)">Anmeldung</text><text font-family="Segoe UI,Segoe UI_MSFontService,sans-serif" font-weight="400" font-size="16" transform="matrix(1 0 0 1.00197 721.5 100)">der BA</text><text font-family="Segoe UI,Segoe UI_MSFontService,sans-serif" font-weight="400" font-size="16" transform="matrix(1 0 0 1.00197 624 138)">•</text><text font-family="Segoe UI,Segoe UI_MSFontService,sans-serif" font-weight="400" font-size="16" transform="matrix(1 0 0 1.00197 634.833 138)">Umsetzung</text><text font-family="Segoe UI,Segoe UI_MSFontService,sans-serif" font-weight="400" font-size="16" transform="matrix(1 0 0 1.00197 719.333 138)">der</text><text font-family="Segoe UI,Segoe UI_MSFontService,sans-serif" font-weight="400" font-size="16" transform="matrix(1 0 0 1.00197 747 138)">Methode</text><text font-family="Segoe UI,Segoe UI_MSFontService,sans-serif" font-weight="400" font-size="16" transform="matrix(1 0 0 1.00197 624 177)">•</text><text font-family="Segoe UI,Segoe UI_MSFontService,sans-serif" font-weight="400" font-size="16" transform="matrix(1 0 0 1.00197 634.833 177)">Ausarbeitung</text><text font-family="Segoe UI,Segoe UI_MSFontService,sans-serif" font-weight="400" font-size="16" transform="matrix(1 0 0 1.00197 733.5 177)">der BA</text><text font-family="Segoe UI,Segoe UI_MSFontService,sans-serif" font-weight="400" font-size="16" transform="matrix(1 0 0 1.00197 624 215)">•</text><text font-family="Segoe UI,Segoe UI_MSFontService,sans-serif" font-weight="400" font-size="16" transform="matrix(1 0 0 1.00197 634.833 215)">Abgabe</text><text font-family="Segoe UI,Segoe UI_MSFontService,sans-serif" font-weight="400" font-size="16" transform="matrix(1 0 0 1.00197 694.167 215)">nach</text><text font-family="Segoe UI,Segoe UI_MSFontService,sans-serif" font-weight="400" font-size="16" transform="matrix(1 0 0 1.00197 732 215)">9</text><text font-family="Segoe UI,Segoe UI_MSFontService,sans-serif" font-weight="400" font-size="16" transform="matrix(1 0 0 1.00197 745 215)">Wochen</text></g></svg>