<?xml version="1.0" encoding="UTF-8" standalone="no"?>
<!-- Created with Inkscape (http://www.inkscape.org/) -->

<svg
   width="254.05432"
   height="37.784271"
   viewBox="0 0 67.218543 9.9970886"
   version="1.1"
   id="svg1341"
   inkscape:version="1.1.1 (3bf5ae0d25, 2021-09-20)"
   sodipodi:docname="logo - Copy.svg"
   xmlns:inkscape="http://www.inkscape.org/namespaces/inkscape"
   xmlns:sodipodi="http://sodipodi.sourceforge.net/DTD/sodipodi-0.dtd"
   xmlns="http://www.w3.org/2000/svg"
   xmlns:svg="http://www.w3.org/2000/svg">
  <sodipodi:namedview
     id="namedview1343"
     pagecolor="#ffffff"
     bordercolor="#666666"
     borderopacity="1.0"
     inkscape:pageshadow="2"
     inkscape:pageopacity="0.0"
     inkscape:pagecheckerboard="0"
     inkscape:document-units="mm"
     showgrid="false"
     fit-margin-top="3"
     fit-margin-left="2"
     fit-margin-right="2"
     fit-margin-bottom="1"
     inkscape:zoom="6.4070143"
     inkscape:cx="170.04801"
     inkscape:cy="32.854617"
     inkscape:window-width="1920"
     inkscape:window-height="991"
     inkscape:window-x="-9"
     inkscape:window-y="-9"
     inkscape:window-maximized="1"
     inkscape:current-layer="g975"
     units="cm"
     scale-x="1.9"
     inkscape:showpageshadow="2"
     inkscape:deskcolor="#d1d1d1" />
  <defs
     id="defs1338" />
  <g
     inkscape:label="Layer 1"
     inkscape:groupmode="layer"
     id="layer1"
     transform="translate(-45.566921,-141.69386)">
    <g
       id="g975"
       transform="matrix(0.5035079,0,0,0.5035079,22.958323,72.230024)">
      <g
         id="g1765"
         transform="matrix(0.18402151,0,0,0.18402151,83.293246,95.786243)">
        <g
           id="g168"
           transform="matrix(0.52548,0,0,0.52548,-228.51255,207.5784)">
          <g
             id="g166">
            <path
               style="fill:#ffffff;fill-opacity:1"
               d="m 625.367,55.06 h -17.433 v 9.624 h 13.033 v 6.269 H 607.934 V 87.45 H 601.06 V 48.735 h 24.307 z"
               id="path2" />
            <path
               style="fill:#ffffff;fill-opacity:1"
               d="m 646.042,59.349 -1.045,6.709 c -0.989,-0.55 -2.199,-0.88 -3.629,-0.88 -4.51,0 -5.72,3.63 -5.72,7.919 V 87.45 h -6.544 V 59.459 h 6.435 v 3.52 h 0.109 c 1.485,-2.64 4.125,-4.234 7.314,-4.234 0.935,-10e-4 2.09,0.164 3.08,0.604 z"
               id="path4" />
            <path
               style="fill:#ffffff;fill-opacity:1"
               d="m 658.996,50.99 c 0,2.31 -1.87,3.959 -4.18,3.959 -2.255,0 -4.125,-1.649 -4.125,-3.959 0,-2.255 1.87,-3.96 4.125,-3.96 2.309,0 4.18,1.705 4.18,3.96 z m -0.88,36.46 h -6.545 V 59.459 h 6.545 z"
               id="path6" />
            <path
               style="fill:#ffffff;fill-opacity:1"
               d="m 678.866,88.11 c -8.304,0 -13.858,-5.885 -13.858,-14.738 0,-8.688 5.335,-14.628 13.144,-14.628 7.534,0 12.429,5.609 12.429,14.243 0,0.935 -0.056,1.925 -0.11,2.694 h -18.808 c 0.715,4.345 3.3,6.819 7.259,6.819 2.585,0 4.675,-0.99 6.875,-3.3 l 4.069,4.29 c -3.191,3.135 -6.766,4.62 -11,4.62 z m -7.314,-17.213 h 12.703 c -0.275,-4.289 -2.53,-6.764 -6.215,-6.764 -3.628,0.001 -5.938,2.42 -6.488,6.764 z"
               id="path8" />
            <path
               style="fill:#ffffff;fill-opacity:1"
               d="m 696.27,73.372 c 0,-9.019 4.564,-14.628 11.383,-14.628 3.52,0 6.27,1.484 8.14,3.794 h 0.109 V 48.186 l 6.544,-1.649 V 87.45 h -6.379 v -3.3 h -0.11 c -2.034,2.475 -4.949,3.96 -8.413,3.96 -6.655,0 -11.274,-5.664 -11.274,-14.738 z m 6.488,0 c 0,5.719 2.365,8.964 6.489,8.964 2.53,0 4.62,-1.21 6.654,-3.685 V 68.423 c -1.869,-2.529 -4.015,-3.739 -6.654,-3.739 -4.234,0 -6.489,3.079 -6.489,8.688 z"
               id="path10" />
            <path
               style="fill:#ffffff;fill-opacity:1"
               d="m 747.907,59.349 -1.045,6.709 c -0.99,-0.55 -2.2,-0.88 -3.63,-0.88 -4.509,0 -5.719,3.63 -5.719,7.919 V 87.45 h -6.544 V 59.459 h 6.434 v 3.52 h 0.11 c 1.484,-2.64 4.124,-4.234 7.314,-4.234 0.935,-10e-4 2.09,0.164 3.08,0.604 z"
               id="path12" />
            <path
               style="fill:#ffffff;fill-opacity:1"
               d="m 760.86,50.99 c 0,2.31 -1.87,3.959 -4.18,3.959 -2.255,0 -4.125,-1.649 -4.125,-3.959 0,-2.255 1.87,-3.96 4.125,-3.96 2.31,0 4.18,1.705 4.18,3.96 z m -0.88,36.46 h -6.545 V 59.459 h 6.545 z"
               id="path14" />
            <path
               style="fill:#ffffff;fill-opacity:1"
               d="m 790.425,83.601 c -2.805,3.08 -5.994,4.51 -10.009,4.51 -8.028,0 -13.418,-5.774 -13.418,-14.573 0,-8.799 5.444,-14.793 13.528,-14.793 4.18,0 7.643,1.649 10.063,4.784 l -4.51,4.289 c -1.649,-2.145 -3.409,-3.079 -5.609,-3.079 -4.124,0 -6.929,3.409 -6.929,8.688 0,5.225 2.805,8.744 6.874,8.744 2.2,0 3.96,-0.99 5.774,-3.08 z"
               id="path16" />
            <path
               style="fill:#ffffff;fill-opacity:1"
               d="m 820.29,87.45 h -6.544 V 71.447 c 0,-4.124 -1.266,-6.819 -5.17,-6.819 -4.509,0 -5.829,3.575 -5.829,6.765 V 87.45 h -6.544 V 48.186 l 6.544,-1.649 v 16.277 h 0.11 c 1.595,-2.475 4.509,-4.069 8.193,-4.069 6.489,0 9.239,4.839 9.239,11.328 V 87.45 Z"
               id="path18" />
            <path
               style="fill:#ffffff;fill-opacity:1"
               d="M 841.548,73.372 H 827.8 v -6.214 h 13.748 z"
               id="path20" />
            <path
               style="fill:#ffffff;fill-opacity:1"
               d="m 859.324,48.735 h 7.259 l 14.408,38.715 h -7.534 l -2.805,-8.249 h -15.617 l -2.805,8.249 h -7.315 z m -2.145,24.307 h 11.328 L 862.898,56.6 h -0.11 z"
               id="path22" />
            <path
               style="fill:#ffffff;fill-opacity:1"
               d="m 893.276,87.45 h -6.544 V 48.075 l 6.544,-1.484 z"
               id="path24" />
            <path
               style="fill:#ffffff;fill-opacity:1"
               d="m 914.229,88.11 c -8.304,0 -13.857,-5.885 -13.857,-14.738 0,-8.688 5.334,-14.628 13.143,-14.628 7.534,0 12.429,5.609 12.429,14.243 0,0.935 -0.055,1.925 -0.11,2.694 h -18.807 c 0.715,4.345 3.299,6.819 7.259,6.819 2.584,0 4.674,-0.99 6.874,-3.3 l 4.069,4.29 c -3.19,3.135 -6.766,4.62 -11,4.62 z m -7.314,-17.213 h 12.703 c -0.275,-4.289 -2.529,-6.764 -6.214,-6.764 -3.629,0.001 -5.939,2.42 -6.489,6.764 z"
               id="path26" />
            <path
               style="fill:#ffffff;fill-opacity:1"
               d="m 956.198,87.45 h -7.48 l -5.994,-9.679 h -0.109 l -5.83,9.679 h -7.368 l 9.568,-14.518 -8.853,-13.474 h 7.369 l 5.279,8.579 h 0.109 l 5.225,-8.579 h 7.259 l -8.799,13.363 z"
               id="path28" />
            <path
               style="fill:#ffffff;fill-opacity:1"
               d="m 971.665,70.072 c 1.814,0 3.465,0.11 5.279,0.605 v -0.99 c 0,-3.574 -2.09,-5.444 -6.159,-5.444 -2.255,0 -4.784,0.55 -7.094,1.595 l -1.43,-5.499 c 2.584,-0.99 5.994,-1.595 9.184,-1.595 7.864,0 11.934,3.685 11.934,10.833 V 87.45 h -6.215 v -2.97 h -0.109 c -2.42,2.475 -4.949,3.63 -8.194,3.63 -5.609,0 -9.238,-3.465 -9.238,-8.909 -0.001,-5.939 4.233,-9.129 12.042,-9.129 z m -1.1,13.144 c 2.364,0 4.564,-1.155 6.379,-3.354 v -4.895 c -1.54,-0.385 -3.135,-0.55 -4.565,-0.55 -4.124,0 -6.489,1.649 -6.489,4.619 0,2.585 1.816,4.18 4.675,4.18 z"
               id="path30" />
            <path
               style="fill:#ffffff;fill-opacity:1"
               d="m 1015.762,87.45 h -6.545 V 71.447 c 0,-4.069 -1.209,-6.819 -5.169,-6.819 -4.565,0 -5.829,3.74 -5.829,6.765 V 87.45 h -6.544 V 59.459 h 6.489 v 3.354 h 0.109 c 1.65,-2.475 4.62,-4.069 8.249,-4.069 6.379,0 9.239,4.674 9.239,11.328 V 87.45 Z"
               id="path32" />
            <path
               style="fill:#ffffff;fill-opacity:1"
               d="m 1022.684,73.372 c 0,-9.019 4.564,-14.628 11.384,-14.628 3.52,0 6.27,1.484 8.139,3.794 h 0.11 V 48.186 l 6.544,-1.649 V 87.45 h -6.379 v -3.3 h -0.11 c -2.034,2.475 -4.949,3.96 -8.414,3.96 -6.654,0 -11.274,-5.664 -11.274,-14.738 z m 6.489,0 c 0,5.719 2.365,8.964 6.489,8.964 2.529,0 4.619,-1.21 6.654,-3.685 V 68.423 c -1.87,-2.529 -4.015,-3.739 -6.654,-3.739 -4.234,0 -6.489,3.079 -6.489,8.688 z"
               id="path34" />
            <path
               style="fill:#ffffff;fill-opacity:1"
               d="m 1069.822,88.11 c -8.304,0 -13.857,-5.885 -13.857,-14.738 0,-8.688 5.334,-14.628 13.143,-14.628 7.534,0 12.429,5.609 12.429,14.243 0,0.935 -0.055,1.925 -0.11,2.694 h -18.808 c 0.716,4.345 3.3,6.819 7.26,6.819 2.584,0 4.674,-0.99 6.874,-3.3 l 4.069,4.29 c -3.191,3.135 -6.765,4.62 -11,4.62 z m -7.314,-17.213 h 12.703 c -0.275,-4.289 -2.529,-6.764 -6.214,-6.764 -3.629,0.001 -5.939,2.42 -6.489,6.764 z"
               id="path36" />
            <path
               style="fill:#ffffff;fill-opacity:1"
               d="m 1105.621,59.349 -1.045,6.709 c -0.989,-0.55 -2.199,-0.88 -3.63,-0.88 -4.509,0 -5.719,3.63 -5.719,7.919 V 87.45 h -6.544 V 59.459 h 6.434 v 3.52 h 0.11 c 1.484,-2.64 4.124,-4.234 7.314,-4.234 0.935,-10e-4 2.089,0.164 3.08,0.604 z"
               id="path38" />
            <path
               style="fill:#ffffff;fill-opacity:1"
               d="m 1123.44,73.372 h -13.748 v -6.214 h 13.748 z"
               id="path40" />
            <path
               style="fill:#ffffff;fill-opacity:1"
               d="m 1162.036,72.107 c 0,9.349 -4.784,16.003 -15.178,16.003 -10.339,0 -15.068,-6.6 -15.068,-16.003 V 48.735 h 7.039 v 22.987 c 0,5.829 2.53,9.788 8.249,9.788 5.72,0 7.975,-3.904 7.975,-9.788 V 48.735 h 6.983 z"
               id="path42" />
            <path
               style="fill:#ffffff;fill-opacity:1"
               d="m 1194.812,87.45 h -6.544 V 71.447 c 0,-4.069 -1.21,-6.819 -5.17,-6.819 -4.564,0 -5.829,3.74 -5.829,6.765 V 87.45 h -6.544 V 59.459 h 6.489 v 3.354 h 0.109 c 1.65,-2.475 4.62,-4.069 8.249,-4.069 6.379,0 9.239,4.674 9.239,11.328 V 87.45 Z"
               id="path44" />
            <path
               style="fill:#ffffff;fill-opacity:1"
               d="m 1210.489,50.99 c 0,2.31 -1.87,3.959 -4.18,3.959 -2.255,0 -4.124,-1.649 -4.124,-3.959 0,-2.255 1.869,-3.96 4.124,-3.96 2.31,0 4.18,1.705 4.18,3.96 z m -0.88,36.46 h -6.544 V 59.459 h 6.544 z"
               id="path46" />
            <path
               style="fill:#ffffff;fill-opacity:1"
               d="m 1242.326,59.459 -10.174,27.991 h -6.819 L 1215.16,59.459 h 7.204 l 6.434,20.348 h 0.11 l 6.434,-20.348 z"
               id="path48" />
            <path
               style="fill:#ffffff;fill-opacity:1"
               d="m 1259.229,88.11 c -8.304,0 -13.857,-5.885 -13.857,-14.738 0,-8.688 5.334,-14.628 13.143,-14.628 7.534,0 12.429,5.609 12.429,14.243 0,0.935 -0.055,1.925 -0.11,2.694 h -18.807 c 0.715,4.345 3.299,6.819 7.259,6.819 2.584,0 4.674,-0.99 6.874,-3.3 l 4.069,4.29 c -3.19,3.135 -6.766,4.62 -11,4.62 z m -7.313,-17.213 h 12.703 c -0.274,-4.289 -2.529,-6.764 -6.214,-6.764 -3.63,0.001 -5.94,2.42 -6.489,6.764 z"
               id="path50" />
            <path
               style="fill:#ffffff;fill-opacity:1"
               d="m 1295.028,59.349 -1.045,6.709 c -0.99,-0.55 -2.199,-0.88 -3.629,-0.88 -4.51,0 -5.72,3.63 -5.72,7.919 V 87.45 h -6.544 V 59.459 h 6.434 v 3.52 h 0.11 c 1.484,-2.64 4.124,-4.234 7.314,-4.234 0.935,-10e-4 2.09,0.164 3.08,0.604 z"
               id="path52" />
            <path
               style="fill:#ffffff;fill-opacity:1"
               d="m 1301.216,79.531 c 2.75,2.09 5.444,3.135 7.919,3.135 2.42,0 4.124,-1.1 4.124,-2.805 0,-4.784 -14.022,-3.08 -14.022,-12.429 0,-5.169 4.289,-8.689 10.559,-8.689 3.354,0 6.709,0.989 9.679,2.914 l -3.08,5.114 c -2.419,-1.649 -4.564,-2.475 -6.709,-2.475 -2.42,0 -4.015,1.045 -4.015,2.585 0,4.564 13.969,2.97 13.969,12.373 0,5.279 -4.345,8.854 -10.779,8.854 -3.739,0 -7.533,-1.155 -10.778,-3.41 z"
               id="path54" />
            <path
               style="fill:#ffffff;fill-opacity:1"
               d="m 1334.061,50.99 c 0,2.31 -1.87,3.959 -4.18,3.959 -2.255,0 -4.124,-1.649 -4.124,-3.959 0,-2.255 1.869,-3.96 4.124,-3.96 2.31,0 4.18,1.705 4.18,3.96 z m -0.88,36.46 h -6.544 V 59.459 h 6.544 z"
               id="path56" />
            <path
               style="fill:#ffffff;fill-opacity:1"
               d="m 1356.166,81.456 v 5.609 c -1.43,0.66 -3.575,1.045 -5.5,1.045 -4.949,0 -7.644,-2.75 -7.644,-7.864 V 64.903 h -4.289 v -5.444 h 4.234 v -7.644 l 6.544,-1.431 v 9.074 h 6.654 v 5.444 h -6.654 v 13.803 c 0,2.585 0.88,3.685 3.024,3.685 1.211,0.001 2.53,-0.384 3.631,-0.934 z"
               id="path58" />
            <path
               style="fill:#ffffff;fill-opacity:1"
               d="m 1373.319,70.072 c 1.814,0 3.465,0.11 5.279,0.605 v -0.99 c 0,-3.574 -2.09,-5.444 -6.159,-5.444 -2.255,0 -4.784,0.55 -7.094,1.595 l -1.43,-5.499 c 2.584,-0.99 5.994,-1.595 9.184,-1.595 7.864,0 11.934,3.685 11.934,10.833 V 87.45 h -6.215 v -2.97 h -0.109 c -2.42,2.475 -4.949,3.63 -8.194,3.63 -5.609,0 -9.238,-3.465 -9.238,-8.909 -10e-4,-5.939 4.233,-9.129 12.042,-9.129 z m -5.334,-14.958 c -2.09,0 -3.904,-1.76 -3.904,-3.794 0,-2.035 1.814,-3.85 3.904,-3.85 2.09,0 3.904,1.814 3.904,3.85 0,2.034 -1.814,3.794 -3.904,3.794 z m 4.234,28.102 c 2.364,0 4.564,-1.155 6.379,-3.354 v -4.895 c -1.54,-0.385 -3.135,-0.55 -4.564,-0.55 -4.124,0 -6.489,1.649 -6.489,4.619 -10e-4,2.585 1.815,4.18 4.674,4.18 z m 7.204,-28.102 c -2.09,0 -3.904,-1.76 -3.904,-3.794 0,-2.035 1.814,-3.85 3.904,-3.85 2.09,0 3.904,1.814 3.904,3.85 10e-4,2.034 -1.814,3.794 -3.904,3.794 z"
               id="path60" />
            <path
               style="fill:#ffffff;fill-opacity:1"
               d="m 1407.551,81.456 v 5.609 c -1.43,0.66 -3.575,1.045 -5.5,1.045 -4.949,0 -7.644,-2.75 -7.644,-7.864 V 64.903 h -4.289 v -5.444 h 4.234 v -7.644 l 6.544,-1.431 v 9.074 h 6.654 v 5.444 h -6.654 v 13.803 c 0,2.585 0.88,3.685 3.024,3.685 1.211,0.001 2.531,-0.384 3.631,-0.934 z"
               id="path62" />
            <path
               style="fill:#ffffff;fill-opacity:1"
               d="m 625.367,115.56 h -17.433 v 9.624 h 13.033 v 6.269 h -13.033 v 16.498 h -6.874 v -38.715 h 24.307 z"
               id="path64" />
            <path
               style="fill:#ffffff;fill-opacity:1"
               d="m 638.645,130.572 c 1.815,0 3.465,0.11 5.279,0.605 v -0.99 c 0,-3.574 -2.089,-5.444 -6.159,-5.444 -2.254,0 -4.784,0.55 -7.094,1.595 l -1.43,-5.499 c 2.585,-0.99 5.994,-1.595 9.184,-1.595 7.864,0 11.934,3.685 11.934,10.833 v 17.873 h -6.214 v -2.97 h -0.11 c -2.42,2.475 -4.949,3.63 -8.194,3.63 -5.608,0 -9.238,-3.465 -9.238,-8.909 -10e-4,-5.939 4.233,-9.129 12.042,-9.129 z m -1.1,13.144 c 2.365,0 4.565,-1.155 6.379,-3.355 v -4.895 c -1.539,-0.385 -3.134,-0.55 -4.564,-0.55 -4.124,0 -6.488,1.649 -6.488,4.619 0,2.586 1.814,4.181 4.673,4.181 z"
               id="path66" />
            <path
               style="fill:#ffffff;fill-opacity:1"
               d="m 680.614,144.101 c -2.805,3.08 -5.994,4.51 -10.009,4.51 -8.028,0 -13.418,-5.774 -13.418,-14.573 0,-8.799 5.444,-14.793 13.528,-14.793 4.18,0 7.644,1.649 10.064,4.784 l -4.51,4.289 c -1.649,-2.145 -3.409,-3.079 -5.609,-3.079 -4.124,0 -6.929,3.409 -6.929,8.688 0,5.225 2.805,8.744 6.874,8.744 2.2,0 3.96,-0.99 5.774,-3.08 z"
               id="path68" />
            <path
               style="fill:#ffffff;fill-opacity:1"
               d="m 710.478,147.95 h -6.544 v -16.003 c 0,-4.124 -1.266,-6.819 -5.17,-6.819 -4.509,0 -5.829,3.575 -5.829,6.765 v 16.058 h -6.544 v -39.265 l 6.544,-1.649 v 16.277 h 0.11 c 1.595,-2.475 4.509,-4.069 8.193,-4.069 6.489,0 9.239,4.839 9.239,11.328 v 17.377 z"
               id="path70" />
            <path
               style="fill:#ffffff;fill-opacity:1"
               d="m 744.946,133.762 c 0,9.02 -4.564,14.849 -11.438,14.849 -3.52,0 -6.435,-1.485 -8.304,-3.904 h -0.11 v 3.244 h -6.27 v -39.265 l 6.545,-1.649 v 16.167 h 0.109 c 1.87,-2.475 4.73,-3.959 8.194,-3.959 6.709,-0.001 11.274,5.443 11.274,14.517 z m -6.435,0.165 c 0,-5.773 -2.364,-8.799 -6.544,-8.799 -2.529,0 -4.565,1.101 -6.599,3.63 v 10.229 c 1.869,2.475 3.959,3.795 6.653,3.795 4.235,-0.001 6.49,-3.246 6.49,-8.855 z"
               id="path72" />
            <path
               style="fill:#ffffff;fill-opacity:1"
               d="m 764.549,148.61 c -8.304,0 -13.858,-5.885 -13.858,-14.738 0,-8.688 5.335,-14.628 13.144,-14.628 7.534,0 12.429,5.609 12.429,14.243 0,0.935 -0.056,1.925 -0.11,2.694 h -18.808 c 0.715,4.345 3.3,6.819 7.259,6.819 2.585,0 4.675,-0.99 6.875,-3.3 l 4.069,4.29 c -3.19,3.135 -6.765,4.62 -11,4.62 z m -7.313,-17.213 h 12.703 c -0.275,-4.289 -2.53,-6.764 -6.215,-6.764 -3.629,0.001 -5.938,2.42 -6.488,6.764 z"
               id="path74" />
            <path
               style="fill:#ffffff;fill-opacity:1"
               d="m 800.348,119.849 -1.045,6.709 c -0.99,-0.55 -2.2,-0.88 -3.63,-0.88 -4.509,0 -5.719,3.63 -5.719,7.919 v 14.354 H 783.41 V 119.96 h 6.433 v 3.52 h 0.11 c 1.484,-2.64 4.124,-4.234 7.313,-4.234 0.938,-0.002 2.092,0.163 3.082,0.603 z"
               id="path76" />
            <path
               style="fill:#ffffff;fill-opacity:1"
               d="m 817.816,148.61 c -8.304,0 -13.858,-5.885 -13.858,-14.738 0,-8.688 5.335,-14.628 13.144,-14.628 7.534,0 12.429,5.609 12.429,14.243 0,0.935 -0.056,1.925 -0.11,2.694 h -18.808 c 0.715,4.345 3.3,6.819 7.259,6.819 2.585,0 4.675,-0.99 6.875,-3.3 l 4.069,4.29 c -3.191,3.135 -6.766,4.62 -11,4.62 z m -7.313,-17.213 h 12.703 c -0.275,-4.289 -2.53,-6.764 -6.215,-6.764 -3.629,0.001 -5.939,2.42 -6.488,6.764 z"
               id="path78" />
            <path
               style="fill:#ffffff;fill-opacity:1"
               d="m 844.008,111.49 c 0,2.31 -1.87,3.959 -4.18,3.959 -2.255,0 -4.125,-1.649 -4.125,-3.959 0,-2.255 1.87,-3.96 4.125,-3.96 2.31,0 4.18,1.705 4.18,3.96 z m -0.88,36.46 h -6.545 v -27.991 h 6.545 z"
               id="path80" />
            <path
               style="fill:#ffffff;fill-opacity:1"
               d="m 873.574,144.101 c -2.805,3.08 -5.994,4.51 -10.009,4.51 -8.029,0 -13.418,-5.774 -13.418,-14.573 0,-8.799 5.444,-14.793 13.528,-14.793 4.179,0 7.644,1.649 10.063,4.784 l -4.51,4.289 c -1.649,-2.145 -3.409,-3.079 -5.609,-3.079 -4.124,0 -6.929,3.409 -6.929,8.688 0,5.225 2.805,8.744 6.874,8.744 2.199,0 3.959,-0.99 5.774,-3.08 z"
               id="path82" />
            <path
               style="fill:#ffffff;fill-opacity:1"
               d="m 903.437,147.95 h -6.544 v -16.003 c 0,-4.124 -1.265,-6.819 -5.17,-6.819 -4.509,0 -5.829,3.575 -5.829,6.765 v 16.058 h -6.544 v -39.265 l 6.544,-1.649 v 16.277 h 0.11 c 1.595,-2.475 4.51,-4.069 8.193,-4.069 6.489,0 9.239,4.839 9.239,11.328 v 17.377 z"
               id="path84" />
            <path
               style="fill:#ffffff;fill-opacity:1"
               d="m 925.549,109.235 h 7.204 l 6.324,28.046 h 0.11 l 6.653,-28.046 h 7.149 l 6.819,28.046 h 0.109 l 6.159,-28.046 h 7.095 l -9.734,38.715 h -7.094 l -6.929,-28.376 h -0.11 l -6.929,28.376 h -7.15 z"
               id="path86" />
            <path
               style="fill:#ffffff;fill-opacity:1"
               d="m 986.988,111.49 c 0,2.31 -1.87,3.959 -4.18,3.959 -2.255,0 -4.124,-1.649 -4.124,-3.959 0,-2.255 1.869,-3.96 4.124,-3.96 2.31,0 4.18,1.705 4.18,3.96 z m -0.88,36.46 h -6.544 v -27.991 h 6.544 z"
               id="path88" />
            <path
               style="fill:#ffffff;fill-opacity:1"
               d="m 1011.604,119.849 -1.045,6.709 c -0.99,-0.55 -2.199,-0.88 -3.629,-0.88 -4.51,0 -5.72,3.63 -5.72,7.919 v 14.354 h -6.544 V 119.96 h 6.434 v 3.52 h 0.11 c 1.484,-2.64 4.124,-4.234 7.314,-4.234 0.935,-0.002 2.09,0.163 3.08,0.603 z"
               id="path90" />
            <path
               style="fill:#ffffff;fill-opacity:1"
               d="m 1033.086,141.956 v 5.609 c -1.43,0.66 -3.575,1.045 -5.5,1.045 -4.949,0 -7.644,-2.75 -7.644,-7.864 v -15.343 h -4.289 v -5.444 h 4.234 v -7.644 l 6.544,-1.431 v 9.074 h 6.654 v 5.444 h -6.654 v 13.803 c 0,2.585 0.88,3.685 3.024,3.685 1.212,0.001 2.531,-0.384 3.631,-0.934 z"
               id="path92" />
            <path
               style="fill:#ffffff;fill-opacity:1"
               d="m 1040.859,140.031 c 2.75,2.09 5.444,3.135 7.919,3.135 2.42,0 4.124,-1.1 4.124,-2.805 0,-4.784 -14.022,-3.08 -14.022,-12.429 0,-5.169 4.289,-8.688 10.559,-8.688 3.354,0 6.709,0.989 9.679,2.914 l -3.08,5.114 c -2.419,-1.649 -4.564,-2.475 -6.709,-2.475 -2.42,0 -4.015,1.045 -4.015,2.585 0,4.564 13.969,2.97 13.969,12.373 0,5.279 -4.345,8.855 -10.779,8.855 -3.739,0 -7.533,-1.155 -10.778,-3.41 z"
               id="path94" />
            <path
               style="fill:#ffffff;fill-opacity:1"
               d="m 1088.062,144.101 c -2.805,3.08 -5.994,4.51 -10.009,4.51 -8.029,0 -13.418,-5.774 -13.418,-14.573 0,-8.799 5.444,-14.793 13.528,-14.793 4.179,0 7.644,1.649 10.063,4.784 l -4.51,4.289 c -1.649,-2.145 -3.409,-3.079 -5.609,-3.079 -4.124,0 -6.929,3.409 -6.929,8.688 0,5.225 2.805,8.744 6.874,8.744 2.199,0 3.959,-0.99 5.774,-3.08 z"
               id="path96" />
            <path
               style="fill:#ffffff;fill-opacity:1"
               d="m 1117.926,147.95 h -6.544 v -16.003 c 0,-4.124 -1.265,-6.819 -5.17,-6.819 -4.509,0 -5.829,3.575 -5.829,6.765 v 16.058 h -6.544 v -39.265 l 6.544,-1.649 v 16.277 h 0.11 c 1.595,-2.475 4.51,-4.069 8.194,-4.069 6.488,0 9.238,4.839 9.238,11.328 v 17.377 z"
               id="path98" />
            <path
               style="fill:#ffffff;fill-opacity:1"
               d="m 1136.418,130.572 c 1.814,0 3.465,0.11 5.279,0.605 v -0.99 c 0,-3.574 -2.09,-5.444 -6.159,-5.444 -2.255,0 -4.784,0.55 -7.094,1.595 l -1.43,-5.499 c 2.584,-0.99 5.994,-1.595 9.184,-1.595 7.864,0 11.934,3.685 11.934,10.833 v 17.873 h -6.215 v -2.97 h -0.109 c -2.42,2.475 -4.949,3.63 -8.194,3.63 -5.609,0 -9.238,-3.465 -9.238,-8.909 -10e-4,-5.939 4.234,-9.129 12.042,-9.129 z m -1.099,13.144 c 2.364,0 4.564,-1.155 6.379,-3.355 v -4.895 c -1.54,-0.385 -3.135,-0.55 -4.564,-0.55 -4.124,0 -6.489,1.649 -6.489,4.619 -10e-4,2.586 1.814,4.181 4.674,4.181 z"
               id="path100" />
            <path
               style="fill:#ffffff;fill-opacity:1"
               d="m 1170.529,112.81 c -0.88,-0.385 -1.925,-0.55 -2.859,-0.55 -2.475,0 -3.465,1.265 -3.465,3.904 v 3.795 h 5.555 v 5.444 h -5.5 v 22.547 h -6.544 v -22.547 h -4.344 v -5.444 h 4.344 v -4.015 c 0,-5.829 2.64,-9.294 8.909,-9.294 1.43,0 2.805,0.165 3.904,0.605 z"
               id="path102" />
            <path
               style="fill:#ffffff;fill-opacity:1"
               d="m 1191.446,141.956 v 5.609 c -1.43,0.66 -3.575,1.045 -5.5,1.045 -4.949,0 -7.644,-2.75 -7.644,-7.864 v -15.343 h -4.289 v -5.444 h 4.234 v -7.644 l 6.544,-1.431 v 9.074 h 6.654 v 5.444 h -6.654 v 13.803 c 0,2.585 0.88,3.685 3.024,3.685 1.211,0.001 2.53,-0.384 3.631,-0.934 z"
               id="path104" />
            <path
               style="fill:#ffffff;fill-opacity:1"
               d="m 1199.217,140.031 c 2.75,2.09 5.444,3.135 7.919,3.135 2.42,0 4.124,-1.1 4.124,-2.805 0,-4.784 -14.022,-3.08 -14.022,-12.429 0,-5.169 4.289,-8.688 10.559,-8.688 3.354,0 6.709,0.989 9.679,2.914 l -3.08,5.114 c -2.42,-1.649 -4.564,-2.475 -6.709,-2.475 -2.42,0 -4.015,1.045 -4.015,2.585 0,4.564 13.969,2.97 13.969,12.373 0,5.279 -4.345,8.855 -10.779,8.855 -3.739,0 -7.533,-1.155 -10.778,-3.41 z"
               id="path106" />
            <path
               style="fill:#ffffff;fill-opacity:1"
               d="m 1236.528,133.872 h -13.748 v -6.214 h 13.748 z"
               id="path108" />
            <path
               style="fill:#ffffff;fill-opacity:1"
               d="m 1266.283,136.787 c 0,3.849 1.925,5.884 5.554,5.884 3.575,0 5.444,-1.979 5.444,-5.939 V 119.96 h 6.544 v 16.993 c 0,7.368 -4.124,11.658 -11.823,11.658 -7.644,0 -12.263,-4.29 -12.263,-11.604 v -17.048 h 6.544 z"
               id="path110" />
            <path
               style="fill:#ffffff;fill-opacity:1"
               d="m 1316.209,147.95 h -6.545 v -16.003 c 0,-4.069 -1.209,-6.819 -5.169,-6.819 -4.564,0 -5.829,3.74 -5.829,6.765 v 16.058 h -6.544 V 119.96 h 6.489 v 3.354 h 0.109 c 1.65,-2.475 4.62,-4.069 8.249,-4.069 6.379,0 9.239,4.674 9.239,11.328 v 17.377 z"
               id="path112" />
            <path
               style="fill:#ffffff;fill-opacity:1"
               d="m 1323.13,133.872 c 0,-9.019 4.564,-14.628 11.384,-14.628 3.52,0 6.27,1.484 8.139,3.794 h 0.11 v -14.353 l 6.544,-1.649 v 40.914 h -6.379 v -3.3 h -0.11 c -2.034,2.475 -4.949,3.96 -8.414,3.96 -6.654,0 -11.274,-5.664 -11.274,-14.738 z m 6.49,0 c 0,5.719 2.365,8.964 6.489,8.964 2.53,0 4.619,-1.21 6.654,-3.685 v -10.229 c -1.87,-2.529 -4.015,-3.739 -6.654,-3.739 -4.234,10e-4 -6.489,3.08 -6.489,8.689 z"
               id="path114" />
            <path
               style="fill:#ffffff;fill-opacity:1"
               d="m 602.6,198.441 c 2.859,2.75 6.379,4.345 9.623,4.345 3.63,0 6.269,-2.035 6.269,-4.84 0,-7.424 -18.973,-5.114 -18.973,-17.652 0,-6.654 5.39,-11.219 13.144,-11.219 4.619,0 8.909,1.595 12.483,4.675 l -4.345,5.334 c -2.805,-2.475 -5.609,-3.739 -8.469,-3.739 -3.409,0 -5.884,1.814 -5.884,4.345 0,6.983 18.972,4.674 18.972,17.707 0,6.984 -5.389,11.714 -13.362,11.714 -5.115,0 -10.119,-1.925 -13.804,-5.335 z"
               id="path116" />
            <path
               style="fill:#ffffff;fill-opacity:1"
               d="m 631.233,194.427 c 0,-8.799 5.444,-14.683 13.584,-14.683 8.084,0 13.363,5.774 13.363,14.683 0,8.799 -5.225,14.684 -13.363,14.684 -8.084,-10e-4 -13.584,-5.83 -13.584,-14.684 z m 20.458,0.055 c 0,-5.444 -2.695,-8.799 -6.984,-8.799 -4.345,0 -6.984,3.355 -6.984,8.689 0,5.444 2.695,8.854 7.039,8.854 4.289,0 6.929,-3.355 6.929,-8.744 z"
               id="path118" />
            <path
               style="fill:#ffffff;fill-opacity:1"
               d="m 684.921,208.45 h -22.106 v -5.609 l 13.968,-16.773 H 663.64 v -5.609 h 21.062 v 5.609 l -14.023,16.773 h 14.243 v 5.609 z"
               id="path120" />
            <path
               style="fill:#ffffff;fill-opacity:1"
               d="m 699.118,171.99 c 0,2.31 -1.869,3.959 -4.18,3.959 -2.254,0 -4.124,-1.649 -4.124,-3.959 0,-2.255 1.87,-3.96 4.124,-3.96 2.31,0 4.18,1.705 4.18,3.96 z m -0.88,36.46 h -6.544 v -27.991 h 6.544 z"
               id="path122" />
            <path
               style="fill:#ffffff;fill-opacity:1"
               d="m 716.964,191.072 c 1.815,0 3.465,0.11 5.279,0.605 v -0.99 c 0,-3.574 -2.089,-5.444 -6.159,-5.444 -2.254,0 -4.784,0.55 -7.094,1.595 l -1.43,-5.499 c 2.585,-0.99 5.994,-1.595 9.184,-1.595 7.864,0 11.934,3.685 11.934,10.833 v 17.873 h -6.214 v -2.97 h -0.11 c -2.42,2.475 -4.949,3.63 -8.194,3.63 -5.608,0 -9.238,-3.465 -9.238,-8.909 -10e-4,-5.939 4.234,-9.129 12.042,-9.129 z m -1.099,13.144 c 2.365,0 4.564,-1.155 6.379,-3.355 v -4.895 c -1.539,-0.385 -3.134,-0.55 -4.565,-0.55 -4.124,0 -6.488,1.649 -6.488,4.619 0,2.586 1.814,4.181 4.674,4.181 z"
               id="path124" />
            <path
               style="fill:#ffffff;fill-opacity:1"
               d="m 743.596,208.45 h -6.544 v -39.375 l 6.544,-1.484 z"
               id="path126" />
            <path
               style="fill:#ffffff;fill-opacity:1"
               d="m 788.73,180.459 -8.304,27.991 h -6.27 l -5.114,-19.357 h -0.109 l -5.06,19.357 h -6.269 L 749.3,180.459 h 6.874 l 4.84,18.862 h 0.109 l 4.95,-18.862 h 5.994 l 5.114,18.862 h 0.109 l 4.675,-18.862 z"
               id="path128" />
            <path
               style="fill:#ffffff;fill-opacity:1"
               d="m 801.951,171.99 c 0,2.31 -1.87,3.959 -4.18,3.959 -2.255,0 -4.125,-1.649 -4.125,-3.959 0,-2.255 1.87,-3.96 4.125,-3.96 2.31,0 4.18,1.705 4.18,3.96 z m -0.88,36.46 h -6.545 v -27.991 h 6.545 z"
               id="path130" />
            <path
               style="fill:#ffffff;fill-opacity:1"
               d="m 810.212,200.531 c 2.749,2.09 5.444,3.135 7.919,3.135 2.419,0 4.124,-1.1 4.124,-2.805 0,-4.784 -14.023,-3.08 -14.023,-12.429 0,-5.169 4.29,-8.689 10.559,-8.689 3.356,0 6.71,0.989 9.679,2.914 l -3.079,5.114 c -2.42,-1.649 -4.564,-2.475 -6.709,-2.475 -2.42,0 -4.015,1.045 -4.015,2.585 0,4.564 13.968,2.97 13.968,12.373 0,5.279 -4.344,8.855 -10.778,8.855 -3.739,0 -7.534,-1.155 -10.778,-3.41 z"
               id="path132" />
            <path
               style="fill:#ffffff;fill-opacity:1"
               d="m 836.094,200.531 c 2.75,2.09 5.444,3.135 7.919,3.135 2.42,0 4.125,-1.1 4.125,-2.805 0,-4.784 -14.023,-3.08 -14.023,-12.429 0,-5.169 4.289,-8.689 10.559,-8.689 3.354,0 6.709,0.989 9.679,2.914 l -3.08,5.114 c -2.419,-1.649 -4.563,-2.475 -6.709,-2.475 -2.419,0 -4.014,1.045 -4.014,2.585 0,4.564 13.968,2.97 13.968,12.373 0,5.279 -4.345,8.855 -10.778,8.855 -3.74,0 -7.534,-1.155 -10.779,-3.41 z"
               id="path134" />
            <path
               style="fill:#ffffff;fill-opacity:1"
               d="m 873.728,209.11 c -8.304,0 -13.857,-5.885 -13.857,-14.738 0,-8.689 5.334,-14.628 13.143,-14.628 7.534,0 12.429,5.609 12.429,14.243 0,0.935 -0.055,1.925 -0.11,2.694 h -18.808 c 0.716,4.345 3.3,6.819 7.26,6.819 2.584,0 4.674,-0.99 6.874,-3.3 l 4.069,4.29 c -3.19,3.135 -6.765,4.62 -11,4.62 z m -7.313,-17.213 h 12.703 c -0.275,-4.289 -2.529,-6.764 -6.214,-6.764 -3.63,10e-4 -5.94,2.42 -6.489,6.764 z"
               id="path136" />
            <path
               style="fill:#ffffff;fill-opacity:1"
               d="m 916.676,208.45 h -6.545 v -16.003 c 0,-4.069 -1.209,-6.819 -5.169,-6.819 -4.564,0 -5.829,3.74 -5.829,6.765 v 16.058 h -6.544 V 180.46 h 6.489 v 3.355 h 0.109 c 1.65,-2.475 4.62,-4.069 8.249,-4.069 6.379,0 9.239,4.674 9.239,11.328 v 17.376 z"
               id="path138" />
            <path
               style="fill:#ffffff;fill-opacity:1"
               d="m 925.606,200.531 c 2.75,2.09 5.444,3.135 7.919,3.135 2.42,0 4.124,-1.1 4.124,-2.805 0,-4.784 -14.022,-3.08 -14.022,-12.429 0,-5.169 4.289,-8.689 10.559,-8.689 3.355,0 6.709,0.989 9.679,2.914 l -3.08,5.114 c -2.42,-1.649 -4.565,-2.475 -6.709,-2.475 -2.42,0 -4.015,1.045 -4.015,2.585 0,4.564 13.969,2.97 13.969,12.373 0,5.279 -4.345,8.855 -10.779,8.855 -3.739,0 -7.533,-1.155 -10.778,-3.41 z"
               id="path140" />
            <path
               style="fill:#ffffff;fill-opacity:1"
               d="m 972.809,204.601 c -2.805,3.08 -5.994,4.51 -10.009,4.51 -8.029,0 -13.418,-5.774 -13.418,-14.573 0,-8.799 5.444,-14.793 13.528,-14.793 4.179,0 7.643,1.649 10.063,4.784 l -4.51,4.289 c -1.649,-2.145 -3.409,-3.079 -5.609,-3.079 -4.124,0 -6.929,3.409 -6.929,8.688 0,5.225 2.805,8.744 6.874,8.744 2.199,0 3.959,-0.99 5.774,-3.08 z"
               id="path142" />
            <path
               style="fill:#ffffff;fill-opacity:1"
               d="m 1002.673,208.45 h -6.544 v -16.003 c 0,-4.124 -1.265,-6.819 -5.17,-6.819 -4.509,0 -5.829,3.575 -5.829,6.765 v 16.058 h -6.544 v -39.265 l 6.544,-1.649 v 16.277 h 0.11 c 1.595,-2.475 4.51,-4.069 8.193,-4.069 6.489,0 9.239,4.839 9.239,11.328 v 17.377 z"
               id="path144" />
            <path
               style="fill:#ffffff;fill-opacity:1"
               d="m 1021.165,191.072 c 1.815,0 3.465,0.11 5.279,0.605 v -0.99 c 0,-3.574 -2.09,-5.444 -6.159,-5.444 -2.255,0 -4.784,0.55 -7.094,1.595 l -1.43,-5.499 c 2.584,-0.99 5.994,-1.595 9.184,-1.595 7.864,0 11.934,3.685 11.934,10.833 v 17.873 h -6.215 v -2.97 h -0.109 c -2.42,2.475 -4.949,3.63 -8.194,3.63 -5.609,0 -9.238,-3.465 -9.238,-8.909 0,-5.939 4.234,-9.129 12.042,-9.129 z m -1.099,13.144 c 2.364,0 4.565,-1.155 6.379,-3.355 v -4.895 c -1.54,-0.385 -3.135,-0.55 -4.564,-0.55 -4.124,0 -6.489,1.649 -6.489,4.619 0,2.586 1.815,4.181 4.674,4.181 z"
               id="path146" />
            <path
               style="fill:#ffffff;fill-opacity:1"
               d="m 1055.276,173.31 c -0.88,-0.385 -1.925,-0.55 -2.859,-0.55 -2.475,0 -3.465,1.265 -3.465,3.904 v 3.795 h 5.555 v 5.444 h -5.5 v 22.547 h -6.544 v -22.547 h -4.345 v -5.444 h 4.345 v -4.015 c 0,-5.829 2.64,-9.294 8.909,-9.294 1.43,0 2.805,0.165 3.904,0.605 z"
               id="path148" />
            <path
               style="fill:#ffffff;fill-opacity:1"
               d="m 1076.192,202.456 v 5.609 c -1.43,0.66 -3.575,1.045 -5.5,1.045 -4.949,0 -7.644,-2.75 -7.644,-7.864 v -15.343 h -4.289 v -5.444 h 4.234 v -7.644 l 6.544,-1.431 v 9.074 h 6.654 v 5.444 h -6.654 v 13.803 c 0,2.585 0.88,3.685 3.024,3.685 1.211,0.001 2.53,-0.384 3.631,-0.934 z"
               id="path150" />
            <path
               style="fill:#ffffff;fill-opacity:1"
               d="m 1094.413,209.11 c -8.304,0 -13.857,-5.885 -13.857,-14.738 0,-8.689 5.334,-14.628 13.143,-14.628 7.534,0 12.429,5.609 12.429,14.243 0,0.935 -0.055,1.925 -0.11,2.694 h -18.807 c 0.715,4.345 3.299,6.819 7.259,6.819 2.584,0 4.674,-0.99 6.874,-3.3 l 4.069,4.29 c -3.191,3.135 -6.766,4.62 -11,4.62 z m -7.314,-17.213 h 12.703 c -0.274,-4.289 -2.529,-6.764 -6.214,-6.764 -3.63,10e-4 -5.939,2.42 -6.489,6.764 z"
               id="path152" />
            <path
               style="fill:#ffffff;fill-opacity:1"
               d="m 1137.36,208.45 h -6.545 v -16.003 c 0,-4.069 -1.209,-6.819 -5.169,-6.819 -4.564,0 -5.829,3.74 -5.829,6.765 v 16.058 h -6.544 V 180.46 h 6.489 v 3.355 h 0.109 c 1.65,-2.475 4.62,-4.069 8.249,-4.069 6.379,0 9.239,4.674 9.239,11.328 v 17.376 z"
               id="path154" />
            <path
               style="fill:#ffffff;fill-opacity:1"
               d="m 1166.896,219.834 h -3.739 v -54.003 h 3.739 z"
               id="path156" />
            <path
               style="fill:#ffffff;fill-opacity:1"
               d="m 1190.547,169.735 h 7.204 l 6.324,28.046 h 0.11 l 6.653,-28.046 h 7.149 l 6.819,28.046 h 0.109 l 6.159,-28.046 h 7.095 l -9.734,38.715 h -7.094 l -6.929,-28.376 h -0.11 l -6.929,28.376 h -7.149 z"
               id="path158" />
            <path
               style="fill:#ffffff;fill-opacity:1"
               d="m 1251.986,171.99 c 0,2.31 -1.87,3.959 -4.18,3.959 -2.255,0 -4.124,-1.649 -4.124,-3.959 0,-2.255 1.869,-3.96 4.124,-3.96 2.31,0 4.18,1.705 4.18,3.96 z m -0.88,36.46 h -6.544 v -27.991 h 6.544 z"
               id="path160" />
            <path
               style="fill:#ffffff;fill-opacity:1"
               d="m 1261.528,198.441 c 2.859,2.75 6.379,4.345 9.624,4.345 3.629,0 6.269,-2.035 6.269,-4.84 0,-7.424 -18.972,-5.114 -18.972,-17.652 0,-6.654 5.389,-11.219 13.143,-11.219 4.62,0 8.909,1.595 12.483,4.675 l -4.344,5.334 c -2.805,-2.475 -5.609,-3.739 -8.47,-3.739 -3.409,0 -5.884,1.814 -5.884,4.345 0,6.983 18.973,4.674 18.973,17.707 0,6.984 -5.39,11.714 -13.363,11.714 -5.114,0 -10.119,-1.925 -13.804,-5.335 z"
               id="path162" />
            <path
               style="fill:#ffffff;fill-opacity:1"
               d="m 1290.162,194.427 c 0,-8.799 5.444,-14.683 13.583,-14.683 8.084,0 13.363,5.774 13.363,14.683 0,8.799 -5.225,14.684 -13.363,14.684 -8.084,-10e-4 -13.583,-5.83 -13.583,-14.684 z m 20.457,0.055 c 0,-5.444 -2.694,-8.799 -6.984,-8.799 -4.344,0 -6.983,3.355 -6.983,8.689 0,5.444 2.694,8.854 7.039,8.854 4.288,0 6.928,-3.355 6.928,-8.744 z"
               id="path164" />
          </g>
        </g>
        <path
           id="FAU_x5F_Logo_00000094601020548137033010000018087980007051836039_"
           style="fill:#ffffff;fill-opacity:1;stroke-width:0.52548"
           d="m -202.91169,242.59796 5.12028,-5.11975 v 92.98316 h -5.12028 z m 15.36031,-4.29895 h 61.44174 v -5.11975 h -66.56202 v 61.44175 h 56.55321 v -5.12028 h -51.43293 z m 59.14224,40.96117 h -48.90169 v -20.48059 h 41.82138 l 5.12027,-5.11975 h -46.94165 v -5.12027 h 51.20119 v -5.11976 h -56.32199 v 40.96064 h 48.96948 z m -64.26252,51.20172 h 5.12028 v -25.60139 h 5.12027 v 21.30191 l 5.12028,-5.11975 v -16.18216 h 41.1929 v -5.11975 h -56.55373 z M 56.611847,233.17873 v 58.88214 c 0,13.70137 -6.112909,25.47264 -20.378114,34.50092 l -0.11508,-0.15082 c 9.372986,-7.43344 15.373442,-16.98141 15.373442,-29.31548 v -63.91623 h -5.120277 v 63.83058 c 0,18.38077 -14.900511,32.17146 -33.281276,32.17146 -18.380239,0 -33.28075,-13.79069 -33.28075,-32.17146 v -59.53215 l -5.120277,5.11975 v 54.49753 c 0,21.20785 17.1926547,37.12096 38.401027,37.12096 0.490799,0 5.120278,0 5.120278,0 20.884151,0 43.521304,-15.42284 43.521304,-42.08044 0,-0.0252 0,-58.95676 0,-58.95676 z m -43.521305,90.8823 c 15.544224,0 28.146286,-11.51169 28.160474,-27.05119 v 0 -59.53215 l -5.120277,5.11975 v 49.46238 c 0,9.89742 -8.023555,16.6409 -17.920445,16.6409 -9.8974157,0 -17.92044432,-6.74348 -17.92044432,-16.6409 L 0.2893242,233.17873 h -5.1202771 v 58.88109 c 0,12.72555 10.3156979,21.76065 23.0407219,21.76065 5.203303,0 11.519047,-2.57065 15.809065,-7.09555 l 0.115081,0.15081 c -4.02255,7.45919 -11.457566,12.06502 -21.044423,12.06502 -12.64672764,0 -22.9119794,-9.15596 -23.0375692,-21.76065 h -0.00263 v -64.00084 h -5.1202778 v 64.00136 h 0.0026 c 0.107198,15.45279 12.6724758,26.88041 28.158896,26.88041 z m -113.776402,-24.32027 -12.94783,30.72114 5.12133,-0.001 -5.3e-4,0.001 h 5.3e-4 l 6.47339,-15.36031 h 43.380473 l 6.467608,15.36031 h 5.120277 l -8.623652,-20.48111 h -44.187088 l 2.157621,-5.12028 h 44.9937 l 10.779171,25.60139 h 5.120277 l -12.935216,-30.72114 z m 7.533805,-66.56203 -37.629625,89.25699 3.25955,4.42454 39.490352,-93.68153 z m 20.480583,5.3e-4 39.441478,93.681 3.251145,-4.42454 -37.572346,-89.25646 z m -30.987028,61.44122 -15.14328,35.84089 h -5.12028 l 38.449895,-91.20336 21.154774,50.2422 h 5.120277 l -23.714387,-56.32095 h 5.120277 l 25.869906,61.44175 H -103.6585 Z m 23.319749,-31.01067 -10.911066,25.89092 h 21.812149 z m -21.164229,25.8904 h 5.132886 l 13.472256,-31.9681 -2.563817,-6.08874 z" />
      </g>
    </g>
  </g>
</svg>
