<?xml version="1.0" encoding="UTF-8" standalone="no"?>
<!DOCTYPE svg PUBLIC "-//W3C//DTD SVG 1.1//EN" "http://www.w3.org/Graphics/SVG/1.1/DTD/svg11.dtd">
<svg xmlns="http://www.w3.org/2000/svg" xmlns:xlink="http://www.w3.org/1999/xlink" version="1.1" width="595.32pt" height="841.92pt" viewBox="0 0 595.32 841.92">
<g enable-background="new">
<g>
<g id="Layer-1" data-name="Artifact">
<clipPath id="cp0">
<path transform="matrix(1,0,0,-1,0,841.92)" d="M 0 .00018311 L 595.32 .00018311 L 595.32 841.92019 L 0 841.92019 Z " fill-rule="evenodd"/>
</clipPath>
<g clip-path="url(#cp0)">
<path transform="matrix(1,0,0,-1,0,841.92)" stroke-width=".5" stroke-linecap="butt" stroke-linejoin="round" fill="none" stroke="#000000" d="M 0 544.22 L 17 544.22 "/>
</g>
<clipPath id="cp1">
<path transform="matrix(1,0,0,-1,0,841.92)" d="M .000008871 0 L 595.32 0 L 595.32 841.92 L .000008871 841.92 Z " fill-rule="evenodd"/>
</clipPath>
<g clip-path="url(#cp1)">
<text xml:space="preserve" transform="matrix(1 0 -0 1 0 841.92)" font-size="11.04" font-family="Calibri"><tspan y="-763.3" x="208.13"> </tspan></text>
</g>
<clipPath id="cp2">
<path transform="matrix(1,0,0,-1,0,841.92)" d="M .000008871 0 L 595.32 0 L 595.32 841.92 L .000008871 841.92 Z " fill-rule="evenodd"/>
</clipPath>
<g clip-path="url(#cp2)">
<text xml:space="preserve" transform="matrix(1 0 -0 1 0 841.92)" font-size="11.04" font-family="Calibri"><tspan y="-763.3" x="297.65"> </tspan></text>
</g>
<clipPath id="cp3">
<path transform="matrix(1,0,0,-1,0,841.92)" d="M .000008871 0 L 595.32 0 L 595.32 841.92 L .000008871 841.92 Z " fill-rule="evenodd"/>
</clipPath>
<g clip-path="url(#cp3)">
<text xml:space="preserve" transform="matrix(1 0 -0 1 0 841.92)" font-size="11.04" font-family="Calibri"><tspan y="-763.3" x="524.5"> </tspan></text>
</g>
<clipPath id="cp4">
<path transform="matrix(1,0,0,-1,0,841.92)" d="M .000008871 0 L 595.32 0 L 595.32 841.92 L .000008871 841.92 Z " fill-rule="evenodd"/>
</clipPath>
<g clip-path="url(#cp4)">
</g>
<clipPath id="cp5">
<path transform="matrix(1,0,0,-1,0,841.92)" d="M 70.85 763.33 L 208.20001 763.33 L 208.20001 806.517 L 70.85 806.517 Z " fill-rule="evenodd"/>
</clipPath>
<g clip-path="url(#cp5)">
<clipPath id="cp6">
<path transform="matrix(1.2709576,.00000050236,-.000000198481,-1.26652,70.85,78.589969)" d="M 0 0 L 108.07 0 L 108.07 34.099 L 0 34.099 Z " fill-rule="evenodd"/>
</clipPath>
<g clip-path="url(#cp6)">
<path transform="matrix(1.2709576,.00000050236,-.000000198481,-1.26652,70.85,78.589969)" d="M 8.3301 27.379 L 6.2386 27.379 L 6.2386 26.224 L 7.8022 26.224 L 7.8022 25.472 L 6.2386 25.472 L 6.2386 23.493 L 5.4139 23.493 L 5.4139 28.138 L 8.3301 28.138 L 8.3301 27.379 Z " fill="#04316a"/>
<path transform="matrix(1.2709576,.00000050236,-.000000198481,-1.26652,70.85,78.589969)" d="M 10.811 26.864 L 10.685 26.059 C 10.567 26.125 10.421 26.165 10.25 26.165 C 9.7088 26.165 9.5636 25.73 9.5636 25.215 L 9.5636 23.493 L 8.7785 23.493 L 8.7785 26.851 L 9.5505 26.851 L 9.5505 26.429 L 9.5636 26.429 C 9.7418 26.746 10.058 26.937 10.441 26.937 C 10.553 26.937 10.692 26.917 10.811 26.864 Z " fill="#04316a"/>
<path transform="matrix(1.2709576,.00000050236,-.000000198481,-1.26652,70.85,78.589969)" d="M 12.365 27.867 C 12.365 27.59 12.14 27.392 11.863 27.392 C 11.593 27.392 11.368 27.59 11.368 27.867 C 11.368 28.138 11.593 28.342 11.863 28.342 C 12.14 28.342 12.365 28.138 12.365 27.867 Z M 12.259 23.493 L 11.474 23.493 L 11.474 26.851 L 12.259 26.851 L 12.259 23.493 Z " fill="#04316a"/>
<path transform="matrix(1.2709576,.00000050236,-.000000198481,-1.26652,70.85,78.589969)" d="M 14.749 23.414 C 13.752 23.414 13.086 24.12 13.086 25.182 C 13.086 26.225 13.726 26.937 14.663 26.937 C 15.567 26.937 16.154 26.264 16.154 25.228 C 16.154 25.116 16.147 24.997 16.141 24.905 L 13.885 24.905 C 13.97 24.384 14.28 24.087 14.755 24.087 C 15.066 24.087 15.316 24.206 15.58 24.483 L 16.068 23.968 C 15.686 23.592 15.257 23.414 14.749 23.414 Z M 13.871 25.479 L 15.395 25.479 C 15.362 25.994 15.092 26.29 14.65 26.29 C 14.214 26.29 13.937 26 13.871 25.479 Z " fill="#04316a"/>
<path transform="matrix(1.2709576,.00000050236,-.000000198481,-1.26652,70.85,78.589969)" d="M 16.837 25.182 C 16.837 26.264 17.384 26.937 18.202 26.937 C 18.625 26.937 18.955 26.759 19.179 26.482 L 19.192 26.482 L 19.192 28.204 L 19.977 28.402 L 19.977 23.493 L 19.212 23.493 L 19.212 23.889 L 19.199 23.889 C 18.955 23.592 18.605 23.414 18.189 23.414 C 17.391 23.414 16.837 24.093 16.837 25.182 Z M 17.615 25.182 C 17.615 24.496 17.899 24.106 18.394 24.106 C 18.697 24.106 18.948 24.252 19.192 24.549 L 19.192 25.776 C 18.968 26.079 18.71 26.225 18.394 26.225 C 17.886 26.224 17.615 25.855 17.615 25.182 Z " fill="#04316a"/>
<path transform="matrix(1.2709576,.00000050236,-.000000198481,-1.26652,70.85,78.589969)" d="M 23.032 26.864 L 22.907 26.059 C 22.788 26.125 22.643 26.165 22.471 26.165 C 21.93 26.165 21.785 25.73 21.785 25.215 L 21.785 23.493 L 21 23.493 L 21 26.851 L 21.772 26.851 L 21.772 26.429 L 21.785 26.429 C 21.963 26.746 22.28 26.937 22.662 26.937 C 22.775 26.937 22.913 26.917 23.032 26.864 Z " fill="#04316a"/>
<path transform="matrix(1.2709576,.00000050236,-.000000198481,-1.26652,70.85,78.589969)" d="M 24.586 27.867 C 24.586 27.59 24.362 27.392 24.084 27.392 C 23.814 27.392 23.59 27.59 23.59 27.867 C 23.59 28.138 23.814 28.342 24.084 28.342 C 24.362 28.342 24.586 28.138 24.586 27.867 Z M 24.48 23.493 L 23.695 23.493 L 23.695 26.851 L 24.48 26.851 L 24.48 23.493 Z " fill="#04316a"/>
<path transform="matrix(1.2709576,.00000050236,-.000000198481,-1.26652,70.85,78.589969)" d="M 28.133 23.955 C 27.797 23.585 27.414 23.414 26.932 23.414 C 25.969 23.414 25.322 24.107 25.322 25.162 C 25.322 26.218 25.976 26.937 26.945 26.937 C 27.447 26.937 27.862 26.739 28.153 26.363 L 27.612 25.848 C 27.414 26.106 27.203 26.218 26.939 26.218 C 26.444 26.218 26.107 25.809 26.107 25.175 C 26.107 24.549 26.444 24.126 26.932 24.126 C 27.196 24.126 27.407 24.245 27.625 24.496 L 28.133 23.955 Z " fill="#04316a"/>
<path transform="matrix(1.2709576,.00000050236,-.000000198481,-1.26652,70.85,78.589969)" d="M 31.716 23.493 L 30.931 23.493 L 30.931 25.413 C 30.931 25.908 30.779 26.231 30.311 26.231 C 29.77 26.231 29.611 25.802 29.611 25.419 L 29.611 23.493 L 28.826 23.493 L 28.826 28.204 L 29.611 28.402 L 29.611 26.449 L 29.625 26.449 C 29.816 26.746 30.166 26.937 30.608 26.937 C 31.386 26.937 31.716 26.356 31.716 25.578 L 31.716 23.493 Z " fill="#04316a"/>
<path transform="matrix(1.2709576,.00000050236,-.000000198481,-1.26652,70.85,78.589969)" d="M 32.617 25.182 L 34.2664 25.182 L 34.2664 25.927529 L 32.617 25.927529 Z " fill="#04316a"/>
<path transform="matrix(1.2709576,.00000050236,-.000000198481,-1.26652,70.85,78.589969)" d="M 36.399 28.138 L 37.27 28.138 L 38.999 23.493 L 38.095 23.493 L 37.758 24.483 L 35.885 24.483 L 35.548 23.493 L 34.671 23.493 L 36.399 28.138 Z M 36.142 25.222 L 37.501 25.222 L 36.828 27.194 L 36.815 27.194 L 36.142 25.222 Z " fill="#04316a"/>
<path transform="matrix(1.2709576,.00000050236,-.000000198481,-1.26652,70.85,78.589969)" d="M 40.473 23.493 L 39.688 23.493 L 39.688 28.217 L 40.473 28.395 L 40.473 23.493 Z " fill="#04316a"/>
<path transform="matrix(1.2709576,.00000050236,-.000000198481,-1.26652,70.85,78.589969)" d="M 42.986 23.414 C 41.99 23.414 41.324 24.12 41.324 25.182 C 41.324 26.225 41.964 26.937 42.901 26.937 C 43.805 26.937 44.392 26.264 44.392 25.228 C 44.392 25.116 44.385 24.997 44.379 24.905 L 42.122 24.905 C 42.208 24.384 42.518 24.087 42.993 24.087 C 43.303 24.087 43.554 24.206 43.818 24.483 L 44.306 23.968 C 43.923 23.592 43.494 23.414 42.986 23.414 Z M 42.109 25.479 L 43.633 25.479 C 43.6 25.994 43.33 26.29 42.888 26.29 C 42.452 26.29 42.175 26 42.109 25.479 Z " fill="#04316a"/>
<path transform="matrix(1.2709576,.00000050236,-.000000198481,-1.26652,70.85,78.589969)" d="M 48.022 23.493 L 47.124 23.493 L 46.405 24.654 L 46.392 24.654 L 45.693 23.493 L 44.809 23.493 L 45.957 25.235 L 44.894 26.851 L 45.779 26.851 L 46.412 25.822 L 46.425 25.822 L 47.052 26.851 L 47.923 26.851 L 46.867 25.248 L 48.022 23.493 Z " fill="#04316a"/>
<path transform="matrix(1.2709576,.00000050236,-.000000198481,-1.26652,70.85,78.589969)" d="M 49.877 25.578 C 50.095 25.578 50.293 25.565 50.511 25.505 L 50.511 25.624 C 50.511 26.053 50.26 26.277 49.772 26.277 C 49.501 26.277 49.198 26.211 48.921 26.086 L 48.749 26.746 C 49.059 26.864 49.468 26.937 49.851 26.937 C 50.794 26.937 51.283 26.495 51.283 25.637 L 51.283 23.493 L 50.537 23.493 L 50.537 23.849 L 50.524 23.849 C 50.234 23.552 49.93 23.414 49.541 23.414 C 48.868 23.414 48.433 23.829 48.433 24.483 C 48.433 25.195 48.941 25.578 49.877 25.578 Z M 49.745 24.001 C 50.029 24.001 50.293 24.14 50.511 24.403 L 50.511 24.991 C 50.326 25.037 50.135 25.057 49.963 25.057 C 49.468 25.057 49.185 24.859 49.185 24.502 C 49.185 24.192 49.402 24.001 49.745 24.001 Z " fill="#04316a"/>
<path transform="matrix(1.2709576,.00000050236,-.000000198481,-1.26652,70.85,78.589969)" d="M 55.168 23.493 L 54.383 23.493 L 54.383 25.413 C 54.383 25.901 54.238 26.231 53.763 26.231 C 53.215 26.231 53.063 25.782 53.063 25.419 L 53.063 23.493 L 52.278 23.493 L 52.278 26.851 L 53.057 26.851 L 53.057 26.449 L 53.07 26.449 C 53.268 26.746 53.624 26.937 54.059 26.937 C 54.825 26.937 55.168 26.376 55.168 25.578 L 55.168 23.493 Z " fill="#04316a"/>
<path transform="matrix(1.2709576,.00000050236,-.000000198481,-1.26652,70.85,78.589969)" d="M 55.998 25.182 C 55.998 26.264 56.546 26.937 57.364 26.937 C 57.787 26.937 58.116 26.759 58.341 26.482 L 58.354 26.482 L 58.354 28.204 L 59.139 28.402 L 59.139 23.493 L 58.374 23.493 L 58.374 23.889 L 58.361 23.889 C 58.116 23.592 57.767 23.414 57.351 23.414 C 56.553 23.414 55.998 24.093 55.998 25.182 Z M 56.777 25.182 C 56.777 24.496 57.061 24.106 57.555 24.106 C 57.859 24.106 58.11 24.252 58.354 24.549 L 58.354 25.776 C 58.129 26.079 57.872 26.225 57.555 26.225 C 57.047 26.224 56.777 25.855 56.777 25.182 Z " fill="#04316a"/>
<path transform="matrix(1.2709576,.00000050236,-.000000198481,-1.26652,70.85,78.589969)" d="M 61.654 23.414 C 60.658 23.414 59.991 24.12 59.991 25.182 C 59.991 26.225 60.631 26.937 61.568 26.937 C 62.472 26.937 63.059 26.264 63.059 25.228 C 63.059 25.116 63.053 24.997 63.046 24.905 L 60.79 24.905 C 60.876 24.384 61.186 24.087 61.661 24.087 C 61.971 24.087 62.221 24.206 62.485 24.483 L 62.974 23.968 C 62.591 23.592 62.162 23.414 61.654 23.414 Z M 60.776 25.479 L 62.3 25.479 C 62.267 25.994 61.997 26.29 61.555 26.29 C 61.119 26.29 60.842 26 60.776 25.479 Z " fill="#04316a"/>
<path transform="matrix(1.2709576,.00000050236,-.000000198481,-1.26652,70.85,78.589969)" d="M 65.949 26.864 L 65.823 26.059 C 65.705 26.125 65.56 26.165 65.388 26.165 C 64.847 26.165 64.702 25.73 64.702 25.215 L 64.702 23.493 L 63.917 23.493 L 63.917 26.851 L 64.689 26.851 L 64.689 26.429 L 64.702 26.429 C 64.88 26.746 65.197 26.937 65.579 26.937 C 65.691 26.937 65.83 26.917 65.949 26.864 Z " fill="#04316a"/>
<path transform="matrix(1.2709576,.00000050236,-.000000198481,-1.26652,70.85,78.589969)" d="M 66.437 25.182 L 68.086399 25.182 L 68.086399 25.927529 L 66.437 25.927529 Z " fill="#04316a"/>
<path transform="matrix(1.2709576,.00000050236,-.000000198481,-1.26652,70.85,78.589969)" d="M 72.717 25.334 C 72.717 24.212 72.143 23.414 70.896 23.414 C 69.656 23.414 69.088 24.206 69.088 25.334 L 69.088 28.138 L 69.933 28.138 L 69.933 25.38 C 69.933 24.681 70.237 24.205 70.923 24.205 C 71.609 24.205 71.879 24.674 71.879 25.38 L 71.879 28.138 L 72.717 28.138 L 72.717 25.334 Z " fill="#04316a"/>
<path transform="matrix(1.2709576,.00000050236,-.000000198481,-1.26652,70.85,78.589969)" d="M 76.65 23.493 L 75.864 23.493 L 75.864 25.413 C 75.864 25.901 75.719 26.231 75.244 26.231 C 74.697 26.231 74.545 25.782 74.545 25.419 L 74.545 23.493 L 73.76 23.493 L 73.76 26.851 L 74.538 26.851 L 74.538 26.449 L 74.551 26.449 C 74.749 26.746 75.106 26.937 75.541 26.937 C 76.306 26.937 76.649 26.376 76.649 25.578 L 76.649 23.493 Z " fill="#04316a"/>
<path transform="matrix(1.2709576,.00000050236,-.000000198481,-1.26652,70.85,78.589969)" d="M 78.53 27.867 C 78.53 27.59 78.306 27.392 78.029 27.392 C 77.758 27.392 77.534 27.59 77.534 27.867 C 77.534 28.138 77.758 28.342 78.029 28.342 C 78.306 28.342 78.53 28.138 78.53 27.867 Z M 78.425 23.493 L 77.64 23.493 L 77.64 26.851 L 78.425 26.851 L 78.425 23.493 Z " fill="#04316a"/>
<path transform="matrix(1.2709576,.00000050236,-.000000198481,-1.26652,70.85,78.589969)" d="M 82.35 26.851 L 81.129 23.493 L 80.311 23.493 L 79.091 26.851 L 79.955 26.851 L 80.727 24.41 L 80.74 24.41 L 81.512 26.851 L 82.35 26.851 Z " fill="#04316a"/>
<path transform="matrix(1.2709576,.00000050236,-.000000198481,-1.26652,70.85,78.589969)" d="M 84.378 23.414 C 83.382 23.414 82.716 24.12 82.716 25.182 C 82.716 26.225 83.356 26.937 84.292 26.937 C 85.196 26.937 85.784 26.264 85.784 25.228 C 85.784 25.116 85.777 24.997 85.77 24.905 L 83.514 24.905 C 83.6 24.384 83.91 24.087 84.385 24.087 C 84.695 24.087 84.946 24.206 85.21 24.483 L 85.698 23.968 C 85.315 23.592 84.886 23.414 84.378 23.414 Z M 83.501 25.479 L 85.025 25.479 C 84.992 25.994 84.721 26.29 84.279 26.29 C 83.844 26.29 83.567 26 83.501 25.479 Z " fill="#04316a"/>
<path transform="matrix(1.2709576,.00000050236,-.000000198481,-1.26652,70.85,78.589969)" d="M 88.673 26.864 L 88.548 26.059 C 88.429 26.125 88.284 26.165 88.112 26.165 C 87.571 26.165 87.426 25.73 87.426 25.215 L 87.426 23.493 L 86.641 23.493 L 86.641 26.851 L 87.413 26.851 L 87.413 26.429 L 87.426 26.429 C 87.604 26.746 87.921 26.937 88.304 26.937 C 88.416 26.937 88.554 26.917 88.673 26.864 Z " fill="#04316a"/>
<path transform="matrix(1.2709576,.00000050236,-.000000198481,-1.26652,70.85,78.589969)" d="M 89.415 24.443 C 89.745 24.192 90.069 24.067 90.366 24.067 C 90.656 24.067 90.86 24.199 90.86 24.403 C 90.86 24.977 89.178 24.773 89.178 25.894 C 89.178 26.515 89.693 26.937 90.445 26.937 C 90.847 26.937 91.25 26.818 91.606 26.587 L 91.237 25.974 C 90.946 26.172 90.689 26.271 90.432 26.271 C 90.141 26.271 89.95 26.145 89.95 25.96 C 89.95 25.413 91.626 25.604 91.626 24.476 C 91.626 23.843 91.105 23.414 90.333 23.414 C 89.884 23.414 89.429 23.552 89.04 23.823 L 89.415 24.443 Z " fill="#04316a"/>
<path transform="matrix(1.2709576,.00000050236,-.000000198481,-1.26652,70.85,78.589969)" d="M 93.356 27.867 C 93.356 27.59 93.132 27.392 92.855 27.392 C 92.584 27.392 92.36 27.59 92.36 27.867 C 92.36 28.138 92.584 28.342 92.855 28.342 C 93.132 28.342 93.356 28.138 93.356 27.867 Z M 93.25 23.493 L 92.465 23.493 L 92.465 26.851 L 93.25 26.851 L 93.25 23.493 Z " fill="#04316a"/>
<path transform="matrix(1.2709576,.00000050236,-.000000198481,-1.26652,70.85,78.589969)" d="M 96.008 24.212 L 96.008 23.539 C 95.837 23.46 95.579 23.414 95.348 23.414 C 94.754 23.414 94.431 23.744 94.431 24.357 L 94.431 26.198 L 93.917 26.198 L 93.917 26.851 L 94.425 26.851 L 94.425 27.768 L 95.21 27.94 L 95.21 26.851 L 96.008 26.851 L 96.008 26.198 L 95.21 26.198 L 95.21 24.542 C 95.21 24.232 95.315 24.1 95.572 24.1 C 95.718 24.1 95.876 24.146 96.008 24.212 Z " fill="#04316a"/>
<path transform="matrix(1.2709576,.00000050236,-.000000198481,-1.26652,70.85,78.589969)" d="M 98.066 25.578 C 98.284 25.578 98.482 25.565 98.699 25.505 L 98.699 25.624 C 98.699 26.053 98.449 26.277 97.96 26.277 C 97.69 26.277 97.387 26.211 97.109 26.086 L 96.938 26.746 C 97.248 26.864 97.657 26.937 98.04 26.937 C 98.983 26.937 99.471 26.495 99.471 25.637 L 99.471 23.493 L 98.726 23.493 L 98.726 23.849 L 98.713 23.849 C 98.422 23.552 98.119 23.414 97.73 23.414 C 97.057 23.414 96.621 23.829 96.621 24.483 C 96.621 25.195 97.129 25.578 98.066 25.578 Z M 97.426 27.372 C 97.175 27.372 96.958 27.584 96.958 27.828 C 96.958 28.072 97.175 28.29 97.426 28.29 C 97.677 28.29 97.894 28.072 97.894 27.828 C 97.894 27.583 97.677 27.372 97.426 27.372 Z M 97.934 24.001 C 98.218 24.001 98.482 24.14 98.699 24.403 L 98.699 24.991 C 98.515 25.037 98.323 25.057 98.152 25.057 C 97.657 25.057 97.373 24.859 97.373 24.502 C 97.373 24.192 97.591 24.001 97.934 24.001 Z M 98.798 27.372 C 98.548 27.372 98.33 27.584 98.33 27.828 C 98.33 28.072 98.548 28.29 98.798 28.29 C 99.049 28.29 99.267 28.072 99.267 27.828 C 99.267 27.583 99.049 27.372 98.798 27.372 Z " fill="#04316a"/>
<path transform="matrix(1.2709576,.00000050236,-.000000198481,-1.26652,70.85,78.589969)" d="M 102.17 24.212 L 102.17 23.539 C 102 23.46 101.74 23.414 101.51 23.414 C 100.92 23.414 100.6 23.744 100.6 24.357 L 100.6 26.198 L 100.08 26.198 L 100.08 26.851 L 100.59 26.851 L 100.59 27.768 L 101.37 27.94 L 101.37 26.851 L 102.17 26.851 L 102.17 26.198 L 101.37 26.198 L 101.37 24.542 C 101.37 24.232 101.48 24.1 101.74 24.1 C 101.88 24.1 102.04 24.146 102.17 24.212 Z " fill="#04316a"/>
<path transform="matrix(1.2709576,.00000050236,-.000000198481,-1.26652,70.85,78.589969)" d="M 6.232 16.234 L 5.4139 16.234 L 5.4139 20.879 L 7.1359 20.879 C 8.1188 20.879 8.7325 20.424 8.7325 19.507 C 8.7325 18.801 8.3762 18.359 7.7824 18.181 L 8.8447 16.234 L 7.8946 16.234 L 6.9378 18.088 L 6.2319 18.088 L 6.2319 16.234 Z M 7.9078 19.48 C 7.9078 19.936 7.6175 20.153 7.0765 20.153 L 6.232 20.153 L 6.232 18.801 L 7.0369 18.801 C 7.6044 18.801 7.9078 19.019 7.9078 19.48 Z " fill="#c50f3c"/>
<path transform="matrix(1.2709576,.00000050236,-.000000198481,-1.26652,70.85,78.589969)" d="M 11.052 16.155 C 10.055 16.155 9.3889 16.861 9.3889 17.924 C 9.3889 18.966 10.029 19.679 10.966 19.679 C 11.87 19.679 12.457 19.006 12.457 17.97 C 12.457 17.858 12.45 17.739 12.444 17.646 L 10.187 17.646 C 10.273 17.125 10.583 16.828 11.058 16.828 C 11.368 16.828 11.619 16.947 11.883 17.224 L 12.371 16.71 C 11.988 16.333 11.56 16.155 11.052 16.155 Z M 10.174 18.22 L 11.698 18.22 C 11.665 18.735 11.395 19.032 10.953 19.032 C 10.517 19.032 10.24 18.742 10.174 18.22 Z " fill="#c50f3c"/>
<path transform="matrix(1.2709576,.00000050236,-.000000198481,-1.26652,70.85,78.589969)" d="M 15.938 16.696 C 15.601 16.327 15.219 16.155 14.737 16.155 C 13.774 16.155 13.127 16.848 13.127 17.904 C 13.127 18.959 13.78 19.679 14.75 19.679 C 15.252 19.679 15.667 19.481 15.957 19.105 L 15.416 18.59 C 15.218 18.847 15.007 18.959 14.743 18.959 C 14.249 18.959 13.912 18.55 13.912 17.917 C 13.912 17.29 14.249 16.868 14.737 16.868 C 15.001 16.868 15.212 16.987 15.429 17.237 L 15.938 16.696 Z " fill="#c50f3c"/>
<path transform="matrix(1.2709576,.00000050236,-.000000198481,-1.26652,70.85,78.589969)" d="M 19.521 16.234 L 18.735 16.234 L 18.735 18.154 C 18.735 18.649 18.584 18.972 18.115 18.972 C 17.574 18.972 17.416 18.544 17.416 18.161 L 17.416 16.234 L 16.631 16.234 L 16.631 20.945 L 17.416 21.143 L 17.416 19.19 L 17.429 19.19 C 17.62 19.487 17.97 19.678 18.412 19.678 C 19.191 19.678 19.52 19.098 19.52 18.319 L 19.52 16.234 Z " fill="#c50f3c"/>
<path transform="matrix(1.2709576,.00000050236,-.000000198481,-1.26652,70.85,78.589969)" d="M 22.229 16.954 L 22.229 16.281 C 22.058 16.201 21.801 16.155 21.57 16.155 C 20.976 16.155 20.653 16.485 20.653 17.099 L 20.653 18.94 L 20.138 18.94 L 20.138 19.593 L 20.646 19.593 L 20.646 20.51 L 21.431 20.681 L 21.431 19.593 L 22.229 19.593 L 22.229 18.94 L 21.431 18.94 L 21.431 17.284 C 21.431 16.973 21.537 16.841 21.794 16.841 C 21.939 16.841 22.098 16.888 22.229 16.954 Z " fill="#c50f3c"/>
<path transform="matrix(1.2709576,.00000050236,-.000000198481,-1.26652,70.85,78.589969)" d="M 23.162 17.184 C 23.492 16.934 23.815 16.808 24.112 16.808 C 24.402 16.808 24.607 16.94 24.607 17.145 C 24.607 17.719 22.925 17.514 22.925 18.636 C 22.925 19.256 23.439 19.678 24.191 19.678 C 24.594 19.678 24.996 19.56 25.353 19.329 L 24.983 18.715 C 24.693 18.913 24.436 19.012 24.178 19.012 C 23.888 19.012 23.697 18.887 23.697 18.702 C 23.697 18.154 25.372 18.346 25.372 17.217 C 25.372 16.584 24.851 16.155 24.079 16.155 C 23.631 16.155 23.175 16.294 22.786 16.564 L 23.162 17.184 Z " fill="#c50f3c"/>
<path transform="matrix(1.2709576,.00000050236,-.000000198481,-1.26652,70.85,78.589969)" d="M 25.989 17.923 L 27.638401 17.923 L 27.638401 18.66853 L 25.989 18.66853 Z " fill="#c50f3c"/>
<path transform="matrix(1.2709576,.00000050236,-.000000198481,-1.26652,70.85,78.589969)" d="M 31.208 17.574 C 31.208 17.112 31.439 16.868 31.875 16.868 C 32.303 16.868 32.528 17.105 32.528 17.58 L 32.528 19.593 L 33.313 19.593 L 33.313 17.554 C 33.313 16.67 32.818 16.155 31.894 16.155 C 30.977 16.155 30.423 16.67 30.423 17.547 L 30.423 19.593 L 31.208 19.593 L 31.208 17.574 Z " fill="#c50f3c"/>
<path transform="matrix(1.2709576,.00000050236,-.000000198481,-1.26652,70.85,78.589969)" d="M 37.198 16.234 L 36.413 16.234 L 36.413 18.154 C 36.413 18.643 36.268 18.972 35.793 18.972 C 35.245 18.972 35.093 18.524 35.093 18.161 L 35.093 16.234 L 34.308 16.234 L 34.308 19.593 L 35.087 19.593 L 35.087 19.19 L 35.1 19.19 C 35.298 19.487 35.654 19.678 36.09 19.678 C 36.855 19.678 37.198 19.118 37.198 18.319 L 37.198 16.234 Z " fill="#c50f3c"/>
<path transform="matrix(1.2709576,.00000050236,-.000000198481,-1.26652,70.85,78.589969)" d="M 38.028 17.923 C 38.028 19.005 38.576 19.678 39.394 19.678 C 39.816 19.678 40.146 19.5 40.371 19.223 L 40.384 19.223 L 40.384 20.945 L 41.169 21.143 L 41.169 16.234 L 40.404 16.234 L 40.404 16.63 L 40.391 16.63 C 40.147 16.333 39.797 16.155 39.381 16.155 C 38.583 16.155 38.028 16.835 38.028 17.923 Z M 38.807 17.923 C 38.807 17.237 39.091 16.848 39.586 16.848 C 39.889 16.848 40.14 16.993 40.384 17.29 L 40.384 18.517 C 40.16 18.821 39.902 18.966 39.586 18.966 C 39.078 18.966 38.807 18.596 38.807 17.923 Z " fill="#c50f3c"/>
<path transform="matrix(1.2709576,.00000050236,-.000000198481,-1.26652,70.85,78.589969)" d="M 43.862 20.879 L 44.726 20.879 L 45.485 17.514 L 45.498 17.514 L 46.296 20.879 L 47.154 20.879 L 47.972 17.514 L 47.985 17.514 L 48.724 20.879 L 49.575 20.879 L 48.407 16.234 L 47.556 16.234 L 46.725 19.639 L 46.712 19.639 L 45.88 16.234 L 45.023 16.234 L 43.862 20.879 Z " fill="#c50f3c"/>
<path transform="matrix(1.2709576,.00000050236,-.000000198481,-1.26652,70.85,78.589969)" d="M 51.233 20.609 C 51.233 20.332 51.008 20.134 50.731 20.134 C 50.461 20.134 50.236 20.332 50.236 20.609 C 50.236 20.879 50.461 21.084 50.731 21.084 C 51.008 21.084 51.233 20.879 51.233 20.609 Z M 51.127 16.234 L 50.342 16.234 L 50.342 19.593 L 51.127 19.593 L 51.127 16.234 Z " fill="#c50f3c"/>
<path transform="matrix(1.2709576,.00000050236,-.000000198481,-1.26652,70.85,78.589969)" d="M 54.186 19.606 L 54.061 18.801 C 53.942 18.867 53.797 18.906 53.625 18.906 C 53.084 18.906 52.939 18.471 52.939 17.956 L 52.939 16.234 L 52.154 16.234 L 52.154 19.593 L 52.926 19.593 L 52.926 19.17 L 52.939 19.17 C 53.117 19.487 53.434 19.678 53.817 19.678 C 53.929 19.678 54.067 19.659 54.186 19.606 Z " fill="#c50f3c"/>
<path transform="matrix(1.2709576,.00000050236,-.000000198481,-1.26652,70.85,78.589969)" d="M 56.764 16.954 L 56.764 16.281 C 56.592 16.201 56.335 16.155 56.104 16.155 C 55.51 16.155 55.187 16.485 55.187 17.099 L 55.187 18.94 L 54.672 18.94 L 54.672 19.593 L 55.18 19.593 L 55.18 20.51 L 55.965 20.681 L 55.965 19.593 L 56.764 19.593 L 56.764 18.94 L 55.965 18.94 L 55.965 17.284 C 55.965 16.973 56.071 16.841 56.328 16.841 C 56.473 16.841 56.631 16.888 56.764 16.954 Z " fill="#c50f3c"/>
<path transform="matrix(1.2709576,.00000050236,-.000000198481,-1.26652,70.85,78.589969)" d="M 57.696 17.184 C 58.026 16.934 58.349 16.808 58.646 16.808 C 58.936 16.808 59.141 16.94 59.141 17.145 C 59.141 17.719 57.459 17.514 57.459 18.636 C 57.459 19.256 57.973 19.678 58.725 19.678 C 59.128 19.678 59.53 19.56 59.887 19.329 L 59.517 18.715 C 59.227 18.913 58.97 19.012 58.712 19.012 C 58.422 19.012 58.23 18.887 58.23 18.702 C 58.23 18.154 59.906 18.346 59.906 17.217 C 59.906 16.584 59.385 16.155 58.613 16.155 C 58.165 16.155 57.709 16.294 57.32 16.564 L 57.696 17.184 Z " fill="#c50f3c"/>
<path transform="matrix(1.2709576,.00000050236,-.000000198481,-1.26652,70.85,78.589969)" d="M 63.359 16.696 C 63.023 16.327 62.64 16.155 62.158 16.155 C 61.195 16.155 60.549 16.848 60.549 17.904 C 60.549 18.959 61.202 19.679 62.172 19.679 C 62.673 19.679 63.089 19.481 63.379 19.105 L 62.838 18.59 C 62.64 18.847 62.429 18.959 62.165 18.959 C 61.67 18.959 61.334 18.55 61.334 17.917 C 61.334 17.29 61.67 16.868 62.158 16.868 C 62.422 16.868 62.633 16.987 62.851 17.237 L 63.359 16.696 Z " fill="#c50f3c"/>
<path transform="matrix(1.2709576,.00000050236,-.000000198481,-1.26652,70.85,78.589969)" d="M 66.942 16.234 L 66.157 16.234 L 66.157 18.154 C 66.157 18.649 66.005 18.972 65.537 18.972 C 64.996 18.972 64.837 18.544 64.837 18.161 L 64.837 16.234 L 64.052 16.234 L 64.052 20.945 L 64.837 21.143 L 64.837 19.19 L 64.851 19.19 C 65.042 19.487 65.392 19.678 65.834 19.678 C 66.612 19.678 66.942 19.098 66.942 18.319 L 66.942 16.234 Z " fill="#c50f3c"/>
<path transform="matrix(1.2709576,.00000050236,-.000000198481,-1.26652,70.85,78.589969)" d="M 69.161 18.319 C 69.378 18.319 69.576 18.306 69.794 18.247 L 69.794 18.366 C 69.794 18.794 69.543 19.019 69.055 19.019 C 68.785 19.019 68.481 18.953 68.204 18.827 L 68.032 19.487 C 68.342 19.606 68.752 19.678 69.134 19.678 C 70.078 19.678 70.566 19.236 70.566 18.379 L 70.566 16.234 L 69.82 16.234 L 69.82 16.591 L 69.807 16.591 C 69.517 16.294 69.214 16.155 68.824 16.155 C 68.151 16.155 67.716 16.571 67.716 17.224 C 67.716 17.937 68.224 18.319 69.161 18.319 Z M 69.029 16.742 C 69.312 16.742 69.576 16.881 69.794 17.145 L 69.794 17.732 C 69.609 17.778 69.418 17.798 69.246 17.798 C 68.752 17.798 68.468 17.6 68.468 17.244 C 68.468 16.934 68.686 16.742 69.029 16.742 Z " fill="#c50f3c"/>
<path transform="matrix(1.2709576,.00000050236,-.000000198481,-1.26652,70.85,78.589969)" d="M 73.253 20.45 C 73.148 20.497 73.022 20.516 72.91 20.516 C 72.613 20.516 72.494 20.365 72.494 20.048 L 72.494 19.592 L 73.161 19.592 L 73.161 18.939 L 72.501 18.939 L 72.501 16.234 L 71.716 16.234 L 71.716 18.939 L 71.195 18.939 L 71.195 19.592 L 71.716 19.592 L 71.716 20.074 C 71.716 20.774 72.033 21.189 72.785 21.189 C 72.956 21.189 73.121 21.169 73.253 21.117 L 73.253 20.45 Z " fill="#c50f3c"/>
<path transform="matrix(1.2709576,.00000050236,-.000000198481,-1.26652,70.85,78.589969)" d="M 75.763 16.954 L 75.763 16.281 C 75.591 16.201 75.334 16.155 75.103 16.155 C 74.509 16.155 74.186 16.485 74.186 17.099 L 74.186 18.94 L 73.671 18.94 L 73.671 19.593 L 74.179 19.593 L 74.179 20.51 L 74.964 20.681 L 74.964 19.593 L 75.762 19.593 L 75.762 18.94 L 74.964 18.94 L 74.964 17.284 C 74.964 16.973 75.07 16.841 75.327 16.841 C 75.472 16.841 75.631 16.888 75.763 16.954 Z " fill="#c50f3c"/>
<path transform="matrix(1.2709576,.00000050236,-.000000198481,-1.26652,70.85,78.589969)" d="M 76.695 17.184 C 77.025 16.934 77.348 16.808 77.645 16.808 C 77.935 16.808 78.14 16.94 78.14 17.145 C 78.14 17.719 76.458 17.514 76.458 18.636 C 76.458 19.256 76.972 19.678 77.724 19.678 C 78.127 19.678 78.529 19.56 78.886 19.329 L 78.516 18.715 C 78.226 18.913 77.969 19.012 77.711 19.012 C 77.421 19.012 77.23 18.887 77.23 18.702 C 77.23 18.154 78.905 18.346 78.905 17.217 C 78.905 16.584 78.384 16.155 77.612 16.155 C 77.164 16.155 76.708 16.294 76.319 16.564 L 76.695 17.184 Z " fill="#c50f3c"/>
<path transform="matrix(1.2709576,.00000050236,-.000000198481,-1.26652,70.85,78.589969)" d="M 79.522 17.923 L 81.1714 17.923 L 81.1714 18.66853 L 79.522 18.66853 Z " fill="#c50f3c"/>
<path transform="matrix(1.2709576,.00000050236,-.000000198481,-1.26652,70.85,78.589969)" d="M 9.7684 12.334 L 8.7721 8.9759 L 8.0199 8.9759 L 7.4063 11.298 L 7.3932 11.298 L 6.7862 8.9759 L 6.034 8.9759 L 5.0378 12.334 L 5.8625 12.334 L 6.4431 10.071 L 6.4562 10.071 L 7.0501 12.334 L 7.7692 12.334 L 8.3828 10.071 L 8.3959 10.071 L 8.9568 12.334 L 9.7684 12.334 Z " fill="#c50f3c"/>
<path transform="matrix(1.2709576,.00000050236,-.000000198481,-1.26652,70.85,78.589969)" d="M 11.355 13.35 C 11.355 13.073 11.13 12.875 10.853 12.875 C 10.583 12.875 10.358 13.073 10.358 13.35 C 10.358 13.621 10.583 13.825 10.853 13.825 C 11.13 13.825 11.355 13.621 11.355 13.35 Z M 11.249 8.9759 L 10.464 8.9759 L 10.464 12.334 L 11.249 12.334 L 11.249 8.9759 Z " fill="#c50f3c"/>
<path transform="matrix(1.2709576,.00000050236,-.000000198481,-1.26652,70.85,78.589969)" d="M 12.346 9.9259 C 12.676 9.6752 12.999 9.5498 13.296 9.5498 C 13.586 9.5498 13.791 9.6818 13.791 9.8864 C 13.791 10.46 12.108 10.256 12.108 11.377 C 12.108 11.998 12.623 12.42 13.375 12.42 C 13.778 12.42 14.18 12.301 14.536 12.07 L 14.167 11.457 C 13.876 11.655 13.619 11.754 13.362 11.754 C 13.072 11.754 12.88 11.628 12.88 11.443 C 12.88 10.896 14.556 11.087 14.556 9.9588 C 14.556 9.3255 14.035 8.8966 13.263 8.8966 C 12.814 8.8966 12.359 9.0351 11.97 9.3056 L 12.346 9.9259 Z " fill="#c50f3c"/>
<path transform="matrix(1.2709576,.00000050236,-.000000198481,-1.26652,70.85,78.589969)" d="M 15.451 9.9259 C 15.781 9.6752 16.104 9.5498 16.401 9.5498 C 16.691 9.5498 16.896 9.6818 16.896 9.8864 C 16.896 10.46 15.213 10.256 15.213 11.377 C 15.213 11.998 15.728 12.42 16.48 12.42 C 16.883 12.42 17.285 12.301 17.642 12.07 L 17.272 11.457 C 16.982 11.655 16.725 11.754 16.467 11.754 C 16.177 11.754 15.986 11.628 15.986 11.443 C 15.986 10.896 17.661 11.087 17.661 9.9588 C 17.661 9.3255 17.14 8.8966 16.368 8.8966 C 15.92 8.8966 15.464 9.0351 15.075 9.3056 L 15.451 9.9259 Z " fill="#c50f3c"/>
<path transform="matrix(1.2709576,.00000050236,-.000000198481,-1.26652,70.85,78.589969)" d="M 19.966 8.8968 C 18.97 8.8968 18.304 9.6027 18.304 10.665 C 18.304 11.707 18.944 12.42 19.881 12.42 C 20.784 12.42 21.372 11.747 21.372 10.711 C 21.372 10.599 21.365 10.48 21.358 10.388 L 19.102 10.388 C 19.188 9.8667 19.498 9.5699 19.973 9.5699 C 20.283 9.5699 20.534 9.6886 20.798 9.9658 L 21.286 9.4511 C 20.903 9.0748 20.474 8.8968 19.966 8.8968 Z M 19.089 10.962 L 20.613 10.962 C 20.58 11.477 20.309 11.773 19.867 11.773 C 19.432 11.773 19.155 11.483 19.089 10.962 Z " fill="#c50f3c"/>
<path transform="matrix(1.2709576,.00000050236,-.000000198481,-1.26652,70.85,78.589969)" d="M 25.119 8.9759 L 24.334 8.9759 L 24.334 10.896 C 24.334 11.384 24.188 11.714 23.713 11.714 C 23.166 11.714 23.014 11.265 23.014 10.902 L 23.014 8.9759 L 22.229 8.9759 L 22.229 12.334 L 23.007 12.334 L 23.007 11.932 L 23.021 11.932 C 23.218 12.229 23.575 12.42 24.01 12.42 C 24.776 12.42 25.119 11.859 25.119 11.061 L 25.119 8.9759 Z " fill="#c50f3c"/>
<path transform="matrix(1.2709576,.00000050236,-.000000198481,-1.26652,70.85,78.589969)" d="M 26.19 9.9259 C 26.52 9.6752 26.843 9.5498 27.14 9.5498 C 27.43 9.5498 27.635 9.6818 27.635 9.8864 C 27.635 10.46 25.953 10.256 25.953 11.377 C 25.953 11.998 26.467 12.42 27.219 12.42 C 27.622 12.42 28.024 12.301 28.381 12.07 L 28.011 11.457 C 27.721 11.655 27.464 11.754 27.206 11.754 C 26.916 11.754 26.725 11.628 26.725 11.443 C 26.725 10.896 28.4 11.087 28.4 9.9588 C 28.4 9.3255 27.879 8.8966 27.107 8.8966 C 26.659 8.8966 26.203 9.0351 25.814 9.3056 L 26.19 9.9259 Z " fill="#c50f3c"/>
<path transform="matrix(1.2709576,.00000050236,-.000000198481,-1.26652,70.85,78.589969)" d="M 31.853 9.4378 C 31.517 9.0684 31.134 8.8968 30.653 8.8968 C 29.689 8.8968 29.043 9.5895 29.043 10.645 C 29.043 11.701 29.696 12.42 30.666 12.42 C 31.167 12.42 31.583 12.222 31.873 11.846 L 31.332 11.331 C 31.134 11.589 30.923 11.701 30.659 11.701 C 30.164 11.701 29.828 11.292 29.828 10.658 C 29.828 10.032 30.164 9.6092 30.653 9.6092 C 30.916 9.6092 31.128 9.728 31.345 9.9787 L 31.853 9.4378 Z " fill="#c50f3c"/>
<path transform="matrix(1.2709576,.00000050236,-.000000198481,-1.26652,70.85,78.589969)" d="M 35.436 8.9759 L 34.651 8.9759 L 34.651 10.896 C 34.651 11.391 34.499 11.714 34.031 11.714 C 33.49 11.714 33.332 11.285 33.332 10.902 L 33.332 8.9759 L 32.546 8.9759 L 32.546 13.687 L 33.332 13.885 L 33.332 11.932 L 33.345 11.932 C 33.536 12.229 33.886 12.42 34.328 12.42 C 35.106 12.42 35.436 11.839 35.436 11.061 L 35.436 8.9759 Z " fill="#c50f3c"/>
<path transform="matrix(1.2709576,.00000050236,-.000000198481,-1.26652,70.85,78.589969)" d="M 37.655 11.061 C 37.873 11.061 38.071 11.048 38.288 10.988 L 38.288 11.107 C 38.288 11.536 38.037 11.76 37.549 11.76 C 37.279 11.76 36.975 11.694 36.698 11.569 L 36.527 12.229 C 36.837 12.347 37.246 12.42 37.629 12.42 C 38.572 12.42 39.06 11.978 39.06 11.12 L 39.06 8.9759 L 38.315 8.9759 L 38.315 9.3322 L 38.302 9.3322 C 38.011 9.0352 37.708 8.8968 37.318 8.8968 C 36.646 8.8968 36.21 9.3124 36.21 9.9657 C 36.21 10.678 36.718 11.061 37.655 11.061 Z M 37.523 9.484 C 37.807 9.484 38.07 9.6225 38.288 9.8864 L 38.288 10.474 C 38.103 10.52 37.912 10.54 37.741 10.54 C 37.246 10.54 36.962 10.342 36.962 9.9855 C 36.962 9.6752 37.18 9.484 37.523 9.484 Z " fill="#c50f3c"/>
<path transform="matrix(1.2709576,.00000050236,-.000000198481,-1.26652,70.85,78.589969)" d="M 41.747 13.192 C 41.642 13.238 41.516 13.258 41.404 13.258 C 41.107 13.258 40.989 13.106 40.989 12.789 L 40.989 12.334 L 41.655 12.334 L 41.655 11.681 L 40.995 11.681 L 40.995 8.9757 L 40.21 8.9757 L 40.21 11.681 L 39.689 11.681 L 39.689 12.334 L 40.21 12.334 L 40.21 12.816 C 40.21 13.515 40.527 13.931 41.279 13.931 C 41.45 13.931 41.615 13.911 41.747 13.858 L 41.747 13.192 Z " fill="#c50f3c"/>
<path transform="matrix(1.2709576,.00000050236,-.000000198481,-1.26652,70.85,78.589969)" d="M 44.257 9.695 L 44.257 9.0221 C 44.085 8.9429 43.828 8.8968 43.597 8.8968 C 43.003 8.8968 42.68 9.2267 42.68 9.8403 L 42.68 11.681 L 42.165 11.681 L 42.165 12.334 L 42.673 12.334 L 42.673 13.251 L 43.458 13.423 L 43.458 12.334 L 44.257 12.334 L 44.257 11.681 L 43.458 11.681 L 43.458 10.025 C 43.458 9.7149 43.564 9.5829 43.821 9.5829 C 43.966 9.5828 44.125 9.6291 44.257 9.695 Z " fill="#c50f3c"/>
<path transform="matrix(1.2709576,.00000050236,-.000000198481,-1.26652,70.85,78.589969)" d="M 45.833 8.9759 L 45.048 8.9759 L 45.048 13.7 L 45.833 13.878 L 45.833 8.9759 Z " fill="#c50f3c"/>
<path transform="matrix(1.2709576,.00000050236,-.000000198481,-1.26652,70.85,78.589969)" d="M 47.76 13.35 C 47.76 13.073 47.536 12.875 47.258 12.875 C 46.988 12.875 46.764 13.073 46.764 13.35 C 46.764 13.621 46.988 13.825 47.258 13.825 C 47.536 13.825 47.76 13.621 47.76 13.35 Z M 47.654 8.9759 L 46.869 8.9759 L 46.869 12.334 L 47.654 12.334 L 47.654 8.9759 Z " fill="#c50f3c"/>
<path transform="matrix(1.2709576,.00000050236,-.000000198481,-1.26652,70.85,78.589969)" d="M 51.307 9.4378 C 50.971 9.0684 50.588 8.8968 50.106 8.8968 C 49.143 8.8968 48.496 9.5895 48.496 10.645 C 48.496 11.701 49.15 12.42 50.12 12.42 C 50.621 12.42 51.037 12.222 51.327 11.846 L 50.786 11.331 C 50.588 11.589 50.377 11.701 50.113 11.701 C 49.618 11.701 49.281 11.292 49.281 10.658 C 49.281 10.032 49.618 9.6092 50.106 9.6092 C 50.37 9.6092 50.581 9.728 50.799 9.9787 L 51.307 9.4378 Z " fill="#c50f3c"/>
<path transform="matrix(1.2709576,.00000050236,-.000000198481,-1.26652,70.85,78.589969)" d="M 54.89 8.9759 L 54.105 8.9759 L 54.105 10.896 C 54.105 11.391 53.953 11.714 53.485 11.714 C 52.944 11.714 52.785 11.285 52.785 10.902 L 52.785 8.9759 L 52 8.9759 L 52 13.687 L 52.785 13.885 L 52.785 11.932 L 52.798 11.932 C 52.99 12.229 53.34 12.42 53.781 12.42 C 54.56 12.42 54.89 11.839 54.89 11.061 L 54.89 8.9759 Z " fill="#c50f3c"/>
<path transform="matrix(1.2709576,.00000050236,-.000000198481,-1.26652,70.85,78.589969)" d="M 57.375 8.8968 C 56.379 8.8968 55.713 9.6027 55.713 10.665 C 55.713 11.707 56.353 12.42 57.289 12.42 C 58.193 12.42 58.781 11.747 58.781 10.711 C 58.781 10.599 58.774 10.48 58.767 10.388 L 56.511 10.388 C 56.597 9.8667 56.907 9.5699 57.382 9.5699 C 57.692 9.5699 57.943 9.6886 58.207 9.9658 L 58.695 9.4511 C 58.312 9.0748 57.883 8.8968 57.375 8.8968 Z M 56.498 10.962 L 58.022 10.962 C 57.989 11.477 57.718 11.773 57.276 11.773 C 56.841 11.773 56.564 11.483 56.498 10.962 Z " fill="#c50f3c"/>
<path transform="matrix(1.2709576,.00000050236,-.000000198481,-1.26652,70.85,78.589969)" d="M 64.548 12.862 L 62.456 12.862 L 62.456 11.707 L 64.02 11.707 L 64.02 10.955 L 62.456 10.955 L 62.456 8.9757 L 61.631 8.9757 L 61.631 13.621 L 64.548 13.621 L 64.548 12.862 Z " fill="#c50f3c"/>
<path transform="matrix(1.2709576,.00000050236,-.000000198481,-1.26652,70.85,78.589969)" d="M 66.141 11.061 C 66.358 11.061 66.556 11.048 66.774 10.988 L 66.774 11.107 C 66.774 11.536 66.523 11.76 66.035 11.76 C 65.764 11.76 65.461 11.694 65.184 11.569 L 65.012 12.229 C 65.322 12.347 65.731 12.42 66.114 12.42 C 67.058 12.42 67.546 11.978 67.546 11.12 L 67.546 8.9759 L 66.8 8.9759 L 66.8 9.3322 L 66.787 9.3322 C 66.497 9.0352 66.193 8.8968 65.804 8.8968 C 65.131 8.8968 64.696 9.3124 64.696 9.9657 C 64.696 10.678 65.204 11.061 66.141 11.061 Z M 66.009 9.484 C 66.292 9.484 66.556 9.6225 66.774 9.8864 L 66.774 10.474 C 66.589 10.52 66.398 10.54 66.226 10.54 C 65.732 10.54 65.448 10.342 65.448 9.9855 C 65.448 9.6752 65.666 9.484 66.009 9.484 Z " fill="#c50f3c"/>
<path transform="matrix(1.2709576,.00000050236,-.000000198481,-1.26652,70.85,78.589969)" d="M 68.545 13.687 L 69.33 13.885 L 69.33 10.929 L 69.343 10.929 L 70.445 12.334 L 71.375 12.334 L 70.267 11.014 L 71.494 8.9757 L 70.564 8.9757 L 69.719 10.427 L 69.33 9.9984 L 69.33 8.9757 L 68.545 8.9757 L 68.545 13.687 Z " fill="#c50f3c"/>
<path transform="matrix(1.2709576,.00000050236,-.000000198481,-1.26652,70.85,78.589969)" d="M 72.861 10.315 C 72.861 9.8534 73.092 9.6093 73.528 9.6093 C 73.957 9.6093 74.181 9.8469 74.181 10.322 L 74.181 12.334 L 74.966 12.334 L 74.966 10.295 C 74.966 9.4114 74.471 8.8968 73.548 8.8968 C 72.631 8.8968 72.076 9.4114 72.076 10.289 L 72.076 12.334 L 72.861 12.334 L 72.861 10.315 Z " fill="#c50f3c"/>
<path transform="matrix(1.2709576,.00000050236,-.000000198481,-1.26652,70.85,78.589969)" d="M 76.756 8.9759 L 75.971 8.9759 L 75.971 13.7 L 76.756 13.878 L 76.756 8.9759 Z " fill="#c50f3c"/>
<path transform="matrix(1.2709576,.00000050236,-.000000198481,-1.26652,70.85,78.589969)" d="M 79.529 9.695 L 79.529 9.0221 C 79.358 8.9429 79.1 8.8968 78.869 8.8968 C 78.275 8.8968 77.952 9.2267 77.952 9.8403 L 77.952 11.681 L 77.438 11.681 L 77.438 12.334 L 77.946 12.334 L 77.946 13.251 L 78.731 13.423 L 78.731 12.334 L 79.529 12.334 L 79.529 11.681 L 78.731 11.681 L 78.731 10.025 C 78.731 9.7149 78.836 9.5829 79.093 9.5829 C 79.239 9.5828 79.397 9.6291 79.529 9.695 Z " fill="#c50f3c"/>
<path transform="matrix(1.2709576,.00000050236,-.000000198481,-1.26652,70.85,78.589969)" d="M 81.587 11.061 C 81.805 11.061 82.003 11.048 82.221 10.988 L 82.221 11.107 C 82.221 11.536 81.97 11.76 81.482 11.76 C 81.211 11.76 80.908 11.694 80.63 11.569 L 80.459 12.229 C 80.769 12.347 81.178 12.42 81.561 12.42 C 82.504 12.42 82.993 11.978 82.993 11.12 L 82.993 8.9759 L 82.247 8.9759 L 82.247 9.3322 L 82.234 9.3322 C 81.944 9.0352 81.64 8.8968 81.251 8.8968 C 80.578 8.8968 80.142 9.3124 80.142 9.9657 C 80.142 10.678 80.65 11.061 81.587 11.061 Z M 80.947 12.855 C 80.696 12.855 80.479 13.067 80.479 13.311 C 80.479 13.555 80.696 13.772 80.947 13.772 C 81.198 13.772 81.416 13.555 81.416 13.311 C 81.416 13.066 81.198 12.855 80.947 12.855 Z M 81.455 9.484 C 81.739 9.484 82.003 9.6225 82.221 9.8864 L 82.221 10.474 C 82.036 10.52 81.845 10.54 81.673 10.54 C 81.178 10.54 80.895 10.342 80.895 9.9855 C 80.894 9.6752 81.112 9.484 81.455 9.484 Z M 82.32 12.855 C 82.069 12.855 81.851 13.067 81.851 13.311 C 81.851 13.555 82.069 13.772 82.32 13.772 C 82.57 13.772 82.788 13.555 82.788 13.311 C 82.788 13.066 82.57 12.855 82.32 12.855 Z " fill="#c50f3c"/>
<path transform="matrix(1.2709576,.00000050236,-.000000198481,-1.26652,70.85,78.589969)" d="M 85.694 9.695 L 85.694 9.0221 C 85.523 8.9429 85.265 8.8968 85.034 8.8968 C 84.441 8.8968 84.117 9.2267 84.117 9.8403 L 84.117 11.681 L 83.603 11.681 L 83.603 12.334 L 84.111 12.334 L 84.111 13.251 L 84.896 13.423 L 84.896 12.334 L 85.694 12.334 L 85.694 11.681 L 84.896 11.681 L 84.896 10.025 C 84.896 9.7149 85.001 9.5829 85.259 9.5829 C 85.404 9.5828 85.562 9.6291 85.694 9.695 Z " fill="#c50f3c"/>
</g>
</g>
<clipPath id="cp7">
<path transform="matrix(1,0,0,-1,0,841.92)" d="M 435.95 763.33 L 524.35006 763.33 L 524.35006 806.515 L 435.95 806.515 Z " fill-rule="evenodd"/>
</clipPath>
<g clip-path="url(#cp7)">
<clipPath id="cp8">
<path transform="matrix(1.2710186,0,-.00000079603549,-1.2664777,435.95,78.589969)" d="M 0 0 L 69.555 0 L 69.555 34.099 L 0 34.099 Z " fill-rule="evenodd"/>
</clipPath>
<g clip-path="url(#cp8)">
<path transform="matrix(1.2710186,0,-.00000079603549,-1.2664777,435.95,78.589969)" d="M 5.9302 25.989 L 7.0993 27.158 L 7.0993 5.9285 L 5.9302 5.9285 L 5.9302 25.989 Z M 9.4372 26.971 L 23.465 26.971 L 23.465 28.14 L 8.2682 28.14 L 8.2682 14.112 L 21.18 14.112 L 21.18 15.281 L 9.4372 15.281 L 9.4372 26.971 Z M 22.94 17.619 L 11.775 17.619 L 11.775 22.295 L 21.324 22.295 L 22.493 23.464 L 11.775 23.464 L 11.775 24.633 L 23.465 24.633 L 23.465 25.802 L 10.606 25.802 L 10.606 16.449 L 21.787 16.449 L 22.94 17.619 Z M 8.2682 5.9284 L 9.4372 5.9284 L 9.4372 11.774 L 10.606 11.774 L 10.606 6.91 L 11.775 8.079 L 11.775 11.774 L 21.18 11.774 L 21.18 12.943 L 8.2682 12.943 L 8.2682 5.9284 Z M 65.184 28.14 L 65.184 14.696 C 65.184 11.568 63.788 8.8802 60.531 6.8188 L 60.505 6.8533 C 62.645 8.5504 64.015 10.73 64.015 13.546 L 64.015 28.14 L 62.846 28.14 L 62.846 13.566 C 62.846 9.3693 59.444 6.2206 55.247 6.2206 C 51.05 6.2206 47.648 9.3694 47.648 13.566 L 47.648 27.158 L 46.479 25.989 L 46.479 13.546 C 46.479 8.7042 50.405 5.0711 55.247 5.0711 C 55.359 5.0711 56.416 5.0711 56.416 5.0711 C 61.184 5.0711 66.353 8.5924 66.353 14.679 C 66.353 14.685 66.353 28.14 66.353 28.14 L 65.184 28.14 Z M 55.247 7.3898 C 58.796 7.3898 61.673 10.018 61.676 13.566 L 61.676 27.158 L 60.507 25.989 L 60.507 14.696 C 60.507 12.436 58.676 10.897 56.416 10.897 C 54.156 10.897 52.324 12.436 52.324 14.696 L 52.324 28.14 L 51.155 28.14 L 51.155 14.696 C 51.155 11.791 53.51 9.7277 56.416 9.7277 C 57.604 9.7277 59.046 10.315 60.025 11.348 L 60.052 11.313 C 59.133 9.6103 57.436 8.5587 55.247 8.5587 C 52.359 8.5587 50.016 10.649 49.987 13.527 L 49.986 13.527 L 49.986 28.14 L 48.817 28.14 L 48.817 13.527 L 48.818 13.527 C 48.842 9.9989 51.711 7.3898 55.247 7.3898 Z M 29.27 12.942 L 26.314 5.9284 L 27.483 5.9285 L 27.483 5.9284 L 28.961 9.4354 L 38.866 9.4354 L 40.342 5.9284 L 41.511 5.9284 L 39.542 10.604 L 29.454 10.604 L 29.946 11.773 L 40.219 11.773 L 42.68 5.9284 L 43.849 5.9284 L 40.896 12.942 L 29.27 12.942 Z M 30.99 28.14 L 22.399 7.7609 L 23.143 6.7508 L 32.159 28.14 L 30.99 28.14 Z M 35.666 28.14 L 44.671 6.7507 L 45.414 7.7607 L 36.835 28.14 L 35.666 28.14 Z M 28.591 14.111 L 25.134 5.9284 L 23.965 5.9284 L 32.744 26.752 L 37.574 15.28 L 38.743 15.28 L 33.328 28.14 L 34.497 28.14 L 40.404 14.111 L 28.591 14.111 Z M 33.916 21.192 L 31.424 15.281 L 36.404 15.281 L 33.916 21.192 Z M 29.083 15.281 L 30.255 15.281 L 33.331 22.579 L 32.746 23.969 L 29.083 15.281 Z " fill="#04316a"/>
</g>
</g>
</g>
<g id="Layer-1" data-name="Span">
<clipPath id="cp9">
<path transform="matrix(1,0,0,-1,0,841.92)" d="M .000008871 0 L 595.32 0 L 595.32 841.92 L .000008871 841.92 Z " fill-rule="evenodd"/>
</clipPath>
<g clip-path="url(#cp9)">
<text xml:space="preserve" transform="matrix(1 0 -0 1 0 841.92)" font-size="11.04" font-family="Calibri"><tspan y="-752.86" x="70.824"> </tspan></text>
</g>
</g>
<g id="Layer-1" data-name="Span">
<clipPath id="cp10">
<path transform="matrix(1,0,0,-1,0,841.92)" d="M .000008871 0 L 595.32 0 L 595.32 841.92 L .000008871 841.92 Z " fill-rule="evenodd"/>
</clipPath>
<g clip-path="url(#cp10)">
<text xml:space="preserve" transform="matrix(1 0 -0 1 0 841.92)" font-size="11.04" font-family="Calibri"><tspan y="-739.42" x="70.824"> </tspan></text>
</g>
</g>
<g id="Layer-1" data-name="Span">
<clipPath id="cp11">
<path transform="matrix(1,0,0,-1,0,841.92)" d="M .000008871 0 L 595.32 0 L 595.32 841.92 L .000008871 841.92 Z " fill-rule="evenodd"/>
</clipPath>
<g clip-path="url(#cp11)">
<text xml:space="preserve" transform="matrix(1 0 -0 1 0 841.92)" font-size="11.04" font-family="Calibri"><tspan y="-725.98" x="70.824"> </tspan></text>
</g>
</g>
<g id="Layer-1" data-name="Span">
<clipPath id="cp12">
<path transform="matrix(1,0,0,-1,0,841.92)" d="M .000008871 0 L 595.32 0 L 595.32 841.92 L .000008871 841.92 Z " fill-rule="evenodd"/>
</clipPath>
<g clip-path="url(#cp12)">
<text xml:space="preserve" transform="matrix(1 0 -0 1 0 841.92)" font-size="11.04" font-family="Calibri"><tspan y="-712.54" x="70.824"> </tspan></text>
</g>
</g>
<g id="Layer-1" data-name="Span">
<clipPath id="cp13">
<path transform="matrix(1,0,0,-1,0,841.92)" d="M .000008871 0 L 595.32 0 L 595.32 841.92 L .000008871 841.92 Z " fill-rule="evenodd"/>
</clipPath>
<g clip-path="url(#cp13)">
<text xml:space="preserve" transform="matrix(1 0 -0 1 0 841.92)" font-size="11.04" font-family="Calibri"><tspan y="-699.22" x="70.824"> </tspan></text>
</g>
</g>
<g id="Layer-1" data-name="Span">
<clipPath id="cp14">
<path transform="matrix(1,0,0,-1,0,841.92)" d="M .000008871 0 L 595.32 0 L 595.32 841.92 L .000008871 841.92 Z " fill-rule="evenodd"/>
</clipPath>
<g clip-path="url(#cp14)">
<text xml:space="preserve" transform="matrix(1 0 -0 1 0 841.92)" font-size="11.04" font-family="Calibri" font-weight="bold"><tspan y="-685.78" x="70.824">[</tspan></text>
</g>
<clipPath id="cp15">
<path transform="matrix(1,0,0,-1,0,841.92)" d="M .000008871 0 L 595.32 0 L 595.32 841.92 L .000008871 841.92 Z " fill-rule="evenodd"/>
</clipPath>
<g clip-path="url(#cp15)">
<text xml:space="preserve" transform="matrix(1 0 -0 1 0 841.92)" font-size="11.04" font-family="Calibri" font-weight="bold"><tspan y="-685.78" x="74.424 79.093929 84.64705 90.50929 94.46161 98.88865 102.71953 108.60385 114.488178">Lehrstuhl</tspan></text>
</g>
<clipPath id="cp16">
<path transform="matrix(1,0,0,-1,0,841.92)" d="M .000008871 0 L 595.32 0 L 595.32 841.92 L .000008871 841.92 Z " fill-rule="evenodd"/>
</clipPath>
<g clip-path="url(#cp16)">
<text xml:space="preserve" transform="matrix(1 0 -0 1 0 841.92)" font-size="11.04" font-family="Calibri" font-weight="bold"><tspan y="-685.78" x="117.14 121.94">/J</tspan></text>
</g>
<clipPath id="cp17">
<path transform="matrix(1,0,0,-1,0,841.92)" d="M .000008871 0 L 595.32 0 L 595.32 841.92 L .000008871 841.92 Z " fill-rule="evenodd"/>
</clipPath>
<g clip-path="url(#cp17)">
<text xml:space="preserve" transform="matrix(1 0 -0 1 0 841.92)" font-size="11.04" font-family="Calibri" font-weight="bold"><tspan y="-685.78" x="125.54 131.42432 137.30864 140.0576">unio</tspan></text>
</g>
<clipPath id="cp18">
<path transform="matrix(1,0,0,-1,0,841.92)" d="M .000008871 0 L 595.32 0 L 595.32 841.92 L .000008871 841.92 Z " fill-rule="evenodd"/>
</clipPath>
<g clip-path="url(#cp18)">
<text xml:space="preserve" transform="matrix(1 0 -0 1 0 841.92)" font-size="11.04" font-family="Calibri" font-weight="bold"><tspan y="-685.78" x="145.94 149.89234 155.77666 159.72899">rpro</tspan></text>
</g>
<clipPath id="cp19">
<path transform="matrix(1,0,0,-1,0,841.92)" d="M .000008871 0 L 595.32 0 L 595.32 841.92 L .000008871 841.92 Z " fill-rule="evenodd"/>
</clipPath>
<g clip-path="url(#cp19)">
<text xml:space="preserve" transform="matrix(1 0 -0 1 0 841.92)" font-size="11.04" font-family="Calibri" font-weight="bold"><tspan y="-685.78" x="165.62 169.10865 174.6176 179.04463 183.47167 189.23455">fessur</tspan></text>
</g>
<clipPath id="cp20">
<path transform="matrix(1,0,0,-1,0,841.92)" d="M .000008871 0 L 595.32 0 L 595.32 841.92 L .000008871 841.92 Z " fill-rule="evenodd"/>
</clipPath>
<g clip-path="url(#cp20)">
<text xml:space="preserve" transform="matrix(1 0 -0 1 0 841.92)" font-size="11.04" font-family="Calibri" font-weight="bold"><tspan y="-685.78" x="193.13">]</tspan></text>
</g>
<clipPath id="cp21">
<path transform="matrix(1,0,0,-1,0,841.92)" d="M .000008871 0 L 595.32 0 L 595.32 841.92 L .000008871 841.92 Z " fill-rule="evenodd"/>
</clipPath>
<g clip-path="url(#cp21)">
<text xml:space="preserve" transform="matrix(1 0 -0 1 0 841.92)" font-size="11.04" font-family="Calibri" font-weight="bold"><tspan y="-685.78" x="196.73"> </tspan></text>
</g>
<clipPath id="cp22">
<path transform="matrix(1,0,0,-1,0,841.92)" d="M .000008871 0 L 595.32 0 L 595.32 841.92 L .000008871 841.92 Z " fill-rule="evenodd"/>
</clipPath>
<g clip-path="url(#cp22)">
<text xml:space="preserve" transform="matrix(1 0 -0 1 0 841.92)" font-size="11.04" font-family="Calibri" font-weight="bold"><tspan y="-685.78" x="199.25 202.73865 208.61193 212.56426 215.0593 221.09818 226.9604 235.93593 244.94458 250.8289 256.5918 259.34077 264.63996 270.01646 273.84733 276.60734 282.49165 288.37596 292.6926 300.96156 303.60014 308.0272 312.34385 317.86387 323.74818 328.17524 332.84516 338.72947 344.12803 347.61668">f&#x00fc;r Kommunikationswissenschaft</tspan></text>
</g>
<clipPath id="cp23">
<path transform="matrix(1,0,0,-1,0,841.92)" d="M .000008871 0 L 595.32 0 L 595.32 841.92 L .000008871 841.92 Z " fill-rule="evenodd"/>
</clipPath>
<g clip-path="url(#cp23)">
<text xml:space="preserve" transform="matrix(1 0 -0 1 0 841.92)" font-size="11.04" font-family="Calibri" font-weight="bold"><tspan y="-685.78" x="351.55"> </tspan></text>
</g>
</g>
<g id="Layer-1" data-name="Span">
<clipPath id="cp24">
<path transform="matrix(1,0,0,-1,0,841.92)" d="M .000008871 0 L 595.32 0 L 595.32 841.92 L .000008871 841.92 Z " fill-rule="evenodd"/>
</clipPath>
<g clip-path="url(#cp24)">
<text xml:space="preserve" transform="matrix(1 0 -0 1 0 841.92)" font-size="11.04" font-family="Calibri" font-weight="bold"><tspan y="-672.34" x="70.824"> </tspan></text>
</g>
</g>
<g id="Layer-1" data-name="Span">
<clipPath id="cp25">
<path transform="matrix(1,0,0,-1,0,841.92)" d="M .000008871 0 L 595.32 0 L 595.32 841.92 L .000008871 841.92 Z " fill-rule="evenodd"/>
</clipPath>
<g clip-path="url(#cp25)">
<text xml:space="preserve" transform="matrix(1 0 -0 1 0 841.92)" font-size="11.04" font-family="Calibri" font-weight="bold"><tspan y="-658.9" x="70.824"> </tspan></text>
</g>
</g>
<g id="Layer-1" data-name="Span">
<clipPath id="cp26">
<path transform="matrix(1,0,0,-1,0,841.92)" d="M .000008871 0 L 595.32 0 L 595.32 841.92 L .000008871 841.92 Z " fill-rule="evenodd"/>
</clipPath>
<g clip-path="url(#cp26)">
<text xml:space="preserve" transform="matrix(1 0 -0 1 0 841.92)" font-size="11.04" font-family="Calibri" font-weight="bold"><tspan y="-645.46" x="70.824"> </tspan></text>
</g>
</g>
<g id="Layer-1" data-name="Span">
<clipPath id="cp27">
<path transform="matrix(1,0,0,-1,0,841.92)" d="M .000008871 0 L 595.32 0 L 595.32 841.92 L .000008871 841.92 Z " fill-rule="evenodd"/>
</clipPath>
<g clip-path="url(#cp27)">
<text xml:space="preserve" transform="matrix(1 0 -0 1 0 841.92)" font-size="11.04" font-family="Calibri"><tspan y="-632.02" x="70.824 75.89136 81.389278 90.254398 92.793598 98.53439 103.822559 107.675518 111.37392 113.7696 117.468 122.99904 125.53824">Seminartitel:</tspan></text>
</g>
<clipPath id="cp28">
<path transform="matrix(1,0,0,-1,0,841.92)" d="M .000008871 0 L 595.32 0 L 595.32 841.92 L .000008871 841.92 Z " fill-rule="evenodd"/>
</clipPath>
<g clip-path="url(#cp28)">
<text xml:space="preserve" transform="matrix(1 0 -0 1 0 841.92)" font-size="11.04" font-family="Calibri"><tspan y="-632.02" x="128.42"> </tspan></text>
</g>
<clipPath id="cp29">
<path transform="matrix(1,0,0,-1,0,841.92)" d="M .000008871 0 L 595.32 0 L 595.32 841.92 L .000008871 841.92 Z " fill-rule="evenodd"/>
</clipPath>
<g clip-path="url(#cp29)">
<text xml:space="preserve" transform="matrix(1 0 -0 1 0 841.92)" font-size="11.04" font-family="Calibri"><tspan y="-632.02" x="141.62"> </tspan></text>
</g>
<clipPath id="cp30">
<path transform="matrix(1,0,0,-1,0,841.92)" d="M .000008871 0 L 595.32 0 L 595.32 841.92 L .000008871 841.92 Z " fill-rule="evenodd"/>
</clipPath>
<g clip-path="url(#cp30)">
<text xml:space="preserve" transform="matrix(1 0 -0 1 0 841.92)" font-size="11.04" font-family="Calibri"><tspan y="-632.02" x="177.02"> </tspan></text>
</g>
<clipPath id="cp31">
<path transform="matrix(1,0,0,-1,0,841.92)" d="M .000008871 0 L 595.32 0 L 595.32 841.92 L .000008871 841.92 Z " fill-rule="evenodd"/>
</clipPath>
<g clip-path="url(#cp31)">
<text xml:space="preserve" transform="matrix(1 0 -0 1 0 841.92)" font-size="11.04" font-family="Calibri"><tspan y="-632.02" x="212.45">[</tspan></text>
</g>
<clipPath id="cp32">
<path transform="matrix(1,0,0,-1,0,841.92)" d="M .000008871 0 L 595.32 0 L 595.32 841.92 L .000008871 841.92 Z " fill-rule="evenodd"/>
</clipPath>
<g clip-path="url(#cp32)">
<text xml:space="preserve" transform="matrix(1 0 -0 1 0 841.92)" font-size="11.04" font-family="Calibri"><tspan y="-632.02" x="215.81">&#x2026;</tspan></text>
</g>
<clipPath id="cp33">
<path transform="matrix(1,0,0,-1,0,841.92)" d="M .000008871 0 L 595.32 0 L 595.32 841.92 L .000008871 841.92 Z " fill-rule="evenodd"/>
</clipPath>
<g clip-path="url(#cp33)">
<text xml:space="preserve" transform="matrix(1 0 -0 1 0 841.92)" font-size="11.04" font-family="Calibri"><tspan y="-632.02" x="223.49">]</tspan></text>
</g>
<clipPath id="cp34">
<path transform="matrix(1,0,0,-1,0,841.92)" d="M .000008871 0 L 595.32 0 L 595.32 841.92 L .000008871 841.92 Z " fill-rule="evenodd"/>
</clipPath>
<g clip-path="url(#cp34)">
<text xml:space="preserve" transform="matrix(1 0 -0 1 0 841.92)" font-size="11.04" font-family="Calibri"><tspan y="-632.02" x="226.85"> </tspan></text>
</g>
</g>
<g id="Layer-1" data-name="Span">
<clipPath id="cp35">
<path transform="matrix(1,0,0,-1,0,841.92)" d="M .000008871 0 L 595.32 0 L 595.32 841.92 L .000008871 841.92 Z " fill-rule="evenodd"/>
</clipPath>
<g clip-path="url(#cp35)">
<text xml:space="preserve" transform="matrix(1 0 -0 1 0 841.92)" font-size="11.04" font-family="Calibri"><tspan y="-612.58" x="70.824 75.89136 81.389278 90.254398 95.652957 99.9696 103.668 109.199039 112.91952">Semester:</tspan></text>
</g>
<clipPath id="cp36">
<path transform="matrix(1,0,0,-1,0,841.92)" d="M .000008871 0 L 595.32 0 L 595.32 841.92 L .000008871 841.92 Z " fill-rule="evenodd"/>
</clipPath>
<g clip-path="url(#cp36)">
<text xml:space="preserve" transform="matrix(1 0 -0 1 0 841.92)" font-size="11.04" font-family="Calibri"><tspan y="-612.58" x="115.82"> </tspan></text>
</g>
<clipPath id="cp37">
<path transform="matrix(1,0,0,-1,0,841.92)" d="M .000008871 0 L 595.32 0 L 595.32 841.92 L .000008871 841.92 Z " fill-rule="evenodd"/>
</clipPath>
<g clip-path="url(#cp37)">
<text xml:space="preserve" transform="matrix(1 0 -0 1 0 841.92)" font-size="11.04" font-family="Calibri"><tspan y="-612.58" x="141.62"> </tspan></text>
</g>
<clipPath id="cp38">
<path transform="matrix(1,0,0,-1,0,841.92)" d="M .000008871 0 L 595.32 0 L 595.32 841.92 L .000008871 841.92 Z " fill-rule="evenodd"/>
</clipPath>
<g clip-path="url(#cp38)">
<text xml:space="preserve" transform="matrix(1 0 -0 1 0 841.92)" font-size="11.04" font-family="Calibri"><tspan y="-612.58" x="177.02"> </tspan></text>
</g>
<clipPath id="cp39">
<path transform="matrix(1,0,0,-1,0,841.92)" d="M .000008871 0 L 595.32 0 L 595.32 841.92 L .000008871 841.92 Z " fill-rule="evenodd"/>
</clipPath>
<g clip-path="url(#cp39)">
<text xml:space="preserve" transform="matrix(1 0 -0 1 0 841.92)" font-size="11.04" font-family="Calibri"><tspan y="-612.58" x="212.45">[</tspan></text>
</g>
<clipPath id="cp40">
<path transform="matrix(1,0,0,-1,0,841.92)" d="M .000008871 0 L 595.32 0 L 595.32 841.92 L .000008871 841.92 Z " fill-rule="evenodd"/>
</clipPath>
<g clip-path="url(#cp40)">
<text xml:space="preserve" transform="matrix(1 0 -0 1 0 841.92)" font-size="11.04" font-family="Calibri"><tspan y="-612.58" x="215.81 225.6356 228.1748 233.92665 237.62505 243.1561">Winter</tspan></text>
</g>
<clipPath id="cp41">
<path transform="matrix(1,0,0,-1,0,841.92)" d="M .000008871 0 L 595.32 0 L 595.32 841.92 L .000008871 841.92 Z " fill-rule="evenodd"/>
</clipPath>
<g clip-path="url(#cp41)">
<text xml:space="preserve" transform="matrix(1 0 -0 1 0 841.92)" font-size="11.04" font-family="Calibri"><tspan y="-612.58" x="247.01">-</tspan></text>
</g>
<clipPath id="cp42">
<path transform="matrix(1,0,0,-1,0,841.92)" d="M .000008871 0 L 595.32 0 L 595.32 841.92 L .000008871 841.92 Z " fill-rule="evenodd"/>
</clipPath>
<g clip-path="url(#cp42)">
<text xml:space="preserve" transform="matrix(1 0 -0 1 0 841.92)" font-size="11.04" font-family="Calibri"><tspan y="-612.58" x="250.37 254.69004">/S</tspan></text>
</g>
<clipPath id="cp43">
<path transform="matrix(1,0,0,-1,0,841.92)" d="M .000008871 0 L 595.32 0 L 595.32 841.92 L .000008871 841.92 Z " fill-rule="evenodd"/>
</clipPath>
<g clip-path="url(#cp43)">
<text xml:space="preserve" transform="matrix(1 0 -0 1 0 841.92)" font-size="11.04" font-family="Calibri"><tspan y="-612.58" x="259.61 265.37287 274.23799 282.99269 288.4906">ommer</tspan></text>
</g>
<clipPath id="cp44">
<path transform="matrix(1,0,0,-1,0,841.92)" d="M .000008871 0 L 595.32 0 L 595.32 841.92 L .000008871 841.92 Z " fill-rule="evenodd"/>
</clipPath>
<g clip-path="url(#cp44)">
<text xml:space="preserve" transform="matrix(1 0 -0 1 0 841.92)" font-size="11.04" font-family="Calibri"><tspan y="-612.58" x="292.37 296.68666 302.0852 310.8399 316.33784 320.65449 324.386 329.8839">semester</tspan></text>
</g>
<clipPath id="cp45">
<path transform="matrix(1,0,0,-1,0,841.92)" d="M .000008871 0 L 595.32 0 L 595.32 841.92 L .000008871 841.92 Z " fill-rule="evenodd"/>
</clipPath>
<g clip-path="url(#cp45)">
<text xml:space="preserve" transform="matrix(1 0 -0 1 0 841.92)" font-size="11.04" font-family="Calibri"><tspan y="-612.58" x="333.67"> </tspan></text>
</g>
<clipPath id="cp46">
<path transform="matrix(1,0,0,-1,0,841.92)" d="M .000008871 0 L 595.32 0 L 595.32 841.92 L .000008871 841.92 Z " fill-rule="evenodd"/>
</clipPath>
<g clip-path="url(#cp46)">
<text xml:space="preserve" transform="matrix(1 0 -0 1 0 841.92)" font-size="11.04" font-family="Calibri"><tspan y="-612.58" x="336.19">J</tspan></text>
</g>
<clipPath id="cp47">
<path transform="matrix(1,0,0,-1,0,841.92)" d="M .000008871 0 L 595.32 0 L 595.32 841.92 L .000008871 841.92 Z " fill-rule="evenodd"/>
</clipPath>
<g clip-path="url(#cp47)">
<text xml:space="preserve" transform="matrix(1 0 -0 1 0 841.92)" font-size="11.04" font-family="Calibri"><tspan y="-612.58" x="339.67 344.95817 350.71">ahr</tspan></text>
</g>
<clipPath id="cp48">
<path transform="matrix(1,0,0,-1,0,841.92)" d="M .000008871 0 L 595.32 0 L 595.32 841.92 L .000008871 841.92 Z " fill-rule="evenodd"/>
</clipPath>
<g clip-path="url(#cp48)">
<text xml:space="preserve" transform="matrix(1 0 -0 1 0 841.92)" font-size="11.04" font-family="Calibri"><tspan y="-612.58" x="354.55">]</tspan></text>
</g>
<clipPath id="cp49">
<path transform="matrix(1,0,0,-1,0,841.92)" d="M .000008871 0 L 595.32 0 L 595.32 841.92 L .000008871 841.92 Z " fill-rule="evenodd"/>
</clipPath>
<g clip-path="url(#cp49)">
<text xml:space="preserve" transform="matrix(1 0 -0 1 0 841.92)" font-size="11.04" font-family="Calibri"><tspan y="-612.58" x="357.91"> </tspan></text>
</g>
</g>
<g id="Layer-1" data-name="Span">
<clipPath id="cp50">
<path transform="matrix(1,0,0,-1,0,841.92)" d="M .000008871 0 L 595.32 0 L 595.32 841.92 L .000008871 841.92 Z " fill-rule="evenodd"/>
</clipPath>
<g clip-path="url(#cp50)">
<text xml:space="preserve" transform="matrix(1 0 -0 1 0 841.92)" font-size="11.04" font-family="Calibri"><tspan y="-593.11" x="70.824 77.65775 83.53103 87.84767 93.34559 99.00911 102.70751 105.24671 111.00959 115.20479 122.03854 127.91182 132.22846 137.72638 143.38991 147.0883">Dozentin/Dozent:</tspan></text>
</g>
<clipPath id="cp51">
<path transform="matrix(1,0,0,-1,0,841.92)" d="M .000008871 0 L 595.32 0 L 595.32 841.92 L .000008871 841.92 Z " fill-rule="evenodd"/>
</clipPath>
<g clip-path="url(#cp51)">
<text xml:space="preserve" transform="matrix(1 0 -0 1 0 841.92)" font-size="11.04" font-family="Calibri"><tspan y="-593.11" x="150.14"> </tspan></text>
</g>
<clipPath id="cp52">
<path transform="matrix(1,0,0,-1,0,841.92)" d="M .000008871 0 L 595.32 0 L 595.32 841.92 L .000008871 841.92 Z " fill-rule="evenodd"/>
</clipPath>
<g clip-path="url(#cp52)">
<text xml:space="preserve" transform="matrix(1 0 -0 1 0 841.92)" font-size="11.04" font-family="Calibri"><tspan y="-593.11" x="152.54"> </tspan></text>
</g>
<clipPath id="cp53">
<path transform="matrix(1,0,0,-1,0,841.92)" d="M .000008871 0 L 595.32 0 L 595.32 841.92 L .000008871 841.92 Z " fill-rule="evenodd"/>
</clipPath>
<g clip-path="url(#cp53)">
<text xml:space="preserve" transform="matrix(1 0 -0 1 0 841.92)" font-size="11.04" font-family="Calibri"><tspan y="-593.11" x="177.02"> </tspan></text>
</g>
<clipPath id="cp54">
<path transform="matrix(1,0,0,-1,0,841.92)" d="M .000008871 0 L 595.32 0 L 595.32 841.92 L .000008871 841.92 Z " fill-rule="evenodd"/>
</clipPath>
<g clip-path="url(#cp54)">
<text xml:space="preserve" transform="matrix(1 0 -0 1 0 841.92)" font-size="11.04" font-family="Calibri"><tspan y="-593.11" x="212.45">[</tspan></text>
</g>
<clipPath id="cp55">
<path transform="matrix(1,0,0,-1,0,841.92)" d="M .000008871 0 L 595.32 0 L 595.32 841.92 L .000008871 841.92 Z " fill-rule="evenodd"/>
</clipPath>
<g clip-path="url(#cp55)">
<text xml:space="preserve" transform="matrix(1 0 -0 1 0 841.92)" font-size="11.04" font-family="Calibri"><tspan y="-593.11" x="215.81">&#x2026;</tspan></text>
</g>
<clipPath id="cp56">
<path transform="matrix(1,0,0,-1,0,841.92)" d="M .000008871 0 L 595.32 0 L 595.32 841.92 L .000008871 841.92 Z " fill-rule="evenodd"/>
</clipPath>
<g clip-path="url(#cp56)">
<text xml:space="preserve" transform="matrix(1 0 -0 1 0 841.92)" font-size="11.04" font-family="Calibri"><tspan y="-593.11" x="223.49">]</tspan></text>
</g>
<clipPath id="cp57">
<path transform="matrix(1,0,0,-1,0,841.92)" d="M .000008871 0 L 595.32 0 L 595.32 841.92 L .000008871 841.92 Z " fill-rule="evenodd"/>
</clipPath>
<g clip-path="url(#cp57)">
<text xml:space="preserve" transform="matrix(1 0 -0 1 0 841.92)" font-size="11.04" font-family="Calibri"><tspan y="-593.11" x="226.85"> </tspan></text>
</g>
</g>
<g id="Layer-1" data-name="Span">
<clipPath id="cp58">
<path transform="matrix(1,0,0,-1,0,841.92)" d="M .000008871 0 L 595.32 0 L 595.32 841.92 L .000008871 841.92 Z " fill-rule="evenodd"/>
</clipPath>
<g clip-path="url(#cp58)">
<text xml:space="preserve" transform="matrix(1 0 -0 1 0 841.92)" font-size="11.04" font-family="Calibri"><tspan y="-573.67" x="70.824"> </tspan></text>
</g>
</g>
<g id="Layer-1" data-name="Span">
<clipPath id="cp59">
<path transform="matrix(1,0,0,-1,0,841.92)" d="M .000008871 0 L 595.32 0 L 595.32 841.92 L .000008871 841.92 Z " fill-rule="evenodd"/>
</clipPath>
<g clip-path="url(#cp59)">
<text xml:space="preserve" transform="matrix(1 0 -0 1 0 841.92)" font-size="11.04" font-family="Calibri"><tspan y="-554.23" x="70.824"> </tspan></text>
</g>
</g>
<g id="Layer-1" data-name="Span">
<clipPath id="cp60">
<path transform="matrix(1,0,0,-1,0,841.92)" d="M .000008871 0 L 595.32 0 L 595.32 841.92 L .000008871 841.92 Z " fill-rule="evenodd"/>
</clipPath>
<g clip-path="url(#cp60)">
<text xml:space="preserve" transform="matrix(1 0 -0 1 0 841.92)" font-size="11.04" font-family="Calibri"><tspan y="-534.79" x="70.824"> </tspan></text>
</g>
</g>
<g id="Layer-1" data-name="Span">
<clipPath id="cp61">
<path transform="matrix(1,0,0,-1,0,841.92)" d="M .000008871 0 L 595.32 0 L 595.32 841.92 L .000008871 841.92 Z " fill-rule="evenodd"/>
</clipPath>
<g clip-path="url(#cp61)">
<text xml:space="preserve" transform="matrix(1 0 -0 1 0 841.92)" font-size="11.04" font-family="Calibri"><tspan y="-515.47" x="70.824"> </tspan></text>
</g>
</g>
<g id="Layer-1" data-name="Span">
<clipPath id="cp62">
<path transform="matrix(1,0,0,-1,0,841.92)" d="M .000008871 0 L 595.32 0 L 595.32 841.92 L .000008871 841.92 Z " fill-rule="evenodd"/>
</clipPath>
<g clip-path="url(#cp62)">
<text xml:space="preserve" transform="matrix(1 0 -0 1 0 841.92)" font-size="11.04" font-family="Calibri"><tspan y="-496.03" x="70.824"> </tspan></text>
</g>
</g>
<g id="Layer-1" data-name="Span">
<clipPath id="cp63">
<path transform="matrix(1,0,0,-1,0,841.92)" d="M .000008871 0 L 595.32 0 L 595.32 841.92 L .000008871 841.92 Z " fill-rule="evenodd"/>
</clipPath>
<g clip-path="url(#cp63)">
<text xml:space="preserve" transform="matrix(1 0 -0 1 0 841.92)" font-size="11.04" font-family="Calibri"><tspan y="-476.59" x="70.824 76.20048 78.73968 82.43808 87.96912 90.508319 93.00336 98.799358 104.29727 108.006717 110.501758 115.569118 120.967678 129.8328 132.372 138.1128 143.40096 147.25392 152.54209 156.35089 162.11377 167.6117 170.1509 173.74993">Titel der Seminararbeit:</tspan></text>
</g>
<clipPath id="cp64">
<path transform="matrix(1,0,0,-1,0,841.92)" d="M .000008871 0 L 595.32 0 L 595.32 841.92 L .000008871 841.92 Z " fill-rule="evenodd"/>
</clipPath>
<g clip-path="url(#cp64)">
<text xml:space="preserve" transform="matrix(1 0 -0 1 0 841.92)" font-size="11.04" font-family="Calibri"><tspan y="-476.59" x="176.66"> </tspan></text>
</g>
<clipPath id="cp65">
<path transform="matrix(1,0,0,-1,0,841.92)" d="M .000008871 0 L 595.32 0 L 595.32 841.92 L .000008871 841.92 Z " fill-rule="evenodd"/>
</clipPath>
<g clip-path="url(#cp65)">
<text xml:space="preserve" transform="matrix(1 0 -0 1 0 841.92)" font-size="11.04" font-family="Calibri"><tspan y="-476.59" x="177.02"> </tspan></text>
</g>
<clipPath id="cp66">
<path transform="matrix(1,0,0,-1,0,841.92)" d="M .000008871 0 L 595.32 0 L 595.32 841.92 L .000008871 841.92 Z " fill-rule="evenodd"/>
</clipPath>
<g clip-path="url(#cp66)">
<text xml:space="preserve" transform="matrix(1 0 -0 1 0 841.92)" font-size="11.04" font-family="Calibri" font-weight="bold"><tspan y="-476.59" x="212.45 217.95896 220.70792 224.5388 229.9484">Titel</tspan></text>
</g>
<clipPath id="cp67">
<path transform="matrix(1,0,0,-1,0,841.92)" d="M .000008871 0 L 595.32 0 L 595.32 841.92 L .000008871 841.92 Z " fill-rule="evenodd"/>
</clipPath>
<g clip-path="url(#cp67)">
<text xml:space="preserve" transform="matrix(1 0 -0 1 0 841.92)" font-size="11.04" font-family="Calibri" font-weight="bold"><tspan y="-476.59" x="232.73"> </tspan></text>
</g>
<clipPath id="cp68">
<path transform="matrix(1,0,0,-1,0,841.92)" d="M .000008871 0 L 595.32 0 L 595.32 841.92 L .000008871 841.92 Z " fill-rule="evenodd"/>
</clipPath>
<g clip-path="url(#cp68)">
<text xml:space="preserve" transform="matrix(1 0 -0 1 0 841.92)" font-size="11.04" font-family="Calibri" font-weight="bold"><tspan y="-476.59" x="235.25 241.13433 246.65431 250.60665">der </tspan></text>
</g>
<clipPath id="cp69">
<path transform="matrix(1,0,0,-1,0,841.92)" d="M .000008871 0 L 595.32 0 L 595.32 841.92 L .000008871 841.92 Z " fill-rule="evenodd"/>
</clipPath>
<g clip-path="url(#cp69)">
<text xml:space="preserve" transform="matrix(1 0 -0 1 0 841.92)" font-size="11.04" font-family="Calibri" font-weight="bold"><tspan y="-476.59" x="253.01 258.27607 263.79609 272.67225 275.4212 281.3055 286.70408 290.65638 296.05494 300.00724 305.89155 311.41157 314.16053">Seminararbeit</tspan></text>
</g>
<clipPath id="cp70">
<path transform="matrix(1,0,0,-1,0,841.92)" d="M .000008871 0 L 595.32 0 L 595.32 841.92 L .000008871 841.92 Z " fill-rule="evenodd"/>
</clipPath>
<g clip-path="url(#cp70)">
<text xml:space="preserve" transform="matrix(1 0 -0 1 0 841.92)" font-size="11.04" font-family="Calibri"><tspan y="-476.59" x="317.93"> </tspan></text>
</g>
</g>
<g id="Layer-1" data-name="Span">
<clipPath id="cp71">
<path transform="matrix(1,0,0,-1,0,841.92)" d="M .000008871 0 L 595.32 0 L 595.32 841.92 L .000008871 841.92 Z " fill-rule="evenodd"/>
</clipPath>
<g clip-path="url(#cp71)">
<text xml:space="preserve" transform="matrix(1 0 -0 1 0 841.92)" font-size="11.04" font-family="Calibri"><tspan y="-463.15" x="70.824 77.216159 82.945919 87.26256 92.55072 98.30256 100.84176 103.3368 113.1624 119.046718 122.89967 126.48768 131.9856">Anzahl W&#x00f6;rter</tspan></text>
</g>
<clipPath id="cp72">
<path transform="matrix(1,0,0,-1,0,841.92)" d="M .000008871 0 L 595.32 0 L 595.32 841.92 L .000008871 841.92 Z " fill-rule="evenodd"/>
</clipPath>
<g clip-path="url(#cp72)">
<text xml:space="preserve" transform="matrix(1 0 -0 1 0 841.92)" font-size="11.04" font-family="Calibri"><tspan y="-463.15" x="135.86 138.86002">: </tspan></text>
</g>
<clipPath id="cp73">
<path transform="matrix(1,0,0,-1,0,841.92)" d="M .000008871 0 L 595.32 0 L 595.32 841.92 L .000008871 841.92 Z " fill-rule="evenodd"/>
</clipPath>
<g clip-path="url(#cp73)">
<text xml:space="preserve" transform="matrix(1 0 -0 1 0 841.92)" font-size="11.04" font-family="Calibri"><tspan y="-463.15" x="141.26"> </tspan></text>
</g>
<clipPath id="cp74">
<path transform="matrix(1,0,0,-1,0,841.92)" d="M .000008871 0 L 595.32 0 L 595.32 841.92 L .000008871 841.92 Z " fill-rule="evenodd"/>
</clipPath>
<g clip-path="url(#cp74)">
<text xml:space="preserve" transform="matrix(1 0 -0 1 0 841.92)" font-size="11.04" font-family="Calibri"><tspan y="-463.15" x="141.62"> </tspan></text>
</g>
<clipPath id="cp75">
<path transform="matrix(1,0,0,-1,0,841.92)" d="M .000008871 0 L 595.32 0 L 595.32 841.92 L .000008871 841.92 Z " fill-rule="evenodd"/>
</clipPath>
<g clip-path="url(#cp75)">
<text xml:space="preserve" transform="matrix(1 0 -0 1 0 841.92)" font-size="11.04" font-family="Calibri"><tspan y="-463.15" x="177.02"> </tspan></text>
</g>
<clipPath id="cp76">
<path transform="matrix(1,0,0,-1,0,841.92)" d="M .000008871 0 L 595.32 0 L 595.32 841.92 L .000008871 841.92 Z " fill-rule="evenodd"/>
</clipPath>
<g clip-path="url(#cp76)">
<text xml:space="preserve" transform="matrix(1 0 -0 1 0 841.92)" font-size="11.04" font-family="Calibri"><tspan y="-463.15" x="212.45 218.84217 224.57193 228.88857 234.17673 239.92858">Anzahl</tspan></text>
</g>
<clipPath id="cp77">
<path transform="matrix(1,0,0,-1,0,841.92)" d="M .000008871 0 L 595.32 0 L 595.32 841.92 L .000008871 841.92 Z " fill-rule="evenodd"/>
</clipPath>
<g clip-path="url(#cp77)">
<text xml:space="preserve" transform="matrix(1 0 -0 1 0 841.92)" font-size="11.04" font-family="Calibri"><tspan y="-463.15" x="242.57"> </tspan></text>
</g>
</g>
<g id="Layer-1" data-name="Span">
<clipPath id="cp78">
<path transform="matrix(1,0,0,-1,0,841.92)" d="M .000008871 0 L 595.32 0 L 595.32 841.92 L .000008871 841.92 Z " fill-rule="evenodd"/>
</clipPath>
<g clip-path="url(#cp78)">
<text xml:space="preserve" transform="matrix(1 0 -0 1 0 841.92)" font-size="11.04" font-family="Calibri"><tspan y="-449.71" x="70.824"> </tspan></text>
</g>
</g>
<g id="Layer-1" data-name="Span">
<clipPath id="cp79">
<path transform="matrix(1,0,0,-1,0,841.92)" d="M .000008871 0 L 595.32 0 L 595.32 841.92 L .000008871 841.92 Z " fill-rule="evenodd"/>
</clipPath>
<g clip-path="url(#cp79)">
<text xml:space="preserve" transform="matrix(1 0 -0 1 0 841.92)" font-size="11.04" font-family="Calibri"><tspan y="-436.25" x="70.824"> </tspan></text>
</g>
</g>
<g id="Layer-1" data-name="Span">
<clipPath id="cp80">
<path transform="matrix(1,0,0,-1,0,841.92)" d="M .000008871 0 L 595.32 0 L 595.32 841.92 L .000008871 841.92 Z " fill-rule="evenodd"/>
</clipPath>
<g clip-path="url(#cp80)">
<text xml:space="preserve" transform="matrix(1 0 -0 1 0 841.92)" font-size="11.04" font-family="Calibri"><tspan y="-422.81" x="70.824"> </tspan></text>
</g>
</g>
<g id="Layer-1" data-name="Span">
<clipPath id="cp81">
<path transform="matrix(1,0,0,-1,0,841.92)" d="M .000008871 0 L 595.32 0 L 595.32 841.92 L .000008871 841.92 Z " fill-rule="evenodd"/>
</clipPath>
<g clip-path="url(#cp81)">
<text xml:space="preserve" transform="matrix(1 0 -0 1 0 841.92)" font-size="11.04" font-family="Calibri"><tspan y="-409.37" x="70.824"> </tspan></text>
</g>
</g>
<g id="Layer-1" data-name="Span">
<clipPath id="cp82">
<path transform="matrix(1,0,0,-1,0,841.92)" d="M .000008871 0 L 595.32 0 L 595.32 841.92 L .000008871 841.92 Z " fill-rule="evenodd"/>
</clipPath>
<g clip-path="url(#cp82)">
<text xml:space="preserve" transform="matrix(1 0 -0 1 0 841.92)" font-size="11.04" font-family="Calibri"><tspan y="-395.93" x="70.824"> </tspan></text>
</g>
</g>
<g id="Layer-1" data-name="Span">
<clipPath id="cp83">
<path transform="matrix(1,0,0,-1,0,841.92)" d="M .000008871 0 L 595.32 0 L 595.32 841.92 L .000008871 841.92 Z " fill-rule="evenodd"/>
</clipPath>
<g clip-path="url(#cp83)">
<text xml:space="preserve" transform="matrix(1 0 -0 1 0 841.92)" font-size="11.04" font-family="Calibri"><tspan y="-382.61" x="70.824"> </tspan></text>
</g>
</g>
<g id="Layer-1" data-name="Span">
<clipPath id="cp84">
<path transform="matrix(1,0,0,-1,0,841.92)" d="M .000008871 0 L 595.32 0 L 595.32 841.92 L .000008871 841.92 Z " fill-rule="evenodd"/>
</clipPath>
<g clip-path="url(#cp84)">
<text xml:space="preserve" transform="matrix(1 0 -0 1 0 841.92)" font-size="11.04" font-family="Calibri"><tspan y="-369.17" x="70.824"> </tspan></text>
</g>
</g>
<g id="Layer-1" data-name="Span">
<clipPath id="cp85">
<path transform="matrix(1,0,0,-1,0,841.92)" d="M .000008871 0 L 595.32 0 L 595.32 841.92 L .000008871 841.92 Z " fill-rule="evenodd"/>
</clipPath>
<g clip-path="url(#cp85)">
<text xml:space="preserve" transform="matrix(1 0 -0 1 0 841.92)" font-size="11.04" font-family="Calibri"><tspan y="-355.73" x="70.824"> </tspan></text>
</g>
</g>
<g id="Layer-1" data-name="Span">
<clipPath id="cp86">
<path transform="matrix(1,0,0,-1,0,841.92)" d="M .000008871 0 L 595.32 0 L 595.32 841.92 L .000008871 841.92 Z " fill-rule="evenodd"/>
</clipPath>
<g clip-path="url(#cp86)">
<text xml:space="preserve" transform="matrix(1 0 -0 1 0 841.92)" font-size="11.04" font-family="Calibri"><tspan y="-342.29" x="70.824"> </tspan></text>
</g>
</g>
<g id="Layer-1" data-name="Span">
<clipPath id="cp87">
<path transform="matrix(1,0,0,-1,0,841.92)" d="M .000008871 0 L 595.32 0 L 595.32 841.92 L .000008871 841.92 Z " fill-rule="evenodd"/>
</clipPath>
<g clip-path="url(#cp87)">
<text xml:space="preserve" transform="matrix(1 0 -0 1 0 841.92)" font-size="11.04" font-family="Calibri"><tspan y="-328.85" x="70.824"> </tspan></text>
</g>
</g>
<g id="Layer-1" data-name="Span">
<clipPath id="cp88">
<path transform="matrix(1,0,0,-1,0,841.92)" d="M .000008871 0 L 595.32 0 L 595.32 841.92 L .000008871 841.92 Z " fill-rule="evenodd"/>
</clipPath>
<g clip-path="url(#cp88)">
<text xml:space="preserve" transform="matrix(1 0 -0 1 0 841.92)" font-size="11.04" font-family="Calibri"><tspan y="-315.41" x="70.824"> </tspan></text>
</g>
</g>
<g id="Layer-1" data-name="Span">
<clipPath id="cp89">
<path transform="matrix(1,0,0,-1,0,841.92)" d="M .000008871 0 L 595.32 0 L 595.32 841.92 L .000008871 841.92 Z " fill-rule="evenodd"/>
</clipPath>
<g clip-path="url(#cp89)">
<text xml:space="preserve" transform="matrix(1 0 -0 1 0 841.92)" font-size="11.04" font-family="Calibri"><tspan y="-301.97" x="70.824"> </tspan></text>
</g>
</g>
<g id="Layer-1" data-name="Span">
<clipPath id="cp90">
<path transform="matrix(1,0,0,-1,0,841.92)" d="M .000008871 0 L 595.32 0 L 595.32 841.92 L .000008871 841.92 Z " fill-rule="evenodd"/>
</clipPath>
<g clip-path="url(#cp90)">
<text xml:space="preserve" transform="matrix(1 0 -0 1 0 841.92)" font-size="11.04" font-family="Calibri"><tspan y="-288.53" x="70.824"> </tspan></text>
</g>
</g>
<g id="Layer-1" data-name="Span">
<clipPath id="cp91">
<path transform="matrix(1,0,0,-1,0,841.92)" d="M .000008871 0 L 595.32 0 L 595.32 841.92 L .000008871 841.92 Z " fill-rule="evenodd"/>
</clipPath>
<g clip-path="url(#cp91)">
<text xml:space="preserve" transform="matrix(1 0 -0 1 0 841.92)" font-size="11.04" font-family="Calibri"><tspan y="-275.06" x="70.824"> </tspan></text>
</g>
</g>
<g id="Layer-1" data-name="Span">
<clipPath id="cp92">
<path transform="matrix(1,0,0,-1,0,841.92)" d="M .000008871 0 L 595.32 0 L 595.32 841.92 L .000008871 841.92 Z " fill-rule="evenodd"/>
</clipPath>
<g clip-path="url(#cp92)">
<text xml:space="preserve" transform="matrix(1 0 -0 1 0 841.92)" font-size="11.04" font-family="Calibri"><tspan y="-261.62" x="70.824"> </tspan></text>
</g>
</g>
<g id="Layer-1" data-name="Span">
<clipPath id="cp93">
<path transform="matrix(1,0,0,-1,0,841.92)" d="M .000008871 0 L 595.32 0 L 595.32 841.92 L .000008871 841.92 Z " fill-rule="evenodd"/>
</clipPath>
<g clip-path="url(#cp93)">
<text xml:space="preserve" transform="matrix(1 0 -0 1 0 841.92)" font-size="11.04" font-family="Calibri"><tspan y="-248.3" x="70.824"> </tspan></text>
</g>
</g>
<g id="Layer-1" data-name="Span">
<clipPath id="cp94">
<path transform="matrix(1,0,0,-1,0,841.92)" d="M .000008871 0 L 595.32 0 L 595.32 841.92 L .000008871 841.92 Z " fill-rule="evenodd"/>
</clipPath>
<g clip-path="url(#cp94)">
<text xml:space="preserve" transform="matrix(1 0 -0 1 0 841.92)" font-size="11.04" font-family="Calibri"><tspan y="-234.86" x="70.824"> </tspan></text>
</g>
</g>
<g id="Layer-1" data-name="Span">
<clipPath id="cp95">
<path transform="matrix(1,0,0,-1,0,841.92)" d="M .000008871 0 L 595.32 0 L 595.32 841.92 L .000008871 841.92 Z " fill-rule="evenodd"/>
</clipPath>
<g clip-path="url(#cp95)">
<text xml:space="preserve" transform="matrix(1 0 -0 1 0 841.92)" font-size="11.04" font-family="Calibri"><tspan y="-221.42" x="70.824"> </tspan></text>
</g>
</g>
<g id="Layer-1" data-name="Span">
<clipPath id="cp96">
<path transform="matrix(1,0,0,-1,0,841.92)" d="M .000008871 0 L 595.32 0 L 595.32 841.92 L .000008871 841.92 Z " fill-rule="evenodd"/>
</clipPath>
<g clip-path="url(#cp96)">
<text xml:space="preserve" transform="matrix(1 0 -0 1 0 841.92)" font-size="11.04" font-family="Calibri"><tspan y="-207.98" x="70.824"> </tspan></text>
</g>
</g>
<g id="Layer-1" data-name="Span">
<clipPath id="cp97">
<path transform="matrix(1,0,0,-1,0,841.92)" d="M .000008871 0 L 595.32 0 L 595.32 841.92 L .000008871 841.92 Z " fill-rule="evenodd"/>
</clipPath>
<g clip-path="url(#cp97)">
<text xml:space="preserve" transform="matrix(1 0 -0 1 0 841.92)" font-size="11.04" font-family="Calibri"><tspan y="-194.54" x="70.824 77.90064 83.188808 92.053928 97.452487">Name:</tspan></text>
</g>
<clipPath id="cp98">
<path transform="matrix(1,0,0,-1,0,841.92)" d="M .000008871 0 L 595.32 0 L 595.32 841.92 L .000008871 841.92 Z " fill-rule="evenodd"/>
</clipPath>
<g clip-path="url(#cp98)">
<text xml:space="preserve" transform="matrix(1 0 -0 1 0 841.92)" font-size="11.04" font-family="Calibri"><tspan y="-194.54" x="100.34"> </tspan></text>
</g>
<clipPath id="cp99">
<path transform="matrix(1,0,0,-1,0,841.92)" d="M .000008871 0 L 595.32 0 L 595.32 841.92 L .000008871 841.92 Z " fill-rule="evenodd"/>
</clipPath>
<g clip-path="url(#cp99)">
<text xml:space="preserve" transform="matrix(1 0 -0 1 0 841.92)" font-size="11.04" font-family="Calibri"><tspan y="-194.54" x="106.22"> </tspan></text>
</g>
<clipPath id="cp100">
<path transform="matrix(1,0,0,-1,0,841.92)" d="M .000008871 0 L 595.32 0 L 595.32 841.92 L .000008871 841.92 Z " fill-rule="evenodd"/>
</clipPath>
<g clip-path="url(#cp100)">
<text xml:space="preserve" transform="matrix(1 0 -0 1 0 841.92)" font-size="11.04" font-family="Calibri"><tspan y="-194.54" x="141.62"> </tspan></text>
</g>
<clipPath id="cp101">
<path transform="matrix(1,0,0,-1,0,841.92)" d="M .000008871 0 L 595.32 0 L 595.32 841.92 L .000008871 841.92 Z " fill-rule="evenodd"/>
</clipPath>
<g clip-path="url(#cp101)">
<text xml:space="preserve" transform="matrix(1 0 -0 1 0 841.92)" font-size="11.04" font-family="Calibri"><tspan y="-194.54" x="177.02 183.27968 189.13089 192.98386 198.7357 204.02387 212.77858 218.2765 222.60419 229.68082 234.8365 243.70162">Vorname/Name</tspan></text>
</g>
<clipPath id="cp102">
<path transform="matrix(1,0,0,-1,0,841.92)" d="M .000008871 0 L 595.32 0 L 595.32 841.92 L .000008871 841.92 Z " fill-rule="evenodd"/>
</clipPath>
<g clip-path="url(#cp102)">
<text xml:space="preserve" transform="matrix(1 0 -0 1 0 841.92)" font-size="11.04" font-family="Calibri"><tspan y="-194.54" x="249.17"> </tspan></text>
</g>
</g>
<g id="Layer-1" data-name="Span">
<clipPath id="cp103">
<path transform="matrix(1,0,0,-1,0,841.92)" d="M .000008871 0 L 595.32 0 L 595.32 841.92 L .000008871 841.92 Z " fill-rule="evenodd"/>
</clipPath>
<g clip-path="url(#cp103)">
<text xml:space="preserve" transform="matrix(1 0 -0 1 0 841.92)" font-size="11.04" font-family="Calibri"><tspan y="-181.1" x="70.824 80.29632 85.58448 89.28288 93.13584 95.67504 100.576808 106.07472 108.61392 114.3768 120.13968 128.8944 137.7595 143.25743 147">Matrikelnummer:</tspan></text>
</g>
<clipPath id="cp104">
<path transform="matrix(1,0,0,-1,0,841.92)" d="M .000008871 0 L 595.32 0 L 595.32 841.92 L .000008871 841.92 Z " fill-rule="evenodd"/>
</clipPath>
<g clip-path="url(#cp104)">
<text xml:space="preserve" transform="matrix(1 0 -0 1 0 841.92)" font-size="11.04" font-family="Calibri"><tspan y="-181.1" x="149.9"> </tspan></text>
</g>
<clipPath id="cp105">
<path transform="matrix(1,0,0,-1,0,841.92)" d="M .000008871 0 L 595.32 0 L 595.32 841.92 L .000008871 841.92 Z " fill-rule="evenodd"/>
</clipPath>
<g clip-path="url(#cp105)">
<text xml:space="preserve" transform="matrix(1 0 -0 1 0 841.92)" font-size="11.04" font-family="Calibri"><tspan y="-181.1" x="177.02 186.49233 191.78049 195.47888 199.33185 201.87105 206.7728 212.27072 214.80992 220.5728 226.33568 235.0904 243.9555 249.45343">Matrikelnummer</tspan></text>
</g>
<clipPath id="cp106">
<path transform="matrix(1,0,0,-1,0,841.92)" d="M .000008871 0 L 595.32 0 L 595.32 841.92 L .000008871 841.92 Z " fill-rule="evenodd"/>
</clipPath>
<g clip-path="url(#cp106)">
<text xml:space="preserve" transform="matrix(1 0 -0 1 0 841.92)" font-size="11.04" font-family="Calibri"><tspan y="-181.1" x="253.25"> </tspan></text>
</g>
</g>
<g id="Layer-1" data-name="Span">
<clipPath id="cp107">
<path transform="matrix(1,0,0,-1,0,841.92)" d="M .000008871 0 L 595.32 0 L 595.32 841.92 L .000008871 841.92 Z " fill-rule="evenodd"/>
</clipPath>
<g clip-path="url(#cp107)">
<text xml:space="preserve" transform="matrix(1 0 -0 1 0 841.92)" font-size="11.04" font-family="Calibri"><tspan y="-167.66" x="70.824 75.89136 79.58976 85.3416 91.10448 93.64368 99.141597 104.90447 110.06015 115.34831 121.10015">Studiengang</tspan></text>
</g>
<clipPath id="cp108">
<path transform="matrix(1,0,0,-1,0,841.92)" d="M .000008871 0 L 595.32 0 L 595.32 841.92 L .000008871 841.92 Z " fill-rule="evenodd"/>
</clipPath>
<g clip-path="url(#cp108)">
<text xml:space="preserve" transform="matrix(1 0 -0 1 0 841.92)" font-size="11.04" font-family="Calibri"><tspan y="-167.66" x="126.26">:</tspan></text>
</g>
<clipPath id="cp109">
<path transform="matrix(1,0,0,-1,0,841.92)" d="M .000008871 0 L 595.32 0 L 595.32 841.92 L .000008871 841.92 Z " fill-rule="evenodd"/>
</clipPath>
<g clip-path="url(#cp109)">
<text xml:space="preserve" transform="matrix(1 0 -0 1 0 841.92)" font-size="11.04" font-family="Calibri"><tspan y="-167.66" x="129.26"> </tspan></text>
</g>
<clipPath id="cp110">
<path transform="matrix(1,0,0,-1,0,841.92)" d="M .000008871 0 L 595.32 0 L 595.32 841.92 L .000008871 841.92 Z " fill-rule="evenodd"/>
</clipPath>
<g clip-path="url(#cp110)">
<text xml:space="preserve" transform="matrix(1 0 -0 1 0 841.92)" font-size="11.04" font-family="Calibri"><tspan y="-167.66" x="141.62"> </tspan></text>
</g>
<clipPath id="cp111">
<path transform="matrix(1,0,0,-1,0,841.92)" d="M .000008871 0 L 595.32 0 L 595.32 841.92 L .000008871 841.92 Z " fill-rule="evenodd"/>
</clipPath>
<g clip-path="url(#cp111)">
<text xml:space="preserve" transform="matrix(1 0 -0 1 0 841.92)" font-size="11.04" font-family="Calibri"><tspan y="-167.66" x="177.02 186.49233 191.78049 196.09712 199.69615 205.19408 209.04705 213.36368 217.08415 222.84703 228.60991 231.14911 236.64704 242.40991 247.5656 252.85376 258.6056">Masterstudiengang</tspan></text>
</g>
<clipPath id="cp112">
<path transform="matrix(1,0,0,-1,0,841.92)" d="M .000008871 0 L 595.32 0 L 595.32 841.92 L .000008871 841.92 Z " fill-rule="evenodd"/>
</clipPath>
<g clip-path="url(#cp112)">
<text xml:space="preserve" transform="matrix(1 0 -0 1 0 841.92)" font-size="11.04" font-family="Calibri"><tspan y="-167.66" x="263.81"> </tspan></text>
</g>
</g>
<g id="Layer-1" data-name="Span">
<clipPath id="cp113">
<path transform="matrix(1,0,0,-1,0,841.92)" d="M .000008871 0 L 595.32 0 L 595.32 841.92 L .000008871 841.92 Z " fill-rule="evenodd"/>
</clipPath>
<g clip-path="url(#cp113)">
<text xml:space="preserve" transform="matrix(1 0 -0 1 0 841.92)" font-size="11.04" font-family="Calibri"><tspan y="-154.22" x="70.824 75.89136 79.58976 85.3416 91.10448 93.64368 99.141597 104.90447 109.221118 114.71903 123.506877 129.00479 133.32143 136.94254 142.44046 146.29343">Studiensemester:</tspan></text>
</g>
<clipPath id="cp114">
<path transform="matrix(1,0,0,-1,0,841.92)" d="M .000008871 0 L 595.32 0 L 595.32 841.92 L .000008871 841.92 Z " fill-rule="evenodd"/>
</clipPath>
<g clip-path="url(#cp114)">
<text xml:space="preserve" transform="matrix(1 0 -0 1 0 841.92)" font-size="11.04" font-family="Calibri"><tspan y="-154.22" x="149.18"> </tspan></text>
</g>
<clipPath id="cp115">
<path transform="matrix(1,0,0,-1,0,841.92)" d="M .000008871 0 L 595.32 0 L 595.32 841.92 L .000008871 841.92 Z " fill-rule="evenodd"/>
</clipPath>
<g clip-path="url(#cp115)">
<text xml:space="preserve" transform="matrix(1 0 -0 1 0 841.92)" font-size="11.04" font-family="Calibri"><tspan y="-154.22" x="177.02 182.08737 185.78577 191.53762 197.30049 199.83969 205.33762 211.1005 215.41713 220.91506 229.70288 235.2008 239.51744 243.13855 248.63648">Studiensemester</tspan></text>
</g>
<clipPath id="cp116">
<path transform="matrix(1,0,0,-1,0,841.92)" d="M .000008871 0 L 595.32 0 L 595.32 841.92 L .000008871 841.92 Z " fill-rule="evenodd"/>
</clipPath>
<g clip-path="url(#cp116)">
<text xml:space="preserve" transform="matrix(1 0 -0 1 0 841.92)" font-size="11.04" font-family="Calibri"><tspan y="-154.22" x="252.41"> </tspan></text>
</g>
</g>
<g id="Layer-1" data-name="Span">
<clipPath id="cp117">
<path transform="matrix(1,0,0,-1,0,841.92)" d="M .000008871 0 L 595.32 0 L 595.32 841.92 L .000008871 841.92 Z " fill-rule="evenodd"/>
</clipPath>
<g clip-path="url(#cp117)">
<text xml:space="preserve" transform="matrix(1 0 -0 1 0 841.92)" font-size="11.04" font-family="Calibri"><tspan y="-140.78" x="70.824 77.216159 82.945919 87.26256 91.93248 97.72848 101.54832 104.08752 107.45472 111.15312">Anschrift:</tspan></text>
</g>
<clipPath id="cp118">
<path transform="matrix(1,0,0,-1,0,841.92)" d="M .000008871 0 L 595.32 0 L 595.32 841.92 L .000008871 841.92 Z " fill-rule="evenodd"/>
</clipPath>
<g clip-path="url(#cp118)">
<text xml:space="preserve" transform="matrix(1 0 -0 1 0 841.92)" font-size="11.04" font-family="Calibri"><tspan y="-140.78" x="114.14"> </tspan></text>
</g>
<clipPath id="cp119">
<path transform="matrix(1,0,0,-1,0,841.92)" d="M .000008871 0 L 595.32 0 L 595.32 841.92 L .000008871 841.92 Z " fill-rule="evenodd"/>
</clipPath>
<g clip-path="url(#cp119)">
<text xml:space="preserve" transform="matrix(1 0 -0 1 0 841.92)" font-size="11.04" font-family="Calibri"><tspan y="-140.78" x="116.54"> </tspan></text>
</g>
<clipPath id="cp120">
<path transform="matrix(1,0,0,-1,0,841.92)" d="M .000008871 0 L 595.32 0 L 595.32 841.92 L .000008871 841.92 Z " fill-rule="evenodd"/>
</clipPath>
<g clip-path="url(#cp120)">
<text xml:space="preserve" transform="matrix(1 0 -0 1 0 841.92)" font-size="11.04" font-family="Calibri"><tspan y="-140.78" x="141.62"> </tspan></text>
</g>
<clipPath id="cp121">
<path transform="matrix(1,0,0,-1,0,841.92)" d="M .000008871 0 L 595.32 0 L 595.32 841.92 L .000008871 841.92 Z " fill-rule="evenodd"/>
</clipPath>
<g clip-path="url(#cp121)">
<text xml:space="preserve" transform="matrix(1 0 -0 1 0 841.92)" font-size="11.04" font-family="Calibri"><tspan y="-140.78" x="177.02 182.08737 185.78577 189.63874 194.9269 200.76706 206.26499 208.92562 211.42066 218.29857 223.58673 229.32753 233.64417 239.44017 245.16994 253.92465 262.78977 268.2877 272.14067 274.79026 277.28529 282.9488 287.6187 292.78544 295.54545 297.9411 305.24958 309.10255">Stra&#x00df;e, Hausnummer, PLZ, Ort</tspan></text>
</g>
<clipPath id="cp122">
<path transform="matrix(1,0,0,-1,0,841.92)" d="M .000008871 0 L 595.32 0 L 595.32 841.92 L .000008871 841.92 Z " fill-rule="evenodd"/>
</clipPath>
<g clip-path="url(#cp122)">
<text xml:space="preserve" transform="matrix(1 0 -0 1 0 841.92)" font-size="11.04" font-family="Calibri"><tspan y="-140.78" x="312.77"> </tspan></text>
</g>
</g>
<g id="Layer-1" data-name="Span">
<clipPath id="cp123">
<path transform="matrix(1,0,0,-1,0,841.92)" d="M .000008871 0 L 595.32 0 L 595.32 841.92 L .000008871 841.92 Z " fill-rule="evenodd"/>
</clipPath>
<g clip-path="url(#cp123)">
<text xml:space="preserve" transform="matrix(1 0 -0 1 0 841.92)" font-size="11.04" font-family="Calibri"><tspan y="-127.34" x="70.824 76.20048 81.731517 84.27071 89.76863 93.0144 98.88767 104.65055 110.41343 116.17631 124.93103 133.79615 139.29407 143.03664">Telefonnummer:</tspan></text>
</g>
<clipPath id="cp124">
<path transform="matrix(1,0,0,-1,0,841.92)" d="M .000008871 0 L 595.32 0 L 595.32 841.92 L .000008871 841.92 Z " fill-rule="evenodd"/>
</clipPath>
<g clip-path="url(#cp124)">
<text xml:space="preserve" transform="matrix(1 0 -0 1 0 841.92)" font-size="11.04" font-family="Calibri"><tspan y="-127.34" x="145.94"> </tspan></text>
</g>
<clipPath id="cp125">
<path transform="matrix(1,0,0,-1,0,841.92)" d="M .000008871 0 L 595.32 0 L 595.32 841.92 L .000008871 841.92 Z " fill-rule="evenodd"/>
</clipPath>
<g clip-path="url(#cp125)">
<text xml:space="preserve" transform="matrix(1 0 -0 1 0 841.92)" font-size="11.04" font-family="Calibri"><tspan y="-127.34" x="177.02 182.39649 187.92754 190.46674 195.96466 199.21042 205.08371 210.84659 216.60947 222.37235 231.12706 239.99217 245.4901">Telefonnummer</tspan></text>
</g>
<clipPath id="cp126">
<path transform="matrix(1,0,0,-1,0,841.92)" d="M .000008871 0 L 595.32 0 L 595.32 841.92 L .000008871 841.92 Z " fill-rule="evenodd"/>
</clipPath>
<g clip-path="url(#cp126)">
<text xml:space="preserve" transform="matrix(1 0 -0 1 0 841.92)" font-size="11.04" font-family="Calibri"><tspan y="-127.34" x="249.29"> </tspan></text>
</g>
</g>
<g id="Layer-1" data-name="Span">
<clipPath id="cp127">
<path transform="matrix(1,0,0,-1,0,841.92)" d="M .000008871 0 L 595.32 0 L 595.32 841.92 L .000008871 841.92 Z " fill-rule="evenodd"/>
</clipPath>
<g clip-path="url(#cp127)">
<text xml:space="preserve" transform="matrix(1 0 -0 1 0 841.92)" font-size="11.04" font-family="Calibri"><tspan y="-114.02" x="70.824">E</tspan></text>
</g>
<clipPath id="cp128">
<path transform="matrix(1,0,0,-1,0,841.92)" d="M .000008871 0 L 595.32 0 L 595.32 841.92 L .000008871 841.92 Z " fill-rule="evenodd"/>
</clipPath>
<g clip-path="url(#cp128)">
<text xml:space="preserve" transform="matrix(1 0 -0 1 0 841.92)" font-size="11.04" font-family="Calibri"><tspan y="-114.02" x="76.224">-</tspan></text>
</g>
<clipPath id="cp129">
<path transform="matrix(1,0,0,-1,0,841.92)" d="M .000008871 0 L 595.32 0 L 595.32 841.92 L .000008871 841.92 Z " fill-rule="evenodd"/>
</clipPath>
<g clip-path="url(#cp129)">
<text xml:space="preserve" transform="matrix(1 0 -0 1 0 841.92)" font-size="11.04" font-family="Calibri"><tspan y="-114.02" x="79.584 89.05632 94.34448 96.88368">Mail</tspan></text>
</g>
<clipPath id="cp130">
<path transform="matrix(1,0,0,-1,0,841.92)" d="M .000008871 0 L 595.32 0 L 595.32 841.92 L .000008871 841.92 Z " fill-rule="evenodd"/>
</clipPath>
<g clip-path="url(#cp130)">
<text xml:space="preserve" transform="matrix(1 0 -0 1 0 841.92)" font-size="11.04" font-family="Calibri"><tspan y="-114.02" x="99.384">-</tspan></text>
</g>
<clipPath id="cp131">
<path transform="matrix(1,0,0,-1,0,841.92)" d="M .000008871 0 L 595.32 0 L 595.32 841.92 L .000008871 841.92 Z " fill-rule="evenodd"/>
</clipPath>
<g clip-path="url(#cp131)">
<text xml:space="preserve" transform="matrix(1 0 -0 1 0 841.92)" font-size="11.04" font-family="Calibri"><tspan y="-114.02" x="102.74 109.13216 114.861919 118.714878 124.21279 128.52944 132.7467 138.24463">Adresse:</tspan></text>
</g>
<clipPath id="cp132">
<path transform="matrix(1,0,0,-1,0,841.92)" d="M .000008871 0 L 595.32 0 L 595.32 841.92 L .000008871 841.92 Z " fill-rule="evenodd"/>
</clipPath>
<g clip-path="url(#cp132)">
<text xml:space="preserve" transform="matrix(1 0 -0 1 0 841.92)" font-size="11.04" font-family="Calibri"><tspan y="-114.02" x="141.14"> </tspan></text>
</g>
<clipPath id="cp133">
<path transform="matrix(1,0,0,-1,0,841.92)" d="M .000008871 0 L 595.32 0 L 595.32 841.92 L .000008871 841.92 Z " fill-rule="evenodd"/>
</clipPath>
<g clip-path="url(#cp133)">
<text xml:space="preserve" transform="matrix(1 0 -0 1 0 841.92)" font-size="11.04" font-family="Calibri"><tspan y="-114.02" x="141.62"> </tspan></text>
</g>
<clipPath id="cp134">
<path transform="matrix(1,0,0,-1,0,841.92)" d="M .000008871 0 L 595.32 0 L 595.32 841.92 L .000008871 841.92 Z " fill-rule="evenodd"/>
</clipPath>
<g clip-path="url(#cp134)">
<text xml:space="preserve" transform="matrix(1 0 -0 1 0 841.92)" font-size="11.04" font-family="Calibri"><tspan y="-114.02" x="177.02">E</tspan></text>
</g>
<clipPath id="cp135">
<path transform="matrix(1,0,0,-1,0,841.92)" d="M .000008871 0 L 595.32 0 L 595.32 841.92 L .000008871 841.92 Z " fill-rule="evenodd"/>
</clipPath>
<g clip-path="url(#cp135)">
<text xml:space="preserve" transform="matrix(1 0 -0 1 0 841.92)" font-size="11.04" font-family="Calibri"><tspan y="-114.02" x="182.42">-</tspan></text>
</g>
<clipPath id="cp136">
<path transform="matrix(1,0,0,-1,0,841.92)" d="M .000008871 0 L 595.32 0 L 595.32 841.92 L .000008871 841.92 Z " fill-rule="evenodd"/>
</clipPath>
<g clip-path="url(#cp136)">
<text xml:space="preserve" transform="matrix(1 0 -0 1 0 841.92)" font-size="11.04" font-family="Calibri"><tspan y="-114.02" x="185.78 195.25232 200.54048 203.07968">Mail</tspan></text>
</g>
<clipPath id="cp137">
<path transform="matrix(1,0,0,-1,0,841.92)" d="M .000008871 0 L 595.32 0 L 595.32 841.92 L .000008871 841.92 Z " fill-rule="evenodd"/>
</clipPath>
<g clip-path="url(#cp137)">
<text xml:space="preserve" transform="matrix(1 0 -0 1 0 841.92)" font-size="11.04" font-family="Calibri"><tspan y="-114.02" x="205.61">-</tspan></text>
</g>
<clipPath id="cp138">
<path transform="matrix(1,0,0,-1,0,841.92)" d="M .000008871 0 L 595.32 0 L 595.32 841.92 L .000008871 841.92 Z " fill-rule="evenodd"/>
</clipPath>
<g clip-path="url(#cp138)">
<text xml:space="preserve" transform="matrix(1 0 -0 1 0 841.92)" font-size="11.04" font-family="Calibri"><tspan y="-114.02" x="208.97 215.36217 221.09194 224.9449 230.44283 234.75946 238.97673">Adresse</tspan></text>
</g>
</g>
</g>
</g>
</svg>
