<?xml version="1.0" encoding="UTF-8" standalone="no"?>
<!-- Created with Inkscape (http://www.inkscape.org/) -->

<svg
   width="54.426018"
   height="21.251961"
   viewBox="0 0 14.400218 5.6229147"
   version="1.1"
   id="svg1341"
   inkscape:version="1.1.1 (3bf5ae0d25, 2021-09-20)"
   sodipodi:docname="logo_fau_red.svg"
   xmlns:inkscape="http://www.inkscape.org/namespaces/inkscape"
   xmlns:sodipodi="http://sodipodi.sourceforge.net/DTD/sodipodi-0.dtd"
   xmlns="http://www.w3.org/2000/svg"
   xmlns:svg="http://www.w3.org/2000/svg">
  <sodipodi:namedview
     id="namedview1343"
     pagecolor="#ffffff"
     bordercolor="#666666"
     borderopacity="1.0"
     inkscape:pageshadow="2"
     inkscape:pageopacity="0.0"
     inkscape:pagecheckerboard="0"
     inkscape:document-units="mm"
     showgrid="false"
     fit-margin-top="1"
     fit-margin-left="2"
     fit-margin-right="2"
     fit-margin-bottom="1"
     inkscape:zoom="18.121773"
     inkscape:cx="37.551513"
     inkscape:cy="14.706067"
     inkscape:window-width="1920"
     inkscape:window-height="1129"
     inkscape:window-x="1192"
     inkscape:window-y="1354"
     inkscape:window-maximized="1"
     inkscape:current-layer="g975"
     units="cm"
     scale-x="1.9"
     inkscape:showpageshadow="2"
     inkscape:deskcolor="#d1d1d1" />
  <defs
     id="defs1338" />
  <g
     inkscape:label="Layer 1"
     inkscape:groupmode="layer"
     id="layer1"
     transform="translate(-45.711897,-140.12238)">
    <g
       id="g975"
       transform="matrix(0.5035079,0,0,0.5035079,22.958323,72.230024)">
      <path
         id="FAU_x5F_Logo_00000087384039772143529630000018440013674716552331_"
         style="fill:#000000;stroke-width:0.0526145;fill-opacity:1"
         d="m 46.241064,136.30733 0.512677,-0.51268 v 9.31015 h -0.512677 z m 1.53803,-0.43045 h 6.15196 v -0.51267 h -6.664637 v 6.15191 h 5.662487 v -0.51257 h -5.14981 z m 5.921719,4.10132 h -4.896419 v -2.05061 h 4.187437 l 0.512677,-0.51267 h -4.700114 v -0.51268 h 5.12666 v -0.51267 h -5.639337 v 4.1013 h 4.903154 z m -6.434396,5.1266 h 0.512677 v -2.56333 h 0.512676 v 2.13289 l 0.512676,-0.51262 v -1.62027 h 4.124511 v -0.51262 h -5.66254 z m 24.959898,-9.74059 v 5.89568 c 0,1.37187 -0.612112,2.55049 -2.040379,3.45446 l -0.01158,-0.0151 c 0.938478,-0.74429 1.53928,-1.7003 1.53928,-2.93532 v -6.39968 h -0.512677 v 6.39116 c 0,1.8404 -1.491932,3.22122 -3.332329,3.22122 -1.840392,0 -3.332268,-1.38087 -3.332268,-3.22122 v -5.96078 l -0.51268,0.51267 v 5.45661 c 0,2.12353 1.721437,3.7168 3.844948,3.7168 0.04912,0 0.512677,0 0.512677,0 2.091055,0 4.357622,-1.54423 4.357622,-4.21337 0,-0.003 0,-5.90315 0,-5.90315 z m -4.357622,9.09975 c 1.556388,0 2.81818,-1.15263 2.819602,-2.70855 v 0 -5.96076 l -0.512672,0.51268 v 4.9525 c 0,0.991 -0.803369,1.66615 -1.794308,1.66615 -0.990938,0 -1.794306,-0.6752 -1.794306,-1.66615 v -5.89557 h -0.512673 v 5.89563 c 0,1.27411 1.032871,2.17882 2.306979,2.17882 0.520982,0 1.153358,-0.25739 1.582953,-0.71045 l 0.01153,0.0151 c -0.402757,0.74686 -1.147202,1.20803 -2.107098,1.20803 -1.266267,0 -2.294141,-0.91675 -2.306665,-2.17882 h -3.94e-4 v -6.40828 h -0.512673 v 6.40825 h 1.98e-4 c 0.01068,1.54723 1.268791,2.69145 2.819387,2.69145 z m -11.39204,-2.43511 -1.296423,3.07595 0.512729,-5e-5 -5.2e-5,5e-5 h 5.2e-5 l 0.648159,-1.53798 h 4.343545 l 0.647578,1.53798 h 0.512681 l -0.863461,-2.05065 h -4.424308 l 0.216089,-0.51268 h 4.505017 l 1.079336,2.56333 h 0.512675 l -1.295157,-3.07595 z m 0.754336,-6.66464 -3.767731,8.93701 0.326315,0.44302 3.954093,-9.38003 z m 2.050653,5e-5 3.949145,9.38003 0.325474,-0.44302 -3.761994,-8.93701 z m -3.10263,6.15191 -1.516247,3.58863 h -0.512676 l 3.849862,-9.13189 2.118156,5.03058 h 0.51268 l -2.374445,-5.63923 h 0.512676 l 2.590321,6.15191 z m 2.334931,-3.10494 -1.092489,2.59232 h 2.183978 z m -2.119105,2.59232 h 0.513939 l 1.348933,-3.20086 -0.256707,-0.60965 z" />
    </g>
  </g>
</svg>
